<?xml version="1.0" encoding="UTF-8"?><svg id="a" xmlns="http://www.w3.org/2000/svg" viewBox="0 0 1174.23 52.13"><defs><style>.b{fill:#fff;}</style></defs><path class="b" d="M0,51.26L22.39,.86h11.52l22.61,50.4h-12.24L25.78,6.77h4.68L11.95,51.26H0Zm11.3-10.8l2.95-8.86h26.06l3.02,8.86H11.3Z"/><path class="b" d="M66.1,51.26V.86h21.82c4.51,0,8.4,.73,11.66,2.2,3.26,1.46,5.78,3.56,7.56,6.3,1.77,2.74,2.66,5.98,2.66,9.72s-.89,7.04-2.66,9.76c-1.78,2.71-4.3,4.81-7.56,6.3-3.26,1.49-7.15,2.23-11.66,2.23h-15.41l5.33-5.26v19.15h-11.74Zm11.74-17.86l-5.33-5.54h14.76c3.55,0,6.24-.77,8.06-2.3,1.82-1.54,2.74-3.7,2.74-6.48s-.91-4.93-2.74-6.44c-1.82-1.51-4.51-2.27-8.06-2.27h-14.76l5.33-5.54v28.58Z"/><path class="b" d="M122.4,51.26V.86h21.82c4.51,0,8.4,.73,11.66,2.2,3.26,1.46,5.78,3.56,7.56,6.3,1.77,2.74,2.66,5.98,2.66,9.72s-.89,7.04-2.66,9.76c-1.78,2.71-4.3,4.81-7.56,6.3-3.26,1.49-7.15,2.23-11.66,2.23h-15.41l5.33-5.26v19.15h-11.74Zm11.74-17.86l-5.33-5.54h14.76c3.55,0,6.24-.77,8.06-2.3,1.82-1.54,2.74-3.7,2.74-6.48s-.91-4.93-2.74-6.44c-1.82-1.51-4.51-2.27-8.06-2.27h-14.76l5.33-5.54v28.58Z"/><path class="b" d="M196.05,52.13c-4.03,0-7.91-.54-11.63-1.62-3.72-1.08-6.71-2.48-8.96-4.21l3.96-8.78c2.11,1.54,4.66,2.8,7.63,3.78,2.98,.98,5.98,1.48,9,1.48,2.3,0,4.16-.24,5.58-.72,1.42-.48,2.46-1.12,3.13-1.91,.67-.79,1.01-1.72,1.01-2.77,0-1.34-.53-2.41-1.58-3.2-1.06-.79-2.46-1.44-4.21-1.94-1.75-.5-3.66-.98-5.72-1.44-2.06-.46-4.14-1.01-6.23-1.66s-4.01-1.51-5.76-2.59c-1.75-1.08-3.14-2.5-4.18-4.25-1.03-1.75-1.55-3.95-1.55-6.59,0-2.88,.77-5.51,2.3-7.88,1.54-2.38,3.88-4.27,7.02-5.69,3.14-1.42,7.09-2.12,11.84-2.12,3.17,0,6.3,.38,9.4,1.15,3.1,.77,5.8,1.87,8.1,3.31l-3.67,8.78c-2.26-1.3-4.58-2.27-6.98-2.92-2.4-.65-4.7-.97-6.91-.97s-4.15,.25-5.54,.76c-1.39,.5-2.41,1.19-3.06,2.05-.65,.86-.97,1.82-.97,2.88,0,1.34,.53,2.42,1.58,3.24,1.06,.82,2.45,1.45,4.18,1.91,1.73,.46,3.65,.91,5.76,1.37,2.11,.46,4.2,1.02,6.26,1.69,2.06,.67,3.96,1.52,5.69,2.56,1.73,1.03,3.13,2.42,4.21,4.18,1.08,1.75,1.62,3.92,1.62,6.52,0,2.83-.78,5.42-2.34,7.78-1.56,2.35-3.92,4.25-7.09,5.69s-7.13,2.16-11.88,2.16Z"/><path class="b" d="M278.49,52.13c-3.89,0-7.5-.64-10.84-1.91-3.34-1.27-6.23-3.08-8.68-5.44-2.45-2.35-4.36-5.11-5.72-8.28-1.37-3.17-2.05-6.65-2.05-10.44s.68-7.27,2.05-10.44c1.37-3.17,3.29-5.93,5.76-8.28,2.47-2.35,5.38-4.16,8.71-5.44,3.34-1.27,6.95-1.91,10.84-1.91,4.37,0,8.33,.76,11.88,2.27,3.55,1.51,6.53,3.73,8.93,6.66l-7.56,6.91c-1.68-1.97-3.59-3.46-5.72-4.46-2.14-1.01-4.45-1.51-6.95-1.51-2.35,0-4.51,.4-6.48,1.19-1.97,.79-3.67,1.91-5.11,3.35-1.44,1.44-2.56,3.14-3.35,5.11-.79,1.97-1.19,4.15-1.19,6.55s.4,4.58,1.19,6.55c.79,1.97,1.91,3.67,3.35,5.11s3.14,2.56,5.11,3.35c1.97,.79,4.13,1.19,6.48,1.19,2.5,0,4.81-.52,6.95-1.55,2.14-1.03,4.04-2.53,5.72-4.5l7.56,6.91c-2.4,2.93-5.38,5.16-8.93,6.7-3.55,1.54-7.54,2.3-11.95,2.3Z"/><path class="b" d="M311.47,51.26V.86h21.82c4.51,0,8.4,.73,11.66,2.2,3.26,1.46,5.78,3.56,7.56,6.3,1.77,2.74,2.66,5.98,2.66,9.72s-.89,7.04-2.66,9.76c-1.78,2.71-4.3,4.78-7.56,6.19-3.26,1.42-7.15,2.12-11.66,2.12h-15.41l5.33-5.04v19.15h-11.74Zm11.74-17.86l-5.33-5.54h14.76c3.55,0,6.24-.77,8.06-2.3,1.82-1.54,2.74-3.7,2.74-6.48s-.91-4.93-2.74-6.44c-1.82-1.51-4.51-2.27-8.06-2.27h-14.76l5.33-5.54v28.58Zm20.38,17.86l-12.67-18.29h12.53l12.67,18.29h-12.53Z"/><path class="b" d="M362.08,51.26L384.48,.86h11.52l22.61,50.4h-12.24l-18.5-44.5h4.68l-18.5,44.5h-11.95Zm11.3-10.8l2.95-8.86h26.06l3.02,8.86h-32.04Z"/><path class="b" d="M439.91,51.26h-11.74V.86h38.09V10.22h-26.35V51.26Zm-.94-27.72h24.19v9.36h-24.19v-9.36Z"/><path class="b" d="M489.3,51.26V10.37h-16.13V.86h43.92V10.37h-16.13V51.26h-11.66Z"/><path class="b" d="M539.27,41.9h27.43v9.36h-39.02V.86h38.09V10.22h-26.5v31.68Zm-.86-20.81h24.26v9.14h-24.26v-9.14Z"/><path class="b" d="M580.31,51.26V.86h21.82c4.51,0,8.4,.73,11.66,2.2,3.26,1.46,5.78,3.56,7.56,6.3,1.78,2.74,2.66,5.98,2.66,9.72s-.89,7.04-2.66,9.76c-1.78,2.71-4.3,4.78-7.56,6.19-3.26,1.42-7.15,2.12-11.66,2.12h-15.41l5.33-5.04v19.15h-11.74Zm11.74-17.86l-5.33-5.54h14.76c3.55,0,6.24-.77,8.06-2.3,1.82-1.54,2.74-3.7,2.74-6.48s-.91-4.93-2.74-6.44c-1.82-1.51-4.51-2.27-8.06-2.27h-14.76l5.33-5.54v28.58Zm20.38,17.86l-12.67-18.29h12.53l12.67,18.29h-12.53Z"/><path class="b" d="M654.18,52.13c-4.03,0-7.91-.54-11.63-1.62-3.72-1.08-6.71-2.48-8.96-4.21l3.96-8.78c2.11,1.54,4.65,2.8,7.63,3.78,2.98,.98,5.98,1.48,9,1.48,2.3,0,4.16-.24,5.58-.72,1.42-.48,2.46-1.12,3.13-1.91,.67-.79,1.01-1.72,1.01-2.77,0-1.34-.53-2.41-1.58-3.2-1.06-.79-2.46-1.44-4.21-1.94-1.75-.5-3.66-.98-5.72-1.44-2.06-.46-4.14-1.01-6.23-1.66s-4.01-1.51-5.76-2.59c-1.75-1.08-3.14-2.5-4.18-4.25-1.03-1.75-1.55-3.95-1.55-6.59,0-2.88,.77-5.51,2.3-7.88,1.54-2.38,3.88-4.27,7.02-5.69,3.14-1.42,7.09-2.12,11.84-2.12,3.17,0,6.3,.38,9.4,1.15,3.1,.77,5.8,1.87,8.1,3.31l-3.67,8.78c-2.26-1.3-4.58-2.27-6.98-2.92s-4.7-.97-6.91-.97-4.15,.25-5.54,.76c-1.39,.5-2.41,1.19-3.06,2.05-.65,.86-.97,1.82-.97,2.88,0,1.34,.53,2.42,1.58,3.24,1.06,.82,2.45,1.45,4.18,1.91,1.73,.46,3.65,.91,5.76,1.37,2.11,.46,4.2,1.02,6.26,1.69,2.06,.67,3.96,1.52,5.69,2.56,1.73,1.03,3.13,2.42,4.21,4.18,1.08,1.75,1.62,3.92,1.62,6.52,0,2.83-.78,5.42-2.34,7.78-1.56,2.35-3.92,4.25-7.09,5.69s-7.13,2.16-11.88,2.16Z"/><path class="b" d="M729.13,52.13c-4.03,0-7.91-.54-11.63-1.62s-6.71-2.48-8.96-4.21l3.96-8.78c2.11,1.54,4.66,2.8,7.63,3.78,2.98,.98,5.98,1.48,9,1.48,2.3,0,4.16-.24,5.58-.72,1.42-.48,2.46-1.12,3.13-1.91,.67-.79,1.01-1.72,1.01-2.77,0-1.34-.53-2.41-1.58-3.2-1.06-.79-2.46-1.44-4.21-1.94s-3.66-.98-5.72-1.44c-2.06-.46-4.14-1.01-6.23-1.66s-4.01-1.51-5.76-2.59c-1.75-1.08-3.14-2.5-4.18-4.25-1.03-1.75-1.55-3.95-1.55-6.59,0-2.88,.77-5.51,2.3-7.88s3.88-4.27,7.02-5.69c3.14-1.42,7.09-2.12,11.84-2.12,3.17,0,6.3,.38,9.4,1.15,3.1,.77,5.79,1.87,8.1,3.31l-3.67,8.78c-2.26-1.3-4.58-2.27-6.98-2.92-2.4-.65-4.71-.97-6.91-.97s-4.15,.25-5.54,.76c-1.39,.5-2.41,1.19-3.06,2.05-.65,.86-.97,1.82-.97,2.88,0,1.34,.53,2.42,1.58,3.24,1.06,.82,2.45,1.45,4.18,1.91,1.73,.46,3.65,.91,5.76,1.37,2.11,.46,4.2,1.02,6.26,1.69,2.06,.67,3.96,1.52,5.69,2.56,1.73,1.03,3.13,2.42,4.21,4.18,1.08,1.75,1.62,3.92,1.62,6.52,0,2.83-.78,5.42-2.34,7.78-1.56,2.35-3.92,4.25-7.09,5.69s-7.13,2.16-11.88,2.16Z"/><path class="b" d="M762.76,51.26V.86h11.74V51.26h-11.74Z"/><path class="b" d="M790.69,51.26V.86h9.65l29.74,36.29h-4.68V.86h11.52V51.26h-9.65l-29.74-36.29h4.68V51.26h-11.52Z"/><path class="b" d="M877.31,52.13c-3.89,0-7.5-.64-10.84-1.91-3.34-1.27-6.23-3.08-8.68-5.44-2.45-2.35-4.36-5.11-5.72-8.28-1.37-3.17-2.05-6.65-2.05-10.44s.68-7.27,2.05-10.44c1.37-3.17,3.29-5.93,5.76-8.28,2.47-2.35,5.38-4.16,8.71-5.44,3.34-1.27,6.95-1.91,10.84-1.91,4.37,0,8.33,.76,11.88,2.27,3.55,1.51,6.53,3.73,8.93,6.66l-7.56,6.91c-1.68-1.97-3.59-3.46-5.72-4.46-2.14-1.01-4.45-1.51-6.95-1.51-2.35,0-4.51,.4-6.48,1.19-1.97,.79-3.67,1.91-5.11,3.35-1.44,1.44-2.56,3.14-3.35,5.11-.79,1.97-1.19,4.15-1.19,6.55s.4,4.58,1.19,6.55c.79,1.97,1.91,3.67,3.35,5.11,1.44,1.44,3.14,2.56,5.11,3.35,1.97,.79,4.13,1.19,6.48,1.19,2.5,0,4.81-.52,6.95-1.55,2.13-1.03,4.04-2.53,5.72-4.5l7.56,6.91c-2.4,2.93-5.38,5.16-8.93,6.7-3.55,1.54-7.54,2.3-11.95,2.3Z"/><path class="b" d="M921.87,41.9h27.43v9.36h-39.02V.86h38.09V10.22h-26.5v31.68Zm-.86-20.81h24.26v9.14h-24.26v-9.14Z"/><path class="b" d="M984.01,51.26v-7.56l19.44-18.36c1.54-1.39,2.67-2.63,3.42-3.71,.74-1.08,1.24-2.09,1.48-3.02,.24-.94,.36-1.81,.36-2.63,0-1.97-.67-3.5-2.02-4.61-1.34-1.1-3.36-1.66-6.05-1.66-2.16,0-4.13,.43-5.9,1.3-1.78,.86-3.29,2.14-4.54,3.82l-8.42-5.47c1.87-2.88,4.54-5.16,7.99-6.84,3.46-1.68,7.44-2.52,11.95-2.52,3.74,0,7.03,.6,9.86,1.8,2.83,1.2,5.03,2.92,6.59,5.15,1.56,2.23,2.34,4.88,2.34,7.96,0,1.58-.23,3.19-.68,4.82-.46,1.63-1.29,3.34-2.48,5.11-1.2,1.78-2.98,3.77-5.33,5.98l-16.13,15.12-2.23-4.18h28.51v9.5h-38.16Z"/><path class="b" d="M1052.84,52.13c-4.13,0-7.81-1.02-11.05-3.06-3.24-2.04-5.81-4.99-7.7-8.86-1.9-3.86-2.84-8.58-2.84-14.15s.95-10.28,2.84-14.15c1.9-3.86,4.46-6.81,7.7-8.86,3.24-2.04,6.92-3.06,11.05-3.06s7.88,1.02,11.12,3.06c3.24,2.04,5.81,4.99,7.7,8.86,1.9,3.86,2.84,8.58,2.84,14.15s-.95,10.29-2.84,14.15c-1.9,3.86-4.46,6.82-7.7,8.86-3.24,2.04-6.95,3.06-11.12,3.06Zm0-9.79c1.97,0,3.68-.56,5.15-1.69,1.46-1.13,2.62-2.89,3.46-5.29,.84-2.4,1.26-5.5,1.26-9.29s-.42-6.89-1.26-9.29c-.84-2.4-1.99-4.16-3.46-5.29-1.46-1.13-3.18-1.69-5.15-1.69s-3.55,.56-5.04,1.69c-1.49,1.13-2.66,2.89-3.53,5.29-.86,2.4-1.3,5.5-1.3,9.29s.43,6.89,1.3,9.29c.86,2.4,2.04,4.17,3.53,5.29,1.49,1.13,3.17,1.69,5.04,1.69Z"/><path class="b" d="M1083.73,51.26v-7.56l19.44-18.36c1.54-1.39,2.67-2.63,3.42-3.71,.74-1.08,1.24-2.09,1.48-3.02,.24-.94,.36-1.81,.36-2.63,0-1.97-.67-3.5-2.02-4.61-1.34-1.1-3.36-1.66-6.05-1.66-2.16,0-4.13,.43-5.9,1.3-1.78,.86-3.29,2.14-4.54,3.82l-8.42-5.47c1.87-2.88,4.54-5.16,7.99-6.84,3.46-1.68,7.44-2.52,11.95-2.52,3.74,0,7.03,.6,9.86,1.8,2.83,1.2,5.03,2.92,6.59,5.15,1.56,2.23,2.34,4.88,2.34,7.96,0,1.58-.23,3.19-.68,4.82-.46,1.63-1.29,3.34-2.48,5.11-1.2,1.78-2.98,3.77-5.33,5.98l-16.13,15.12-2.23-4.18h28.51v9.5h-38.16Z"/><path class="b" d="M1152.56,52.13c-4.13,0-7.81-1.02-11.05-3.06-3.24-2.04-5.81-4.99-7.7-8.86-1.9-3.86-2.84-8.58-2.84-14.15s.95-10.28,2.84-14.15c1.9-3.86,4.46-6.81,7.7-8.86,3.24-2.04,6.92-3.06,11.05-3.06s7.88,1.02,11.12,3.06c3.24,2.04,5.81,4.99,7.7,8.86,1.9,3.86,2.84,8.58,2.84,14.15s-.95,10.29-2.84,14.15c-1.9,3.86-4.46,6.82-7.7,8.86-3.24,2.04-6.95,3.06-11.12,3.06Zm0-9.79c1.97,0,3.68-.56,5.15-1.69,1.46-1.13,2.62-2.89,3.46-5.29,.84-2.4,1.26-5.5,1.26-9.29s-.42-6.89-1.26-9.29c-.84-2.4-1.99-4.16-3.46-5.29-1.46-1.13-3.18-1.69-5.15-1.69s-3.55,.56-5.04,1.69c-1.49,1.13-2.66,2.89-3.53,5.29-.86,2.4-1.3,5.5-1.3,9.29s.43,6.89,1.3,9.29c.86,2.4,2.04,4.17,3.53,5.29,1.49,1.13,3.17,1.69,5.04,1.69Z"/></svg>