<?xml version="1.0" encoding="UTF-8"?><svg id="a" xmlns="http://www.w3.org/2000/svg" viewBox="0 0 688.08 120.24"><path d="M440.43,50.97c-1.56-.12-2.98-.23-4.36-.33-.84,2.2-1.66,4.56-2.65,6.85-1,2.32-2.32,4.43-4.35,6.07-3.58,2.89-9.48,1.86-11.94-2.63-1.57-2.87-2.07-6-2.28-9.51-.4,.5-.65,.82-.9,1.13-1.35,1.68-2.61,3.44-4.08,5.02-6.39,6.85-15.35,4.79-19.22-2.63-.51-.98-.94-2-1.47-3.13-.57,1.17-1.07,2.24-1.59,3.3-1.62,3.26-4.6,4.49-7.88,3.23-1.67-.64-2.7-1.92-3.38-3.53-1.27-2.98-1.03-6.1-.84-9.21,.02-.39,.07-.79,.14-1.53-.69,.73-1.18,1.22-1.64,1.73-3.11,3.45-6.23,6.88-10.13,9.48-1.59,1.06-3.24,2.07-5.29,1.95-3.22-.2-5.22-1.96-6.25-4.92-1.09-3.11-.87-6.26,0-9.33,2.34-8.23,7.03-14.65,14.9-18.38,3.79-1.8,7.7-1.95,11.55-.02,.13,.07,.29,.09,.56,.17,.62-2.69,1.16-5.34,1.84-7.95,.61-2.34,1.28-4.68,2.11-6.96,.76-2.1,1.48-2.46,3.44-1.51,1.69,.81,3.26,1.96,4.73,3.13,1.01,.8,1.14,2.07,.83,3.32-1.18,4.8-2.46,9.57-3.55,14.39-1.41,6.21-2.66,12.46-3.98,18.69-.03,.15,0,.31,0,.72,.32-.45,.53-.71,.71-.99,2.16-3.3,3.96-6.79,5.73-10.32,2.63-5.25,7.08-8.57,12.84-9.95,1.25-.3,2.62-.34,3.9-.16,3.18,.43,4.98,3.02,4.46,6.21-.54,3.37-2.22,6.24-4.25,8.87-2.61,3.38-5.39,6.62-8.14,9.98,1.03,1.56,3.95,2.15,5.81,.93,2.72-1.78,4.69-4.3,6.55-6.91,.12-.16,.2-.35,.32-.5,1.69-2,2.75-4.27,2.98-6.9,.01-.16,.02-.33,.08-.47,1.02-2.25,1.26-2.73,3.3-1.36,1.85,1.25,3.78,2.39,5.7,3.54,.83,.5,.73,1.24,.67,2-.22,2.99-.51,5.97-.62,8.96-.06,1.6,.22,3.21,.35,4.82,.16,.05,.32,.09,.49,.14,.82-1.1,1.76-2.13,2.43-3.31,.92-1.62,1.66-3.34,2.43-5.05,.11-.24-.01-.71-.2-.92-4.11-4.78-4.63-10.36-3.55-16.25,.28-1.51,.75-3.03,1.4-4.41,.91-1.94,2.5-3.12,4.77-3,2.29,.13,3.73,1.52,4.31,3.58,.55,1.98,1.03,4.07,.98,6.09-.09,3.82-.56,7.63-.93,11.44-.1,1.07,.35,1.7,1.43,1.46,1.43-.32,2.57-1.05,3.23-2.52,2.93-6.57,7.78-10.89,14.94-12.37,1.53-.32,2.99-.21,4.57,.17,2.53,.6,4.13,3.68,3.54,6.35-.54,2.42-1.69,4.56-3.12,6.54-2.88,4-6.21,7.6-9.83,10.94-.14,.13-.26,.29-.38,.42,1.15,1.76,3.51,2.48,5.36,1.61,2.44-1.16,4.27-3.08,5.99-5.08,1.32-1.55,2.56-3.17,3.71-4.85,.45-.66,.58-1.54,.83-2.34,1.88-6.13,3.88-12.24,7.02-17.85,2.85-5.08,6.41-9.68,11.24-13.05,1.72-1.2,3.83-1.92,5.85-2.56,2.31-.73,4.25,.3,5.74,2.04,1.39,1.62,1.69,3.49,1,5.59-2.28,6.97-5.69,13.31-10.37,18.94-2.95,3.55-6.38,6.61-10.4,8.92-.82,.47-1.17,.99-1.35,1.89-1.04,5.09-1.53,10.24-1.76,15.7,1.88-1.58,3.66-2.92,5.27-4.45,3.25-3.08,6.5-6.15,9.53-9.44,.93-1.01,1.52-2.7,1.57-4.1,.12-4.01,2.19-6.55,5.51-8.31,2.77-1.48,5.72-1.77,8.69-.8,2.91,.95,5.05,3.21,5.63,6.84,.29,1.78,.34,3.64,.2,5.43-.15,1.8-.67,3.58-1.03,5.36,2.27,.16,4.56-1.89,5.17-4.63,.38-1.7,.78-3.39,1.29-5.06,.1-.33,.69-.73,1.05-.73,2.46,.04,4.92,.11,7.37,.32,.68,.06,.99-.07,1.36-.58,1.41-1.92,3.09-3.58,5.32-4.52,3.92-1.66,8.8,.25,10.79,4.17,2.23,4.41,2.6,9.07,1.73,13.86-.31,1.73-.85,3.43-1.36,5.43,1.42-1.94,3.24-3.23,3.81-5.49,.59-2.33,1.37-4.61,2.04-6.92,.31-1.07,1.25-.98,1.95-.94,2.46,.15,4.91,.44,6.98,.65,1.95-1.57,3.61-3.21,5.54-4.41,3.72-2.31,8.77-.53,11.07,3.23,2.06,3.36,2.41,7.12,2.3,10.95-.09,3.1-.83,6.04-2.16,8.84,.12,.08,.24,.16,.36,.24,1.46-1.84,3.13-3.55,4.36-5.54,3.93-6.35,9.46-10.02,16.97-10.39,1.34-.07,2.77,.3,4.05,.77,2.75,1.02,3.84,4.39,2.52,7.4-1.45,3.29-3.87,5.85-6.5,8.19-2.56,2.28-5.29,4.37-7.94,6.54-.3,.25-.61,.49-.9,.72,.97,2,3.39,2.94,5.37,2.23,3.31-1.19,5.63-3.71,8.15-5.96,.71-.64,1.36-1.34,2.02-2.03,.19-.2,.41-.43,.47-.68,.54-2.21,1.39-4.42,1.47-6.65,.11-3.01,2.65-5.46,6.43-3.75,3.08,1.39,4.19,3.92,3.17,7.13-1.43,4.49-2.8,9.01-4.19,13.51-.08,.26-.13,.53,.02,.99,1.26-1.04,2.67-1.95,3.76-3.16,2.21-2.45,4.36-4.96,6.3-7.63,.85-1.17,1.09-2.78,1.65-4.17,.75-1.84,1.49-3.69,2.32-5.5,.51-1.1,1.4-1.71,2.69-1.54,1.69,.22,3.46,.19,5.05,.71,2.46,.81,2.96,2.5,1.74,4.83-2.75,5.25-4.58,10.83-6.12,16.52-.05,.19-.09,.38-.18,.8,4.15-3.09,8.39-5.8,10.59-10.56,.16-.34,0-.99-.25-1.32-1.74-2.42-2.98-5.01-2.82-8.08,.25-4.72,3.03-7.26,7.73-6.9,1.6,.12,3.25,.51,4.72,1.14,2.52,1.07,3.06,3.37,2.1,5.91-.6,1.59-1.32,3.14-2,4.76,.93,.48,1.86,1.01,2.83,1.47,4.18,2,5.82,5.45,5.37,9.87-.2,1.99-.89,3.95-1.52,5.88-.67,2.03-1.53,4-2.12,6.12,.82-.88,1.63-1.76,2.47-2.63,.92-.94,1.8-1.93,2.8-2.78,1.07-.91,1.6-2.08,2.21-3.3,2.54-5.07,7-7.42,12.4-8.3,3.07-.5,5.97-.05,8.65,1.53,2.46,1.45,3.48,3.8,2.74,6.02-.56,1.66-1.51,2.22-3.18,1.8-2.37-.6-4.74-1.15-7.2-.5-4.45,1.18-6.12,4.47-4.24,8.68,.81,1.81,1.88,3.52,2.91,5.22,.17,.28,.83,.51,1.13,.41,3.65-1.3,7.29-2.63,10.45-4.97,.68-.51,1.2-.52,1.71,.17,.12,.16,.29,.27,.43,.42,2.31,2.49,2.54,1.59-.26,3.9-2.7,2.23-5.88,3.68-9.16,4.87-.56,.2-1.12,.4-1.58,.57,.3,1.87,.76,3.66,.85,5.46,.12,2.63-.59,5.05-2.57,6.96-2.14,2.06-5.82,2.47-8.59,.95-2.89-1.59-4.21-4.41-3.67-7.53,.46-2.59,1.6-4.8,3.38-6.67-1.65-3.24-3.28-6.46-4.97-9.78-.57,.71-1.22,1.54-1.88,2.35-1.08,1.33-2.12,2.7-3.28,3.97-1.49,1.63-3.41,2.48-5.58,2.75-3.06,.38-5.42-2.32-4.85-5.68,.34-2,.93-3.96,1.36-5.95,.71-3.26,1.58-6.49,1.34-9.89-.13-1.97-1.01-3.37-2.72-4.38-1.19,1.48-2.29,2.99-3.54,4.36-3.18,3.5-6.38,6.98-9.66,10.39-.81,.84-1.86,1.54-2.92,2.04-3.89,1.83-7.18-.78-8.05-3.91-.35-1.25-.5-2.56-.74-3.86-1.53,1.2-3.07,2.5-4.71,3.65-1.94,1.36-3.93,2.42-6.54,1.87-3.16-.67-4.5-2.64-5.03-5.47-.24-1.31-.25-2.66-.35-3.88-2.06,1.67-4.06,3.5-6.27,5.03-4.64,3.22-10.19,2.88-14.13-.72-2.85-2.6-4.18-5.95-4.54-9.88-7.3,6.6-15.33,6.01-23.95,2.77-.53,2.43-1.11,5.04-1.65,7.65-.55,2.68-1.05,5.38-1.59,8.07-.2,.97-.63,1.49-1.83,1.23-1.51-.33-3.07-.4-4.61-.59-.96-.12-1.35-.65-1.31-1.64,.22-5.92,.47-11.84,1.53-17.69,.28-1.56,.43-3.15,.66-4.86-7.02,5.42-14.5,5.13-22.44,2.32-.33,1.2-.84,2.61-1.1,4.07-.65,3.74-1.16,7.51-1.77,11.26-.29,1.75-.44,1.78-2.3,1.55-1.3-.16-2.62-.17-3.93-.3-1.36-.13-1.59-.45-1.61-1.84-.11-8,.5-15.94,1.81-23.83,.11-.66,.25-1.32,.35-1.85-1.68,.22-3.34,.42-5,.68-.24,.04-.49,.29-.66,.51-1.44,1.85-2.69,3.87-4.31,5.54-2.35,2.42-5.39,3.49-8.76,3.17-1.59-.15-3.02-.96-4.03-2.31-1.29-1.73-1.79-3.71-1.94-5.82-.05-.71,0-1.42-.25-2.24-2.25,2.81-4.51,5.62-6.74,8.45-.86,1.09-1.63,2.26-2.44,3.39-1.77,2.44-4.35,2.72-7.05,2.59-.87-.04-1.77-.1-2.59-.38-2.86-.96-3.74-3.47-3.95-6.04-.27-3.4-.07-6.84-.07-10.02-1.74,1.57-3.5,3.33-5.45,4.86-5.7,4.48-13.35,2.1-16.68-3.85-1.22-2.18-2.11-4.47-2.15-7.02,0-.43-.1-.87-.16-1.31Zm-65.11-18.49c-.05-.12-.11-.24-.16-.36-1.5,.46-3.1,.71-4.47,1.42-4.94,2.55-8.18,6.71-10.18,11.78-.7,1.77-.89,3.78-1.03,5.7-.09,1.17,.66,1.47,1.65,.78,1.01-.7,2.02-1.47,2.82-2.39,4.28-4.94,7.67-10.5,11.01-16.09,.16-.26,.25-.56,.37-.84Zm159.17,14.27c-1.07,.11-2.34,.88-3.26,2.41-1.82,3.03-3.63,6.09-5.27,9.22-1,1.92-1.68,4-2.54,6.11,2.53,.22,4.81-.07,6.96-.94,2.67-1.1,3.7-3.56,4.59-6.07,.68-1.93,.26-3.92,.13-5.88-.11-1.59-.39-3.17-.61-4.86Zm20.67,23.37c1.21,0,2.28,.12,3.31-.02,2.04-.28,4.17-.38,5.71-2.07,1.5-1.65,2.74-3.57,2.88-5.74,.2-3.2-.1-6.43-.19-9.73-1.7,.29-2.7,1.38-3.58,2.56-3.39,4.54-6.04,9.49-8.12,15Zm-63.7-49.27c-6.37,5.78-10.4,12.87-13.1,20.79,7.11-5.12,11.84-11.74,13.1-20.79Zm12.08,33.9c.39-1.9,.87-3.52,1.01-5.16,.14-1.64,.12-3.38-1.49-4.37-.9,1.26-1.79,2.43-2.58,3.67-.3,.47-.63,1.14-.52,1.62,.44,1.87,1.7,3.14,3.58,4.25Zm-105.12-8.75l.37,.16c1.17-1.83,2.37-3.64,3.49-5.51,.36-.6,.6-1.32,.68-2.01,.1-.82,.49-1.99-.55-2.32-1.04-.33-1.54,.77-1.97,1.56-1.38,2.53-1.86,5.28-2.02,8.11Zm52.05,3.45c.11,.06,.23,.11,.34,.17,1.13-1.56,2.37-3.06,3.36-4.71,.63-1.06,.96-2.32,1.29-3.53,.09-.35-.18-.97-.49-1.19-.23-.16-.85,.01-1.17,.23-.44,.31-.87,.74-1.11,1.22-1.24,2.46-2.06,5.05-2.23,7.81Zm136.06,21.84c2.4-2.06,4.57-3.88,5.68-6.58,.33-.8,.93-1.94-.11-2.46-.93-.47-1.67,.5-2.2,1.23-1.63,2.23-2.8,4.68-3.37,7.81Zm-89.77-14.21c-.24,2.19-.55,4.13-.62,6.08-.03,.99,.93,1.34,1.72,.59,1.21-1.16,2.25-2.5,3.37-3.77-1.54-1-2.83-1.83-4.47-2.9Zm169.89,53.14c-.2-1.24-.41-2.48-.64-3.9-1.76,1.74-1.6,3.33,.64,3.9Zm-24.24-45.56c.44-1.31,.8-2.38,1.16-3.45-1.77,.7-2.16,1.9-1.16,3.45Z" style="fill:#ffff;"/><path d="M149.55,66.23c2.14-4.81,3.94-9.65,4.46-14.87,.07-.69-.27-.97-.82-1.24-2.29-1.13-4.29-2.63-5.56-4.92-2.73-4.89-1.21-9.31,4.36-11.05,1.47-.46,3.12-.67,4.64-.51,2.25,.24,3.51,1.8,3.64,4.06,.1,1.77,.02,3.55,.02,5.37,1.58,.09,2.97,.16,4.36,.24,4.03,.24,6.44,2.61,7.95,6.12,1.28,2.97,1.25,6.15,1.46,9.28,.08,1.23,.17,2.45,.28,4.04,.51-1.62,.88-2.93,1.33-4.22,.63-1.81,1.36-3.58,1.94-5.4,.17-.55,.02-1.23-.06-1.84-.27-2.09-.62-4.18-.84-6.27-.08-.73-.32-1.2-1-1.46-.26-.1-.51-.23-.74-.39-1.4-.92-1.51-1.69-.29-2.82,.86-.8,1.32-1.52,1.21-2.86-.44-5.04-.7-10.11-.91-15.16-.11-2.8,.33-2.67,2.89-3.33,1.44-.37,2.97-.43,4.47-.59,1.55-.17,2.64,.7,2.7,2.28,.12,2.93,.12,5.87,.26,8.81,.1,2.11,.34,4.21,.56,6.68,1.03-.93,1.91-1.68,2.74-2.48,.46-.44,.89-.93,1.24-1.46,.69-1.05,1.58-1.61,2.87-1.59,.39,0,.82-.28,1.18-.51,1.5-.96,3.82-.84,5.15,.29,.92,.79,1.18,2.77,.47,4.4-1.69,3.86-4.61,6.47-8.45,8.06-1.41,.58-2.92,.93-4.5,1.41,1.25,8.2,2.01,16.53,4.98,24.75,1.04-1.78,2.03-3.3,2.84-4.91,2.15-4.24,4.15-8.55,6.35-12.76,.67-1.28,.58-2.55,.56-3.82-.03-1.87-.07-3.78-.49-5.59-.94-4.11,1.84-5.24,4.6-5.18,4.18,.09,5.68,2.47,5.67,6.16-.01,5.05-.08,10.11-.1,15.16,0,.62,.18,1.25,.55,2.01,1.01-1.87,2.05-3.72,3.01-5.62,.89-1.74,1.56-3.61,2.55-5.28,.82-1.37,.72-2.81,.82-4.25,.2-3.12,1.47-5.8,3.46-8.12,2.15-2.49,4.79-4.39,7.92-5.41,2.55-.83,5.17-.95,7.65,.48,1.63,.94,2.32,2.38,2.29,4.18-.02,1.23-.79,2.01-2.08,2.23-2.25,.38-4.5,.72-6.44,2.07-1.85,1.29-3.14,2.91-3.28,5.28-.08,1.45,.33,2.75,1.36,3.7,1.96,1.8,4.03,3.48,6.26,5.39,2.09-2.22,4.01-4.24,5.9-6.28,1.11-1.19,1.72-2.6,2.2-4.16,1.83-6.01,5.14-11.05,10.28-14.77,2.85-2.06,5.98-3.33,9.57-3.17,.55,.02,1.15,.03,1.63,.25,2.46,1.09,5.23,.9,7.71,1.89,3.53,1.41,4.5,3.11,4.02,6.99-.48,3.91-.9,7.84-1.3,11.76-.1,1.02-.02,2.06-.02,3.43,.81-1.57,1.39-2.94,2.18-4.17,1.17-1.8,1.28-3.62,.84-5.68-.58-2.77-.77-5.58-.18-8.43,.78-3.75,3.47-4.22,6.47-2.84,2.57,1.18,3.63,3.66,4.06,6.28,.25,1.54,.02,3.15-.04,4.73-.02,.59-.15,1.17,.02,1.85,.25-.53,.49-1.06,.74-1.59,1.47-3.05,2.94-6.1,4.43-9.15,.17-.35,.43-.67,.68-.98,1.34-1.68,2.99-2.92,5.22-2.59,2.28,.34,3.67,2.05,4.29,4.09,.8,2.62,1.45,5.32,1.76,8.03,.41,3.63,.43,7.31,.64,11.33,.67-1.53,1.17-2.8,1.76-4.03,1.23-2.54,2.54-5.04,3.72-7.6,.31-.69,.26-1.55,.34-2.33,.34-3.04,1.79-5.53,3.96-7.59,2.4-2.28,5.13-4.11,8.41-4.85,2.8-.63,5.57-.58,7.98,1.35,1.43,1.14,2.03,2.98,1.51,4.6-.34,1.07-1.02,1.66-2.19,1.69-2.95,.09-5.8,.46-8.15,2.57-2.49,2.23-3.03,5.04-.97,7.63,1.52,1.92,3.45,3.52,5.27,5.19,.19,.18,.96-.04,1.3-.29,3.05-2.23,5.74-4.84,8.09-7.8,.2-.25,.41-.48,.66-.77,1.1,.56,2.19,1.06,3.2,1.68,.25,.15,.43,.85,.29,1.11-1.41,2.58-3.18,4.88-5.39,6.84-1.34,1.19-2.69,2.37-4.06,3.58,.62,1,1.25,1.96,1.82,2.96,1.3,2.28,1.65,4.78,1.17,7.31-.65,3.44-3.62,5.66-7.2,5.61-3.76-.05-6.34-2.12-7.07-5.72-.49-2.41-.23-4.76,.71-7.05,.14-.34,.12-.98-.11-1.21-2.49-2.52-5.03-4.99-7.57-7.48-.34,.79-.75,1.82-1.22,2.8-1.18,2.48-2.4,4.94-3.61,7.4-.1,.21-.25,.41-.38,.61-2.04,3.01-5.32,3.02-7.57,.06-2.1-2.76-2.86-6.03-3.43-9.32-.54-3.16-.86-6.36-1.31-9.84-.91,1.88-1.89,3.52-2.53,5.3-1.17,3.26-2.14,6.6-3.21,9.91-.28,.87-.49,1.78-.89,2.6-1.79,3.68-6.14,4.02-8.53,.67-.57-.8-.96-1.72-1.52-2.75-.23,.66-.4,1.17-.57,1.68-1.08,3.28-3.28,4.9-6.55,4.82-2.52-.06-4.99-2.12-5.64-5.09-.63-2.86-.93-5.8-1.36-8.61-.93,1.24-2.01,2.73-3.14,4.19-2.62,3.38-5.28,6.74-8.96,9.09-3.63,2.31-7.65,1.3-9.68-2.48-.54-1.01-.9-2.12-1.26-3-1.01,.9-2.15,1.92-3.16,2.83,1.1,1.83,2.4,3.46,3.1,5.31,1.53,4.01,.91,8.16-3.16,10.23-4.75,2.43-9.8-.18-10.66-5.47-.33-2.06-.1-4.05,.49-6.03,.1-.33-.08-.92-.34-1.15-1.34-1.14-2.78-2.15-4.11-3.29-1.3-1.11-2.51-2.33-3.85-3.59-.33,1.02-.59,2.08-1.01,3.08-1.41,3.38-2.8,6.77-4.36,10.08-1.07,2.25-3.07,3.33-5.55,3.28-2.53-.06-4.29-1.5-5.36-3.66-.83-1.69-1.36-3.53-2.02-5.28-.92,2.87-1.86,5.83-2.81,8.79-.6,1.86-1.22,3.71-1.8,5.57-.46,1.46-1.3,2.53-2.78,3.06-2.36,.84-4.72,1.57-7.17,.4-2-.96-3.37-2.64-4.18-4.6-1.2-2.94-2.09-6-3.1-9.01-.16-.48-.31-.97-.42-1.33-.69,1.73-1.29,3.55-2.11,5.27-.82,1.71-2.21,2.99-4.01,3.59-2.53,.83-4.95-.67-5.75-3.62-.74-2.72-1.12-5.55-1.89-8.26-.71-2.51-1.65-4.96-2.65-7.37-.58-1.4-1.84-2.19-3.36-2.4-.28-.04-.82,.28-.9,.54-1.59,5.5-3.13,11.02-4.68,16.54-.48,1.72-.76,3.52-1.43,5.15-.77,1.89-2.29,3.13-4.41,3.41-2.67,.36-4.73-.67-6.21-2.86-1.5-2.22-2.05-4.8-2.5-7.38-.16-.9-.26-1.8-.41-2.82-1.39,2.34-2.72,4.67-4.14,6.94-1.85,2.95-3.94,5.69-6.58,8.02-2.8,2.48-7.74,2.52-10.38-1.81-2.13-3.49-2.35-7.34-1.93-11.23,.65-6.18,3.11-11.61,7.27-16.22,2.38-2.63,5.24-4.67,8.72-5.57,2.24-.58,4.5-.35,6.7,.37,.4,.13,.9,.12,1.32,.01,2.1-.53,6.99,1.2,7.89,3.11,.51,1.07,.48,2.45,.52,3.69,.09,3.58,.07,7.17,.14,10.75,.02,1.38,.16,2.75,.24,4.13Zm114.52-31.05c-.97,.3-2.02,.45-2.9,.92-6.12,3.23-9.31,8.65-10.93,15.12-.35,1.38-.21,2.93-.04,4.37,.13,1.13,.74,1.31,1.66,.56,.89-.72,1.76-1.52,2.44-2.44,4.12-5.64,6.96-11.98,9.78-18.53Zm-127.06,17.62c-.09-.12-.18-.24-.27-.36-1.36,.77-2.83,1.41-4.07,2.34-2.81,2.12-4.54,5.09-5.93,8.26-1.47,3.34-2.15,6.83-1.66,10.48,.08,.57,.42,1.38,.84,1.55,.4,.16,1.2-.27,1.6-.66,.65-.63,1.2-1.4,1.64-2.19,3.42-6.15,5.68-12.77,7.85-19.42Zm96.38,12.12c-.72,1.8-.35,3.13,.82,3.48,.27,.08,.72,.08,.87-.09,.15-.17,.15-.65,.02-.87-.49-.81-1.05-1.58-1.7-2.52Zm92.24-6.02c-.7,1.85-.51,2.96,.48,3.46,.25,.13,.69,.22,.84,.09,.17-.15,.25-.62,.15-.85-.4-.85-.88-1.65-1.47-2.71Zm-170.91-16.65q-.06-2.98-.73-3.53c-.84,1.51-.65,2.57,.73,3.53Z" style="fill:#ffff;"/><path d="M15.57,67.1c-.77,1.65-1.59,3.28-2.3,4.96-.46,1.1-.95,1.77-2.36,1.41-1.3-.33-2.68-.38-4.04-.47-.96-.07-1.17-.58-1.19-1.42-.06-2.76,.89-5.25,2.07-7.66,2.2-4.45,5.39-8.02,9.93-10.13,3.73-1.74,7.64-2.83,11.72-1,1.3,.58,2.26,1.51,2.32,3.06,.06,1.74-.34,3.28-2.17,3.96-1.44,.54-2.92,.97-4.3,1.42,6.28,11.57,12.68,23.38,19.08,35.19,.12-.04,.23-.08,.35-.12-.14-.73-.22-1.48-.41-2.2-2.21-7.96-4.45-15.92-6.67-23.88-1.73-6.19-3.13-12.46-3.63-18.88-.08-1.06,.3-2.33,.89-3.23,.48-.72,1.7-1.5,2.41-1.36,.88,.17,1.9,1.13,2.27,2,.59,1.38,.67,2.98,.99,4.47,1.13,5.3,2.08,10.64,3.46,15.87,2.08,7.91,4.53,15.73,6.7,23.62,1.05,3.8,1.86,7.67,2.69,11.52,.25,1.19,.28,2.44,.23,3.66-.08,2.12-1.38,3.54-3.12,4.5-1.95,1.08-3.82,.46-5.48-.73-2.99-2.15-5.29-4.97-7.28-8.02-2.23-3.43-4.3-6.96-6.44-10.45-.12-.19-.25-.38-.29-.44,.06,2.82,.32,5.74,.12,8.63-.13,1.9-.66,3.86-1.46,5.59-1.39,3.03-4.33,4.27-7.56,3.41-2.66-.71-4.99-2.07-6.91-4.09-.68-.71-.72-1.21,.22-1.73,.87-.48,1.64-1.49,2.49-1.53,.8-.04,1.63,.92,2.48,1.37,.83,.44,1.67,.94,2.56,1.16,1.35,.33,2.07-.07,2.24-1.43,.22-1.8,.39-3.68,.11-5.46-1.2-7.67-3.47-15.06-6.22-22.31-1.16-3.05-2.15-6.16-3.22-9.25-.1-.01-.19-.03-.29-.04Z" style="fill:#ffff;"/><path d="M98.86,81.68c1.25,1.65,2.72,3.2,3.73,5.01,1.22,2.17,1.75,4.62,.8,7.09-1.2,3.11-4.82,5.13-8.08,4.74-3.81-.45-6.03-4.02-6.37-6.99-.17-1.48,.08-3.01,.07-4.51,0-.35-.21-.86-.49-1.03-1.59-1-3.27-1.85-4.83-2.88-1.52-1.01-2.94-2.17-4.49-3.33-.45,.64-.85,1.47-1.48,2.07-1.25,1.19-2.53,2.41-3.99,3.32-.79,.49-1.11,.96-1.23,1.8-.41,2.86-1.08,5.65-2.75,8.08-1.89,2.76-4.34,4.67-7.9,4.54-2.83-.1-4.55-1.94-5.9-4.16-2.11-3.45-3.07-7.3-3.62-11.25-.2-1.42-.12-2.87-.28-4.29-.08-.73-.37-1.45-.61-2.16-1.19-3.51-.23-6.54,2.14-9.18,1.97-2.2,4.45-3.56,7.41-3.98,3.43-.49,6.73,1.36,8.83,4.94,1.49,2.56,2.18,5.36,2.57,8.26,.05,.39,.09,.78,.15,1.3,1.73-1.21,2.93-2.71,3.44-4.63,.2-.75-.08-1.64-.15-2.46-.36-4.43,1.34-8.08,4.31-11.22,2.51-2.66,5.34-4.82,9.15-5.14,2.45-.21,4.74,.2,6.1,2.57,.33,.57,.5,1.27,.56,1.93,.12,1.27-.44,2-1.67,2.39-2.44,.77-4.87,1.52-6.72,3.45-3.19,3.33-2.86,7.02,.93,9.6,.92,.63,1.88,1.21,2.85,1.76,.89,.51,1.82,.95,2.91,1.51,1.23-1.6,2.56-3.13,3.68-4.81,1.21-1.82,2.25-3.75,3.3-5.66,.31-.56,.58-.74,1.22-.53,1.09,.36,2.22,.6,3.45,.93-.52,2.56-1.56,4.83-2.89,6.94-1.33,2.12-2.84,4.12-4.14,5.99Zm-32.44-.96c-.06-.62-.02-1.27-.19-1.86-.47-1.62-.92-3.27-1.59-4.81-.4-.92-1.22-1.62-2.41-1.53-.07,.71-.11,1.35-.21,1.97-.11,.66-.36,1.3-.44,1.96-.09,.65-.25,1.4-.02,1.97,.52,1.33,3.39,2.61,4.87,2.31Zm-4.8,5.21c.12,2.07,.41,3.99,1.37,5.72,.53,.96,1.23,.97,1.82,.07,1.02-1.54,1.27-3.29,1.45-5.06-1.57-.25-3.02-.48-4.64-.73Zm32.23,3.46c-.39,1.98,.04,3,1.27,3.26,.26,.06,.74,.03,.8-.11,.11-.23,.08-.66-.08-.87-.59-.76-1.26-1.46-2-2.29Z" style="fill:#ffff;"/><path d="M207.03,24.94c-.2,.97-.3,1.97-.62,2.89-.45,1.27-1.44,1.77-2.76,1.52-1.85-.35-3.34-1.26-4.25-2.97-.65-1.22-1.35-2.42-1.96-3.66-.16-.33-.28-.92-.11-1.14,.85-1.07,.11-2.03-.04-3.04-.15-.97-.39-1.96-.29-2.92,.11-1.14,1-1.79,2.11-1.57,1.03,.2,2.16,.48,2.97,1.09,3.2,2.43,4.98,5.64,4.95,9.79Z" style="fill:#ffff;"/><path d="M399.3,23.57c-1.04,.09-1.9-.28-2.25-1.24-.38-1.05,.08-1.91,1-2.57,3.64-2.64,7.27-5.3,10.9-7.96,1.33-.97,2.92-.87,3.9,.23,.94,1.07,.95,2.68-.23,3.78-3.55,3.31-7.46,6.08-12.14,7.58-.37,.12-.78,.12-1.17,.18Z" style="fill:#ffff;"/></svg>