<?xml version="1.0" encoding="UTF-8"?><svg id="a" xmlns="http://www.w3.org/2000/svg" viewBox="0 0 381.46 327.38"><path d="M148.18,14.51c1.47-4.45,4.68-7.36,8.66-9.5,5.07-2.72,10.58-4.06,16.27-4.55,9.87-.85,19.72-.53,29.52,.93,4.74,.7,9.17,2.19,12.64,5.74,1.61,1.65,2.83,3.56,3.74,5.67,.19,.44,.31,.91,.68,1.25,.72,.89,.82,2,.94,3.05,.23,2.07,.32,4.17-.36,6.17-.52,1.55-.63,3.11-.48,4.72,.37,3.93,.65,7.87,.77,11.82,.14,4.9,.43,9.81,.37,14.72-.07,5.82-.13,11.66-.49,17.47-1.03,16.47-3.03,32.83-6.02,49.07-1.39,7.58-3.08,15.1-4.71,22.64-1.88,8.67-4.08,17.26-6.33,25.83-1.64,6.26-3.15,12.55-4.91,18.78-2.48,8.8-5.04,17.59-7.65,26.35-.92,3.07-2.71,5.79-3.91,8.74-.96,2.36-2.29,3.58-4.9,3.04-.3-.06-.64-.07-.94,.08-5.01,.16-10.01,.19-14.9-1.16-.95-.52-1.14-1.5-1.42-2.41-.48-1.61-.73-3.27-1.12-4.91-1.32-5.56-2.69-11.11-4.37-16.57-.92-2.98-1.47-6.06-1.99-9.13-2.14-12.57-4.32-25.13-6.19-37.74-1.57-10.59-2.91-21.21-4.01-31.87-.6-5.8-1.14-11.6-1.56-17.41-.34-4.69-.57-9.4-.83-14.1-.58-10.34-.45-20.68-.42-31.03,.01-4.71,.34-9.41,.64-14.11,.52-8.34,1.42-16.63,2.72-24.88,.13-.85,.01-1.66-.1-2.49-.21-1.45-.49-2.95,.65-4.21Z" style="fill:#ae4f05;"/><path d="M139.61,213.14c-4.92,5.33-10.53,9.54-17.81,11.07-.46,.1-.94,.13-1.41,.2-1.54,.34-2.72-.08-3.96-1.2-6.29-5.67-12.43-11.49-18.38-17.5-5.31-5.36-10.42-10.91-15.41-16.57-7.53-8.54-14.68-17.39-21.47-26.53-7.41-9.97-14.41-20.23-20.9-30.83-4.7-7.67-9.13-15.48-13.25-23.46-.31-.59-.71-1.18-.41-1.91,1.01-2.53,2.39-4.86,3.8-7.17,.29-.48,.58-.93,.61-1.53,.42-9.35,3.71-17.64,9.38-25.02,4.44-5.78,9.45-10.94,16.03-14.31,3.63-1.86,7.37-3.45,11.5-3.86,.32-.03,.63-.07,.95-.09,3.4-.12,5.31,1.71,5.34,5.2,1.24-.29,2.09-1.29,3.22-1.69,.86,.21,.45,.82,.32,1.23-1.24,3.73-1.52,7.61-1.54,11.47-.01,3.05,.23,6.13,.68,9.18,1.22,8.25,3.33,16.26,5.88,24.19,3.38,10.51,7.56,20.71,12.02,30.8,3.02,6.83,6.24,13.58,9.62,20.24,6.21,12.22,12.73,24.26,19.71,36.06,2.48,4.2,5.16,8.28,8.17,12.11,2.25,2.85,4.56,5.66,6.88,8.46,.35,.43,.79,.85,.43,1.48Z" style="fill:#ae4f05;"/><path d="M324.75,72.1c.19,.2,.38,.4,.56,.61,.46,.55,.82,1.35,1.41,1.59,.69,.28,.92-.77,1.49-1.1,1.48-.86,2.97-.92,4.48-.25,3.35,1.5,6.31,3.58,8.95,6.14,7.45,7.22,12.58,15.94,16.48,25.47,1.56,3.81,2.9,7.69,3.58,11.77,.75,4.55,.07,8.91-1.73,13.12-.37,2.07-1.74,3.56-3.07,5.02-2.42,2.67-5.13,5.03-8.17,6.99-1.66,1.07-2.68,2.72-3.88,4.21-2.86,3.54-5.77,7.03-8.9,10.34-2.44,2.58-4.94,5.11-7.46,7.61-3.24,3.19-6.69,6.16-10.08,9.19-5.71,5.12-12.03,9.5-17.91,14.41-6.86,5.71-14.41,10.46-21.58,15.73-7.21,5.3-14.87,9.94-22.2,15.07-4.22,2.95-8.63,5.63-12.84,8.6-.79,.56-1.56,.44-2.37,.22-2.34-.44-4.48-1.41-6.56-2.51-4.87-2.57-9.26-5.78-12.85-10.01-.43-.72,.15-1.12,.55-1.53,1.39-1.43,2.86-2.79,4.22-4.25,4.19-4.51,8.89-8.48,13.2-12.87,2.07-2.11,4.06-4.25,5.82-6.64,1.37-1.85,2.94-3.59,4.57-5.21,3.55-3.53,6.71-7.39,10-11.13,1.92-2.19,4-4.24,6-6.35,2.86-3.01,5.42-6.29,8.35-9.23,2.4-2.41,4.52-5.06,6.81-7.56,4.16-4.54,8.24-9.13,11.93-14.05,3.02-4.03,6.4-7.77,9.4-11.81,2.98-4.02,5.36-8.42,8.19-12.54,2.66-3.86,4.89-7.97,6.82-12.23,2.63-5.83,4.9-11.8,5.9-18.18,.38-2.42,.34-4.85,.38-7.28,0-.47-.31-1.17,.53-1.35Z" style="fill:#ae4f05;"/><path d="M220.37,212.44c-2.34-1.69-4.83-.97-7.29-.42-.48,.11-.93,.4-1.39,.6-.65-.96-.23-1.96-.04-2.92,.91-4.61,2.72-8.92,4.33-13.3,2.51-6.83,4.57-13.8,6.6-20.79,3.78-13.01,7.29-26.09,10.55-39.24,4.36-17.61,8.06-35.37,10.91-53.3,1.33-8.36,2.82-16.7,3.94-25.1,.81-6.05,1.58-12.11,2.08-18.21,.3-3.58,.55-7.16,.74-10.75,.07-1.28,.09-2.69,1.47-3.46,.48-.47,.43-1.13,.41-1.68-.1-2.47,2.05-4.37,4.9-4.22,3.74,.19,7.34,1.12,10.84,2.35,5.74,2.02,11.29,4.46,15.82,8.71,3.24,3.04,5.36,6.81,6.91,10.93,.49,.61,.69,1.35,.87,2.08,1.06,4.39,1.28,8.8,.73,13.3-1.05,8.56-3.66,16.67-6.73,24.66-3.05,7.94-6.23,15.84-10.1,23.42-3.28,6.44-6.63,12.84-10.25,19.11-2.07,3.59-3.6,7.48-5.34,11.25-3.02,6.52-6.22,12.96-9.38,19.41-3.69,7.53-7.48,15.01-11.29,22.48-1.85,3.62-3.81,7.2-5.73,10.79-2.93,5.49-6.18,10.82-8.09,16.81-.57,1.78-1.41,3.48-2.27,5.15-.41,.8-.99,1.45-1.68,2.01-.45,.37-.94,.62-1.54,.32Z" style="fill:#ae4f05;"/><path d="M266.17,247.67c-2.51-3.36-4.04-7.15-4.8-11.26-.09-.25,.06-.36,.25-.46,9.84-4.98,19.3-10.64,28.77-16.28,12.19-7.25,24.16-14.86,35.89-22.83,9.42-6.4,18.64-13.08,27.45-20.31,4.26-3.5,8.41-7.13,12.18-11.16,1.96-2.1,3.89-4.23,5.43-6.69,.23-.37,.43-1.1,1.14-.5,4.17,7.01,6.88,14.54,8.13,22.59,1.23,7.91,1.05,15.8-.08,23.72-.99,6.99-1.92,13.99-3.58,20.86-.19,.81-.46,1.6-.7,2.4-.32,.59-.85,.92-1.43,1.22-14.49,7.42-29.62,13.19-45.36,17.33-8,2.11-16.14,3.54-24.39,4.36-5.41,.54-10.83,.84-16.26,.64-7.23-.27-14.41-1.09-21.42-2.99-.47-.13-.93-.25-1.24-.65Z" style="fill:#ae4f05;"/><path d="M252.28,25.57c-.92,1.1-1.1,2.43-1.17,3.79-.25,4.96-.61,9.9-1.13,14.84-.4,3.75-.83,7.49-1.3,11.23-.62,4.96-1.41,9.89-2.19,14.83-.74,4.7-1.59,9.38-2.31,14.09-1.05,6.83-2.31,13.61-3.66,20.38-2.05,10.24-4.17,20.47-6.73,30.6-2.91,11.53-5.93,23.03-9.18,34.46-2.36,8.31-4.72,16.62-7.57,24.78-1.06,3.04-2.34,6.01-3.36,9.07-.97,2.92-1.87,5.87-1.98,8.98-4.75,3.25-9.47,6.56-14.28,9.72-4.02,2.65-8.43,4.26-13.34,4.19-.99-.01-1.99-.01-2.98-.02,1-.42,2.04-.17,3.06-.19,.65-.01,1-.22,1.28-.81,1.5-3.13,3.2-6.18,4.5-9.39,1.1-2.72,1.77-5.61,2.59-8.44,1.63-5.58,3.2-11.17,4.85-16.74,1.39-4.69,2.56-9.44,3.68-14.2,.9-3.8,2.36-7.44,3.13-11.27,1.12-5.58,2.92-11,4.09-16.55,1.41-6.64,3.17-13.22,4.34-19.9,1.18-6.72,2.59-13.4,3.49-20.17,.74-5.58,1.63-11.15,2.33-16.74,.38-3.03,.51-6.09,.77-9.14,.3-3.48,.61-6.96,.92-10.44,.01-.16,.03-.32,.03-.48,.08-3.79,.21-7.57,.24-11.36,.02-3.15,.48-6.29,.23-9.44-.26-3.27-.12-6.54-.24-9.8-.16-3.93-.38-7.86-.74-11.78-.11-1.22-.03-2.47-.33-3.67-.18-.71,.23-1.33,.43-1.95,.99-3.15,.93-6.27,.02-9.41-.05-.19-.03-.4-.05-.59,6.11,1.77,11.98,4.12,17.23,7.74,1.67,1.15,3.4,1.82,5.34,2.13,3.34,.54,6.67,1.1,10.01,1.65Z" style="fill:#d96f15;"/><path d="M148.18,14.51c-.55,1.67-.57,3.34-.12,5.05,.33,1.26-.19,2.51-.37,3.75-.54,3.77-1.04,7.54-1.43,11.33-.52,5.1-.87,10.21-1.21,15.32-.48,7.17-.43,14.35-.44,21.52,0,3.24-.05,6.47,.03,9.71,.1,4.3,.2,8.6,.51,12.89,.26,3.69,.43,7.38,.7,11.07,.3,4.08,.76,8.14,1.15,12.21,.33,3.44,.61,6.88,1,10.31,.41,3.71,.91,7.4,1.38,11.1,.49,3.86,.95,7.72,1.5,11.57,.7,4.91,1.45,9.81,2.23,14.71,.74,4.66,1.53,9.32,2.32,13.97,.83,4.89,1.68,9.78,2.51,14.66,1.31,7.7,4.08,15.04,5.74,22.65,.58,2.67,.9,5.42,2,7.96,.16,.36,.35,.71,.52,1.06-3.24-.57-6.28-1.75-9.21-3.22-.48-.24-.88-.68-1.26-1.09-2.65-2.9-4.84-6.13-6.57-9.66-.51-1.04-1.06-1.74-2.33-1.46-.17,.04-.38-.09-.57-.13,1.34-.74,1.32-.73,.61-2.22-2.44-5.13-4.31-10.49-6.24-15.82-3.27-9.01-6.37-18.08-9.08-27.28-1.56-5.32-2.69-10.77-3.95-16.17-2.44-10.46-4.63-20.98-6.7-31.52-1.47-7.49-2.68-15.02-3.44-22.61-.78-7.84-.65-15.72-.47-23.57,.17-7.37,.6-14.75,1.63-22.07,.67-4.75,1.53-9.46,2.89-14.07,.12-.42,.23-.85,.57-1.17,.33-.23,.35-.62,.44-.95,.72-2.77,2.07-5.22,3.66-7.6,1.8-2.69,4.15-4.52,7.2-5.6,4.89-1.71,9.8-3.31,14.8-4.65Z" style="fill:#d96f15;"/><path d="M220.37,212.44c1.48-.19,2.27-1.25,2.9-2.42,1.68-3.14,2.77-6.52,4.09-9.82,1.28-3.19,3-6.16,4.71-9.12,.91-1.59,1.71-3.24,2.58-4.84,2.62-4.84,5.09-9.75,7.6-14.64,2.41-4.71,4.85-9.4,7.17-14.15,4.15-8.49,8.36-16.96,12.26-25.57,2.68-5.89,5.84-11.5,8.97-17.14,.68-1.22,1.25-2.5,1.9-3.74,4.4-8.29,8.32-16.79,11.69-25.55,2.43-6.32,4.93-12.62,6.5-19.23,.89-3.75,1.53-7.53,1.9-11.38,.44-4.53-.34-8.86-1.48-13.18,7.27,4.57,13.72,10.14,19.9,16.07,4.61,4.43,9.27,8.79,13.29,13.79,.15,.18,.27,.39,.4,.58-.37,.31-.27,.74-.25,1.12,.37,7.62-1.76,14.69-4.53,21.67-2.88,7.27-6.95,13.85-11.16,20.39-2.93,4.56-5.79,9.16-9.34,13.26-3.7,4.27-6.96,8.89-10.6,13.21-3.46,4.11-7.24,7.93-10.61,12.13-1.67,2.08-3.77,3.8-5.5,5.83-4.41,5.19-9.3,9.95-13.75,15.1-2.52,2.92-5.07,5.83-7.77,8.6-2.38,2.44-4.66,5-6.65,7.81-1.08,1.53-2.43,2.92-3.89,4.18-1.9,1.64-3.61,3.51-5.37,5.3-1.4,1.42-3.04,2.6-4.41,4.02-2.83,2.92-5.7,5.81-8.57,8.7-.25,.25-.29,.55-.3,.88-.57-.62-1.14-1.24-1.71-1.87Z" style="fill:#d96f15;"/><path d="M266.17,247.67c4.04,1.05,8.11,1.87,12.26,2.42,5.58,.74,11.18,1.05,16.8,.89,3.93-.11,7.85-.46,11.76-.87,7.57-.8,15-2.26,22.36-4.12,8.12-2.06,16.04-4.74,23.86-7.75,7.38-2.84,14.61-6,21.63-9.64,.49-.26,.96-.56,1.44-.84-1.37,5.67-3.78,10.83-7.46,15.36-.82,1.02-1.41,2.07-1.79,3.32-2.6,8.47-6.15,16.51-10.93,23.99-.79,1.24-1.34,2.64-2.52,3.6-1.29,1.32-2.44,2.77-3.9,3.91-2.64,2.33-5.7,3.96-8.9,5.34-5.87,2.53-12.08,3.24-18.39,3.19-5.08-.04-10.11-.66-15.11-1.56-9.4-1.69-18.46-4.48-27.39-7.83-4.42-1.66-8.8-3.39-13.15-5.21-.48-.2-1.01-.24-1.47-.5,2.18-5.43,3.99-10.98,5.76-16.55,.33-1.04,.23-1.71-.68-2.46-1.62-1.34-3.11-2.85-4.18-4.7Z" style="fill:#d96f15;"/><path d="M372.48,158.18c-.49-.23-.63,.2-.8,.47-2.95,4.5-6.74,8.24-10.66,11.88-4.68,4.34-9.62,8.34-14.67,12.22-5.85,4.48-11.83,8.76-17.89,12.95-6.4,4.42-12.88,8.7-19.45,12.85-8.55,5.41-17.13,10.78-25.92,15.8-6.33,3.62-12.67,7.22-19.02,10.81-.86,.48-1.79,.84-2.68,1.25-1.08-3.46-1.15-8.42-.07-9.74-1.76,.33-3.45,.7-5.16,.96-4.62,.69-9.21,.54-13.77-.48-.3-.07-.59-.22-.88-.33,1.11,.22,1.92-.3,2.81-.9,4.48-3.04,9.03-5.97,13.53-8.98,3.54-2.37,7-4.86,10.57-7.17,8.96-5.8,17.53-12.16,26.21-18.35,4.91-3.5,9.49-7.49,14.24-11.22,4.04-3.17,8.03-6.38,11.83-9.84,4.64-4.21,9.23-8.46,13.58-12.97,4.31-4.47,8.33-9.2,12.09-14.15,1.39-1.83,3.47-2.77,5.19-4.18,2.96-2.44,5.79-5,7.76-8.36,.24-.41,.44-.83,.66-1.25,1.1,4.5,1.78,9.06,1.91,13.69,.02,.62,.42,1.01,.79,1.42,3.61,4.06,6.83,8.4,9.59,13.09,.1,.17,.16,.36,.24,.54Z" style="fill:#d96f15;"/><path d="M26.61,106.4c.15,1.19,.85,2.15,1.38,3.16,3.54,6.74,7.25,13.38,11.21,19.88,5.26,8.65,10.8,17.1,16.66,25.35,4.61,6.48,9.36,12.87,14.37,19.05,3.73,4.6,7.5,9.17,11.33,13.69,2.29,2.7,4.75,5.26,7.12,7.89,5.4,5.99,11.1,11.69,16.88,17.31,3.97,3.86,8.13,7.52,12.2,11.27,.8,.73,1.77,.2,2.64,.39-3.68,.67-7.28,.26-10.82-.86-.98-.31-1.97-.66-2.9-1.1-.8-.39-.99-.12-1.15,.64-.71,3.38-2.02,6.52-3.95,9.39-.09,.13-.21,.23-.32,.34-2.73-1.51-5.29-3.31-7.66-5.32-4.58-3.86-9.15-7.74-13.3-12.06-3.27-3.4-6.78-6.54-10.16-9.81-3.76-3.64-7.54-7.25-11.33-10.86-5.11-4.88-10.13-9.86-15.25-14.74-3.99-3.81-7.92-7.67-11.76-11.63-4.89-5.04-9.82-10.05-14.35-15.43-2.58-3.06-5.1-6.14-7.13-9.6-.32-.55-.66-1.09-.86-1.71,.7-1.14,1.64-2.06,2.72-2.83,1.49-1.07,2.97-2.19,4.56-3.1,1.6-.92,2.61-2.59,4.4-3.24,.55-.2,.36-.83,.39-1.29,.27-4.7,.41-9.42,1.5-14.04,.88-3.69,1.86-7.35,3.6-10.76Z" style="fill:#d96f15;"/><path d="M9.46,141.67c.93,.75,1.26,1.89,1.87,2.85,2.11,3.34,4.63,6.36,7.22,9.32,3.51,4.02,7.25,7.84,10.92,11.71,4.14,4.38,8.4,8.64,12.74,12.83,2.93,2.83,5.75,5.76,8.72,8.54,4.19,3.93,8.32,7.91,12.42,11.93,3.19,3.13,6.39,6.24,9.72,9.2,1.76,1.56,3.36,3.28,5.15,4.81,1.59,1.37,2.84,3.14,4.41,4.54,5.36,4.74,10.41,9.85,16.44,13.8,.76,.5,1.67,.79,2.18,1.62-1.15,1.79-2.59,3.31-4.34,4.53-.62,.22-1.18-.11-1.75-.25-6.36-1.56-12.69-3.24-18.94-5.24-4.92-1.57-9.61-3.71-14.27-5.91-9.51-4.49-18.51-9.9-27.35-15.6-11.15-7.19-21.9-14.95-32.64-22.73-.29-.21-.59-.42-.74-.77-.05-.13-.08-.26-.1-.4-.18-4.16-.7-8.31-.19-12.48,.05-10.37,2.12-20.27,6.81-29.57,.48-.96,.95-1.94,1.7-2.73Z" style="fill:#ae4f05;"/><path d="M122.08,33.3c-.51,2.12-1.06,4.24-1.52,6.37-.81,3.76-1.45,7.55-1.87,11.39-.65,5.97-.98,11.96-1.23,17.96-.26,6.11-.27,12.22-.11,18.31,.14,5.19,.78,10.36,1.54,15.51,1.95,13.21,4.85,26.23,7.68,39.27,1.3,5.98,2.79,11.92,4.2,17.88,2.17,9.17,5.48,17.97,8.5,26.87,1.95,5.73,4.01,11.43,6.32,17.03,.67,1.62,1.4,3.22,2.21,4.77,.5,.96,.25,1.19-.71,1.09-.27-.03-.56,.03-.83,.05-1.11-.03-2.22-.06-3.34-.09-.41-.16-.6-.51-.79-.86-4.21-7.9-8.06-15.97-11.88-24.06-3.95-8.37-6.58-17.23-10.02-25.79-2.99-7.45-5.61-15.04-8.69-22.46-1.72-4.17-3.28-8.4-4.88-12.62-2.14-5.64-4.08-11.34-6.16-17-2.77-7.55-4.61-15.37-6.87-23.07-1.23-4.22-1.92-8.49-1.85-12.87,.06-3.5-.11-7.02,.49-10.49,.6-3.5,1.09-7.02,1.9-10.49,.1-.44,.29-.83,.52-1.2,.83-3.06,1.81-6.05,3.74-8.62,2.94-3.91,6.97-6,11.69-6.9,3.98-.76,7.97-.59,11.95,.03Z" style="fill:#ae4f05;"/><path d="M265.26,271.38c.37-.2,.71-.21,1.13-.03,6.36,2.86,12.92,5.21,19.47,7.57,7,2.52,14.19,4.35,21.51,5.67,4.26,.77,8.54,1.34,12.87,1.5,4.47,.16,8.95,.07,13.31-.86,5.93-1.26,11.4-3.69,16.12-7.6,.46-.21,.61-.02,.39,.38-.22,.4-.66,.65-.87,1.08-2.47,2.78-5.22,5.28-7.96,7.77-4.49,4.09-9.24,7.87-14.16,11.43-5.77,4.17-11.77,7.97-17.98,11.44-10,5.59-20.44,10.18-31.39,13.58-.23,.07-.47,.1-.7,.14-.69,.26-1.2,0-1.72-.47-5.53-4.92-10.12-10.6-13.94-16.94-2.61-4.33-4.69-8.89-6.4-13.63-.34-.93-.41-1.77,.2-2.59,2.79-4.11,5.29-8.4,7.55-12.82,.94-1.84,1.49-3.85,2.57-5.63Z" style="fill:#ae4f05;"/><path d="M94.7,48.8c-.5,2.81-.93,5.64-1.53,8.42-.64,2.93-.97,5.9-1,8.86-.03,3.32-.3,6.66,.16,9.99,.44,3.24,1.27,6.38,2.16,9.51,1.66,5.86,3.09,11.78,5.07,17.54,1.58,4.59,3.25,9.15,4.86,13.73,1.16,3.3,2.44,6.56,3.65,9.84,2.14,5.82,4.59,11.53,6.83,17.32,2.36,6.09,4.64,12.22,6.93,18.33,2.25,6.01,4.42,12.05,6.76,18.02,1.13,2.89,2.59,5.65,3.9,8.48,2.49,5.36,5.17,10.62,7.83,15.89,.84,1.67,1.74,3.32,2.61,4.98-1.05,.48-1.45,1.61-2.26,2.33-.38,.33-.7,.73-1.05,1.09-.31-1.45-1.5-2.31-2.35-3.37-3.32-4.16-6.75-8.23-9.7-12.7-3.83-5.8-7.18-11.86-10.6-17.89-3.96-6.97-7.71-14.06-11.38-21.19-3.74-7.27-7.25-14.66-10.61-22.11-2.93-6.5-5.67-13.08-8.23-19.74-3.23-8.41-6.06-16.95-8.14-25.72-1.08-4.56-1.91-9.16-2.39-13.84-.2-1.9-.33-3.84-.31-5.7,.02-3.88,.22-7.79,1.46-11.54,.14-.43,.64-.92,.07-1.41,1.78-1.04,3.52-2.16,5.35-3.11,3.95-2.05,7.95-4.02,11.92-6.02Z" style="fill:#d96f15;"/><path d="M1.45,186.99c2.38,1.38,4.46,3.18,6.72,4.74,4.52,3.11,8.95,6.34,13.43,9.51,6.86,4.85,13.86,9.49,21.05,13.83,7.53,4.55,15.25,8.75,23.29,12.39,7.48,3.38,15.27,5.71,23.15,7.8,2.61,.69,5.26,1.24,7.82,2.1-.74,.78-1.6,1.2-2.71,1.3-3.26,.3-6.51,.7-9.78,.67-.82,0-1,.25-.92,1.04,.38,4.09,.48,8.2,.39,12.31-.63-.2-.49-.75-.51-1.19-.04-1.08-.03-2.16-.01-3.24,.01-.7-.23-1.07-.99-.94-3.98,.68-8,1.04-12.03,1.26-4.82,.26-9.64,.64-14.48,.23-3.7-.31-7.41-.38-11.08-1.03-5.13-.92-10.18-2.1-14.9-4.4-5.67-2.76-10.53-6.48-13.96-11.87-.34-.69-.75-1.35-1.06-2.06-.71-1.95-1.04-3.99-1.57-5.98-.83-3.1-1.43-6.24-1.82-9.42-.03-.23-.05-.54-.2-.67-1.13-1.02-1.59-2.54-2.72-3.58-1.81-1.67-3.56-3.42-4.98-5.45-1.17-2.75-1.27-5.72-1.69-8.62-.38-2.59-.56-5.21-.64-7.83-.01-.32-.05-.64,.2-.9Z" style="fill:#d96f15;"/><path d="M16.07,231.11c2.02,3.21,4.59,5.88,7.63,8.13,5.69,4.2,12.14,6.47,19.05,7.76,4.28,.8,8.57,1.12,12.9,1.43,2.56,.19,5.11,.25,7.65,.14,4.36-.19,8.73-.35,13.08-.86,2.09-.25,4.19-.45,6.26-.81,1.02-.18,1.11,.2,1.07,1.02-.05,1.2-.02,2.4,0,3.6,0,.39-.12,.81,.18,1.15,.12,2.9-.23,5.78-.23,8.68-.14,1.3-1.02,2.13-1.92,2.91-5.29,4.55-11.42,7.64-17.78,10.36-4.05,1.73-8.22,3.01-12.54,3.86-.74,.15-1.48,.39-2.18-.13-3.37-3.18-6.43-6.66-9.51-10.11-4.18-4.67-8.22-9.47-11.95-14.51-2.9-3.91-5.68-7.92-8.24-12.05-1.62-2.6-2.35-5.66-3.23-8.6-.17-.4-.21-.86-.49-1.22h0c-.05-.28-.32-.65,.26-.73Z" style="fill:#ae4f05;"/><path d="M49.23,278.34c3.21-.16,6.25-1.06,9.28-2.02,3.46-1.09,6.81-2.48,10.05-4.1,4.27-2.14,8.49-4.38,12.15-7.51,1.16-.99,2.24-2,2.95-3.36,.02,3.23-.07,6.46,.07,9.68,.26,5.77,.26,11.54,.19,17.31-.03,3.14-.45,6.25-1.65,9.2-.55,1.35-1.31,2.57-2.53,3.42-1.61,1.12-3.35,1.1-5.14,.44-1.51-.56-2.9-1.39-4.12-2.4-7.62-6.34-14.56-13.37-21.26-20.66Z" style="fill:#d96f15;"/><path d="M255.15,289.83c-.55,1.13-.04,2.16,.33,3.19,2.81,7.87,6.91,15.04,12.14,21.53,2.47,3.06,5.16,5.96,8.18,8.52,.38,.33,.79,.32,1.22,.37-4.42,1.27-8.84,2.53-13.42,3.11-5.12,.68-10.25,.96-15.38,.15-2.81-.44-5.41-1.43-7.55-3.3-1.51-1.31-2.32-3.11-2.49-5.12-.23-2.79,.74-5.33,1.77-7.83,.49-1.17,1.06-2.32,1.79-3.37,3.24-4.32,6.93-8.29,10.1-12.67,.2-.35,.52-.61,.69-.98,.78-1.28,1.69-2.45,2.63-3.61Z" style="fill:#d96f15;"/><path d="M1.45,186.99c.24,2.75,.42,5.5,.74,8.24,.31,2.66,.66,5.32,1.27,7.93,.09,.39,.17,.77,.12,1.17-.95-.84-1.55-1.88-1.85-3.12-1.61-6.55-1.94-13.21-1.61-19.91,0-.11,.07-.23,.1-.34,.7,.95,.34,2.05,.36,3.08,.02,1.02,.15,1.95,.87,2.73,0,.08,0,.15,0,.23Z" style="fill:#da741e;"/><path d="M241.73,307.09c-.7,1.51-1.48,2.98-2.08,4.53-.6,1.55-1.14,3.15-1.23,4.83-.26,4.8,1.97,7.37,6.17,9.1,2.43,1,5,1.3,7.57,1.43,3.26,.17,6.53,.18,9.76-.4,.54-.1,1.11-.02,1.67-.02-2.65,.62-5.35,.82-8.05,.83-3.11,0-6.22-.11-9.26-.89-2.25-.57-4.34-1.55-5.99-3.11-1.95-1.84-2.7-4.31-2.33-7,.45-3.25,1.71-6.21,3.42-8.99,.08-.13,.24-.2,.36-.3Z" style="fill:#e49757;"/><path d="M1.44,186.76c-.91-.24-1.23-.85-1.21-1.77,.03-1.34,0-2.69-.02-4.03,0-2.35,.26-4.68,.73-6.99-.07,4.27,.5,8.52,.5,12.79Z" style="fill:#b35812;"/><path d="M349.2,279.08c-.03-.5,.39-.72,.65-1.04,.23-.27,.14-.39-.18-.42,1.38-1.1,2.44-2.55,3.89-3.58-1.32,1.8-2.71,3.53-4.37,5.03Z" style="fill:#c5691f;"/><path d="M16.07,231.11c-.29,.18-.2,.49-.26,.74-.47-.75-.85-1.53-.94-2.43,.4,.56,.8,1.12,1.2,1.68Z" style="fill:#be6520;"/><path d="M19.67,129.91c.27-.28,.56-.51,1.04-.4-.28,.38-.65,.41-1.03,.41h0Z" style="fill:#f5ddc8;"/><path d="M19.67,129.92c-.26,.28-.55,.51-1.02,.39,.27-.38,.63-.4,1.01-.4,0,0,0,0,0,0Z" style="fill:#f9eadd;"/><path d="M15.81,231.84c.44,.29,.55,.72,.49,1.22-.27-.36-.48-.75-.49-1.22Z" style="fill:#be6520;"/><path d="M252.52,293.44c.03,.51-.3,.77-.69,.98,.02-.48,.34-.74,.69-.98Z" style="fill:#ecb98e;"/></svg>