<?xml version="1.0" encoding="UTF-8"?><svg id="a" xmlns="http://www.w3.org/2000/svg" viewBox="0 0 388.99 87.75"><path d="M18.58,66c-.49-2.12-1.09-4.86-1.79-8.22-.68-3.25-1.24-5.82-1.68-7.72-1.58-6.81-3.45-14.12-5.62-21.94-.11,.13-.52,.71-1.23,1.74-1.15,1.9-1.48,3.94-.97,6.12,.21,.89,.89,2.58,2.04,5.07l-2.79,3.44c-2.94-.83-4.93-3.46-5.95-7.87-1.73-7.77,.33-13.75,6.15-17.96,2.91-2.1,6.44-3.46,10.57-4.07,7.35-1.08,14.38,.22,21.1,3.91,8.55,4.74,13.97,12.05,16.26,21.93,2.29,9.88,1.2,18.15-3.27,24.81-3.95,5.78-10.11,9.31-18.5,10.6-7.28,1.07-13.52,.23-18.71-2.53-3.87-2.03-6.21-4.77-7.01-8.23-.32-1.39-.03-3.57,.88-6.53,.09-.24,.15-.43,.2-.55h.54c2.64,3.6,5.9,6.27,9.78,8Zm10.69,1.63l1.47-.22c8.61-1.27,13.47-5.73,14.59-13.4,.45-3.07,.26-6.39-.57-9.96-2-8.65-6-15.13-11.99-19.44-4.15-2.91-8.29-4.09-12.43-3.54-1.33,.2-2.59,.55-3.77,1.07,1.66,1.54,3.3,4.42,4.93,8.62l7.62,35.24c-.03,.18,0,.46,.09,.85,0,.34,.03,.6,.07,.77Z" style="fill:#ffff;"/><path d="M56.89,11.96c1.93-.29,3.77,.86,5.51,3.46,1,1.46,1.6,2.88,1.81,4.25,.52,3.82-.03,5.88-1.65,6.18-1.24,.08-2.52-.5-3.85-1.76-.31-.68-.73-1.4-1.26-2.15-.67-.99-1.07-1.95-1.21-2.86-.03-.2,.09-.45,.35-.76,.08-.17,.14-.31,.17-.42-.04-.25-.15-.68-.35-1.27-.32-1.09-.52-1.9-.6-2.41-.1-1.34,.26-2.09,1.06-2.27Zm5.7,21.3c3.42-.41,5.4,1.01,5.94,4.25,.06,.41,.05,1.92-.02,4.53,.02,.1,.03,.18,.03,.23,.13,6.43,.32,10.46,.57,12.08l.16,1.07c1.21-1.64,2.61-4.45,4.19-8.43,.72-1.77,1.32-3.19,1.78-4.25l3.54,1.26c-.29,.82-1,3.38-2.13,7.65-.39,1.57-.83,2.99-1.31,4.25-1.26,3.36-2.32,5.52-3.16,6.48-.9,.97-1.88,1.53-2.94,1.69-4.18,.58-6.82-2.82-7.93-10.2-.7-4.68-1.02-8.53-.96-11.56-.27-2.46-.51-4.42-.73-5.9-.16-1.74,.83-2.8,2.95-3.17Z" style="fill:#ffff;"/><path d="M95.2,52.87c0-1.35-.02-4.48-.05-9.4-2.8,4.69-5.44,8.38-7.91,11.06-2.21,2.29-4.05,3.55-5.53,3.78-3.06,.37-5.25-1.02-6.57-4.18-.44-1.03-.72-2.11-.86-3.24-.46-3.83,.22-8,2.06-12.53,2.43-5.58,5.92-9.55,10.45-11.91,1.07-.54,2.33-.9,3.75-1.08,2.15-.21,4.14,.22,5.98,1.3,.13-.17,.28-.27,.43-.29,1.33-.16,2.94,.32,4.84,1.44,1.24,.83,1.94,1.66,2.09,2.47,.04,.36,0,1.63-.16,3.83-.03,1.92-.15,5.8-.38,11.62,1.48-1.47,2.86-3.79,4.13-6.95l3.51,1.36c-1.68,4.55-3.87,8.24-6.59,11.05-.37,.41-.83,.88-1.38,1.41-.51,8.66-1.1,14.27-1.77,16.84-1.84,6.23-4.15,11.07-6.95,14.52-1.86,2.19-3.73,3.43-5.61,3.71-3.99,.38-6.23-1.16-6.7-4.63-.54-4.49,1.57-11.04,6.33-19.65,2.17-3.89,4.46-7.4,6.88-10.55Zm-1.47-19.87c-1.93,.34-3.58,1.03-4.95,2.08-2.83,2.31-4.99,5.4-6.5,9.26-1.1,2.88-1.5,5.57-1.2,8.07,.17,1.02,.52,1.52,1.04,1.51,2.3-.28,5.85-6.43,10.66-18.46,.31-.87,.62-1.68,.95-2.45Zm-5.22,46.79c1.02-.54,1.56-.84,1.6-.89,3.03-4.92,4.7-11.03,5.01-18.32-3.34,5.33-5.46,10.76-6.34,16.31-.18,1.11-.27,2.08-.27,2.91Z" style="fill:#ffff;"/><path d="M105.89,5.83c1.95-.18,3.71,1.08,5.31,3.77,.92,1.52,1.44,2.97,1.56,4.35,.3,3.85-.36,5.87-2,6.07-1.24,.01-2.49-.65-3.75-1.98-.27-.7-.65-1.44-1.13-2.22-.61-1.03-.96-2-1.04-2.92-.02-.2,.11-.45,.4-.73,.09-.16,.15-.3,.19-.41-.02-.26-.12-.69-.27-1.29-.26-1.11-.41-1.92-.46-2.44-.02-1.34,.38-2.07,1.19-2.2Zm4.47,21.59c3.44-.21,5.34,1.32,5.69,4.59,.04,.41-.05,1.92-.28,4.52,0,.1,.02,.18,.02,.23-.23,6.43-.27,10.46-.12,12.1l.1,1.08c1.3-1.57,2.86-4.29,4.67-8.18,.82-1.73,1.49-3.11,2.02-4.14l3.47,1.46c-.34,.81-1.19,3.31-2.56,7.52-.48,1.54-1,2.93-1.55,4.17-1.45,3.28-2.63,5.38-3.53,6.29-.95,.91-1.96,1.42-3.03,1.52-4.2,.34-6.65-3.21-7.33-10.63-.44-4.71-.53-8.57-.3-11.59-.12-2.47-.25-4.44-.39-5.93-.06-1.75,.99-2.75,3.13-3Z" style="fill:#ffff;"/><path d="M147.4,37.64c-.85,1.76-3.26,7.86-7.21,18.3-.18,.37-.31,.69-.4,.96-.17,.48-.41,1.14-.71,1.98-.65,1.8-1.31,2.93-2,3.39-.94,.58-2.46,.95-4.56,1.1-4,.28-6.72-3.47-8.14-11.26-.15-.71-.29-1.53-.4-2.45-.66-4.18-1.16-8.78-1.52-13.81-.22-3.08-.36-5.39-.41-6.93-1.39-.62-2.14-1.45-2.26-2.47l2.18-1.93c-.07-3.19-.06-6.29,.04-9.28-.01-.15-.02-.57-.01-1.24,.03-4.69,.29-7.16,.79-7.4,.85-.32,1.85-.52,2.97-.6,.2-.02,.56-.04,1.08-.08,.51-.09,.87-.14,1.07-.15,1.65-.01,2.54,.52,2.66,1.59,.14,2.05,.04,4.59-.31,7.6,0,.83,.02,2.04,.02,3.63-.02,1.91-.02,3.35,0,4.33,1.39-.77,3.06-2.28,5.02-4.53,.19-.17,.5-.27,.91-.3,.1,0,.23-.02,.38-.03,.21,.04,.34,.05,.39,.05,.46-.03,1.06-.33,1.79-.9,.15-.11,.27-.2,.37-.26,1.78,.39,2.87,.85,3.27,1.39,.29,.39,.44,.82,.48,1.28,.1,1.38-.35,2.78-1.33,4.19-2.48,3.53-6.18,5.54-11.1,6.04,.05,1.44,.17,3.52,.36,6.24l.1,1.46c.54,7.59,1.36,13.1,2.48,16.53,2.54-3.48,5.17-7.82,7.9-13.01,1.05-1.98,1.93-3.64,2.66-4.98l3.43,1.54Z" style="fill:#ffff;"/><path d="M166.93,21.62c1.34-.05,2.9,.56,4.7,1.82,1.17,.93,1.8,1.81,1.88,2.63,.01,.36-.14,1.63-.47,3.8-.11,1.19-.32,2.95-.64,5.27-.46,3.98-.73,7-.81,9.06,.53-.95,1.3-2.39,2.3-4.34,1.09-2.25,1.98-3.94,2.66-5.04l3.38,1.64c-2.48,5.14-4.08,8.96-4.8,11.46-.45,1.56-1.38,2.83-2.79,3.81-.7,.44-1.39,.67-2.06,.7-4.11,.11-6.29-3-6.54-9.32-.06-1.44-.04-3.03,.04-4.79-3.32,4.66-6.27,8.17-8.85,10.53-2.39,2.1-4.33,3.21-5.81,3.31-3.08,.12-5.15-1.45-6.2-4.7-.35-1.07-.55-2.17-.59-3.3-.15-3.85,.87-7.96,3.07-12.32,2.88-5.36,6.67-9.03,11.38-11.02,1.11-.45,2.39-.71,3.83-.77,2.16-.03,4.11,.56,5.86,1.78,.15-.16,.3-.24,.45-.25Zm-3.77,6.32c-1.95,.18-3.65,.73-5.11,1.67-3.01,2.07-5.42,4.97-7.23,8.7-1.33,2.78-1.95,5.43-1.85,7.95,.09,1.03,.4,1.55,.91,1.59,2.31-.09,6.36-5.93,12.13-17.53,.38-.84,.76-1.62,1.14-2.36Z" style="fill:#ffff;"/><path d="M200.97,36.6c-1.01,1.96-3.53,6.25-7.54,12.86-1.78,2.94-3.28,5.63-4.49,8.06-.91,1.86-2.32,2.97-4.22,3.35-.87,.16-2.08,.25-3.62,.26-3.81-.07-5.75-5.13-5.82-15.15-.05-7.15,1.3-15.67,4.05-25.56,.5-1.65,.9-2.89,1.21-3.71,2.53-5.98,5.37-10.53,8.54-13.64C191.21,1.08,193.18,.07,194.98,0c1.64-.01,3.01,.72,4.1,2.21,.57,.87,.86,1.74,.87,2.62,0,.67-.02,1.18-.07,1.54-2.28,12.05-6.89,21.19-13.83,27.41-.66,.57-1.33,1.12-1.99,1.64-.24,2.78-.35,5.3-.33,7.56,.01,2.11,.14,5.14,.38,9.1,4.18-4.15,8.69-9.89,13.52-17.23l3.33,1.75Zm-6.46-28.34l-.31,.31c-4.69,5.95-7.84,13.35-9.48,22.21,6.59-6.32,9.87-13.65,9.86-21.98,0-.26-.03-.44-.08-.54Z" style="fill:#ffff;"/><path d="M225.15,12.24c-2.23,1.67-3.44,3.94-3.63,6.79-.04,.88,.12,2.59,.48,5.14l-3.09,2.77c-2.21-1.3-3.21-4.12-3.01-8.46,.32-5.6,3.32-10.21,8.99-13.84C230,1.32,235.63-.22,241.78,.03c5.91,.23,9.99,2.38,12.25,6.43,1.05,1.91,1.51,4.08,1.4,6.49-.15,3.24-1.48,6.77-3.99,10.57-1.16,1.83-3.12,4-5.87,6.54,6.03,1.4,9.94,4.16,11.72,8.31,.64,1.57,.93,3.23,.84,4.99-.27,5.77-3.3,10.38-9.08,13.84-4.79,2.84-10.12,4.14-15.96,3.91-6.21-.25-11.11-2.12-14.71-5.62-2.69-2.58-3.95-5.58-3.8-8.98,.07-1.37,.82-3.38,2.25-6.02,.13-.21,.23-.38,.29-.48l.45,.1c1.31,3.85,3.35,6.93,6.11,9.24,.1-2.09,.25-4.78,.47-8.07,.21-3.18,.36-5.71,.44-7.58,.31-6.65,.49-13.79,.55-21.44Zm11.06,24.29c-1.4,.6-2.23,.93-2.47,.98-.24,3.79-.8,8.86-1.7,15.2l1.25,.05c6.45,.2,11.45-1.91,15-6.34,1.02-1.39,1.56-2.69,1.62-3.9,.13-2.8-1.81-4.69-5.83-5.68-1.24-.32-2.52-.51-3.83-.56-1.31-.05-2.66,.03-4.05,.25Zm9.67-24.63c.1-2.2-1.51-3.58-4.83-4.15-.59-.13-1.19-.21-1.78-.24-1.73-.07-3.84,.23-6.32,.91,.7,1.73,1.17,4.45,1.41,8.15,.01,4.84,0,8.47-.06,10.89,4.45-3.13,7.78-6.63,10-10.5,1.01-2.44,1.54-4.12,1.58-5.05Z" style="fill:#ffff;"/><path d="M282.38,28.99c1.33,.11,2.81,.91,4.44,2.39,1.04,1.07,1.56,2.02,1.54,2.84-.03,.36-.34,1.6-.93,3.71-.25,1.17-.68,2.88-1.29,5.16-.95,3.89-1.58,6.86-1.91,8.9,.64-.88,1.58-2.22,2.82-4.02,1.36-2.1,2.45-3.66,3.26-4.68l3.16,2.05c-3.09,4.8-5.14,8.39-6.17,10.78-.64,1.49-1.72,2.64-3.23,3.44-.75,.35-1.46,.5-2.13,.44-4.1-.4-5.88-3.75-5.35-10.05,.12-1.43,.33-3.02,.63-4.75-3.87,4.22-7.22,7.34-10.08,9.37-2.63,1.79-4.69,2.65-6.18,2.58-3.07-.26-4.93-2.07-5.58-5.42-.22-1.1-.28-2.22-.18-3.34,.32-3.84,1.84-7.79,4.56-11.85,3.51-4.97,7.73-8.15,12.65-9.54,1.16-.31,2.46-.41,3.9-.29,2.15,.23,4.01,1.06,5.6,2.48,.17-.14,.33-.2,.48-.19Zm-4.51,5.81c-1.96-.06-3.72,.28-5.27,1.03-3.24,1.69-5.98,4.27-8.24,7.75-1.66,2.6-2.6,5.15-2.81,7.66-.04,1.03,.2,1.59,.71,1.69,2.3,.19,7.03-5.11,14.19-15.92,.48-.78,.95-1.52,1.42-2.2Z" style="fill:#ffff;"/><path d="M296.35,52.68c2.05-3.28,3.8-6.02,5.26-8.23,2.14-3.16,4.1-4.82,5.88-4.97,.31-.01,.57,0,.77,.02,3.57,.48,5.27,1.59,5.12,3.33-.23,1.89-1.69,4.15-4.39,6.78-2.2,2.33-3.4,3.92-3.6,4.77-.21,1.74,1.59,3.35,5.4,4.84,.04,.06,.09,.09,.14,.09,.32-.48,1.78-2.95,4.38-7.4,1.12-1.99,2.23-3.7,3.33-5.12l3.08,2.16c-1.57,2.3-3.28,5.28-5.11,8.94-.6,1.12-1.25,2.18-1.93,3.19-1.51,2.2-2.72,3.43-3.63,3.68-.27,.12-.56,.17-.87,.13-2.5-.3-4.9-1.73-7.18-4.28-1.63-1.96-2.56-3.91-2.79-5.85-.8,1.51-2.11,4.2-3.92,8.08-1.09,2.2-2.54,3.22-4.33,3.06-3.77-.56-5.21-4.48-4.34-11.78,.85-7.1,3.27-15.38,7.25-24.85,.71-1.57,1.26-2.75,1.67-3.53,3.26-5.62,6.66-9.77,10.19-12.45,2.38-1.68,4.46-2.44,6.25-2.28,1.74,.21,3.02,1.19,3.84,2.95,.4,.93,.55,1.88,.44,2.85-.06,.51-.13,.89-.21,1.14-3.78,11.67-9.51,20.15-17.19,25.44-.73,.48-1.46,.94-2.18,1.37-.59,2.73-1.01,5.21-1.28,7.46l-.05,.46Zm15.13-33.54l-.34,.27c-5.4,5.31-9.47,12.25-12.21,20.84,7.33-5.44,11.52-12.29,12.56-20.56,.03-.25,.03-.44-.01-.55Z" style="fill:#ffff;"/><path d="M334.71,36.15c2.54,.38,3.95,1.74,4.23,4.07,.07,.58,.06,1.15-.02,1.71-.31,2.09-1.81,4.8-4.5,8.14-.07,.09-.13,.16-.19,.21-2.47,2.91-5.28,5.71-8.44,8.41,.76,1.21,1.89,1.95,3.41,2.23,2.09,.31,5.06-1.84,8.93-6.46,.07-.15,1.16-1.51,3.27-4.11l3.02,2.25c-4.23,6.02-7.54,10.05-9.93,12.08-2.9,2.32-5.59,3.32-8.09,3-4.22-.63-7.13-3.07-8.73-7.32-.97-2.54-1.24-5.23-.81-8.08,.92-5.79,3.92-10.36,9-13.7,3.3-1.9,6.25-2.7,8.86-2.41Zm-9.68,17.74c3.39-3.18,5.25-5.89,5.59-8.13,.11-1.08-.11-1.68-.66-1.82-.86-.13-1.81,.77-2.82,2.7-.95,1.83-1.65,4.2-2.08,7.1l-.02,.15Z" style="fill:#ffff;"/><path d="M344.33,44.67c-2.97-2.98-4.17-6.25-3.59-9.8,.57-3.19,2.66-4.86,6.29-5,.84,0,1.68,.06,2.55,.22,2.13,.38,3.31,1.53,3.54,3.45,.02,.47,0,.94-.09,1.39-.23,1.32-.81,3.12-1.74,5.41,2.97,1.21,4.48,1.84,4.52,1.9,3.28,2.1,4.47,5.73,3.55,10.89-.11,.61-.89,3.55-2.35,8.83-.09,.51-.19,.93-.31,1.28,2.97-4.38,5.19-7.36,6.67-8.92l2.96,2.33c-1.22,1.61-2.98,4.43-5.26,8.47-1.21,2.14-2.49,3.61-3.84,4.41-1.51,.88-2.78,1.23-3.79,1.05-2.23-.4-3.29-2.07-3.18-5.03,.01-.36,.35-2.84,1-7.42,.51-3.77,.43-6.69-.26-8.74-.44-1.07-1.35-1.94-2.75-2.6-1.49,2.82-3.09,5.2-4.79,7.14l-1.36,.15-1.48-2.69c1.05-1.49,2.28-3.72,3.69-6.71Zm3.55-10.73c-.36-.06-.78,.41-1.27,1.42-.09,.24-.16,.47-.2,.67-.09,.82,.2,1.52,.88,2.11,.48-1.22,.77-2.16,.89-2.82,.09-.82,0-1.28-.3-1.39Z" style="fill:#ffff;"/><path d="M371.68,83.31c-3.12-.64-4.84-2.54-5.14-5.69-.09-.86-.04-1.74,.15-2.65,.46-2,1.3-3.7,2.53-5.07-2.51-3.66-4.09-6.29-4.76-7.9-.69-1.77-1.17-3.55-1.43-5.33,.03-.41,.11-.92,.23-1.53,1.02-4.99,3.96-8.48,8.83-10.48,1.2-.49,2.43-.84,3.68-1.06,1.25-.22,2.41-.22,3.46,0,2.72,.56,4.44,1.77,5.16,3.65,.22,.73,.25,1.44,.11,2.15-.29,1.41-.95,2.09-1.99,2.03-.36-.02-.75-.07-1.15-.16-2.97-.61-5.54-.13-7.69,1.42-1.25,.95-2.01,2.14-2.3,3.55-.35,1.71,.56,4.08,2.72,7.09,.98,1.36,1.55,2.16,1.71,2.4,4.05-1.85,7.21-3.8,9.47-5.86,.32-.3,.62-.58,.88-.84l2.82,2.39c-2.22,2.91-5.64,5.51-10.26,7.82-.23,.11-.5,.24-.79,.39,1.45,2.92,1.92,5.64,1.4,8.16l-.03,.15c-.57,2.77-2.08,4.51-4.53,5.22-1.06,.31-2.09,.36-3.1,.15Zm-.26-9.5c-.52,.73-.84,1.43-.98,2.08-.16,.81,.12,1.49,.84,2.06,.18,.14,.35,.23,.5,.26,.37-.03,.63-.24,.76-.63,.09-.72-.28-1.97-1.12-3.77Z" style="fill:#ffff;"/></svg>