<?xml version="1.0" encoding="UTF-8"?><svg id="a" xmlns="http://www.w3.org/2000/svg" viewBox="0 0 306.24 642.96"><path d="M303.59,322.78c0,96.56,.01,193.11-.02,289.67,0,6.99-2.24,13.29-6.67,18.76-4.44,5.47-10.11,9.04-16.95,10.66-2.18,.51-4.46,.81-6.69,.81-80.52,.04-161.03,.05-241.55,0-5.47,0-10.62-1.61-15.34-4.53-3.7-2.29-6.82-5.16-9.3-8.71-2.79-4-4.4-8.48-5.11-13.28-.2-1.33-.25-2.69-.25-4.03-.01-192.83-.01-385.66,0-578.49,0-6.61,2.01-12.66,5.94-17.95,4.36-5.88,10.24-9.69,17.32-11.51,2.01-.52,4.14-.73,6.22-.76,10.55-.15,21.09-.23,31.64-.25,2.65,0,5.01,.74,6,3.67,.48,1.42,1.17,2.76,1.72,4.15,2.1,5.36,6.12,8.52,11.59,9.84,2.06,.5,4.23,.75,6.34,.76,42.96,.04,85.92,.06,128.87,0,4.93,0,9.6-1.23,13.43-4.69,2.05-1.85,3.34-4.14,4.28-6.68,.48-1.29,.99-2.58,1.53-3.84,1.02-2.35,3.06-3.19,5.39-3.21,10.36-.06,20.72-.17,31.08,.02,7.25,.14,13.82,2.47,19.51,7.15,5.63,4.63,9.04,10.54,10.5,17.6,.41,2,.51,4.09,.51,6.14,.02,96.24,.02,192.47,.02,288.71Z"/></svg>