<?xml version="1.0" encoding="UTF-8"?><svg id="a" xmlns="http://www.w3.org/2000/svg" viewBox="0 0 691.2 129.12"><path d="M456.42,54.5c.5-.18,.83-.3,1.16-.43,2.79-1.11,2.73-1.22,2.73-4.2,0-3.18,.13-6.4,1.41-9.39,1.43-3.34,3.68-3.35,6.46-2.09,2.76,1.26,3.61,3.88,4.09,6.64,.48,2.73-.57,5.18-1.38,7.68-.1,.29-.18,.59-.08,.99,.58-.86,1.13-1.74,1.75-2.58,2.12-2.89,4.15-5.86,6.42-8.62,1.27-1.54,3.02-2.74,5.19-2.5,2.9,.32,4.53,2.05,5.17,4.95,.98,4.48,.57,8.95,0,13.43-.31,2.5-.67,4.99-.79,7.6,.75-1.08,1.5-2.17,2.26-3.25,1.52-2.19,3.07-4.37,4.56-6.58,.34-.51,.61-1.14,.68-1.75,.49-3.87,.94-7.75,1.35-11.63,.32-3.01,.42-6.06,.93-9.04,.47-2.77,1.07-5.58,2.1-8.17,1.06-2.65,3.26-4.35,6.3-4.43,2.34-.06,4.33,1.58,5.21,4.06,1.22,3.46,.92,6.96-.06,10.37-1.08,3.74-2.62,7.36-3.64,11.12-.84,3.1-1.22,6.33-1.78,9.51-.04,.22,.07,.61,.24,.7,2.41,1.33,3.81,3.44,4.7,6.11,2.17-1.23,4.21-2.62,5.33-4.61,1-1.77,1.15-4.03,1.62-6.08,.28-1.2,.47-2.42,.68-3.64,.23-1.28,1.03-2.04,2.22-2.42,2.2-.7,5.92,.47,7.29,2.32,1.49,2.03,1.15,4.17,.44,6.38-1.66,5.19-3.24,10.41-4.84,15.62-.15,.49-.18,1.01-.01,1.72,1.61-1.56,3.2-3.15,4.85-4.67,2.94-2.7,4.85-6.21,7.31-9.28,4.71-5.89,10.68-9.81,18.3-10.71,3.43-.4,6.66,.49,9.46,2.6,.87,.65,1.66,1.23,2.81,1.52,2.1,.52,3.63,2.08,5,3.73,1.3,1.57,1.25,3.15,.48,5-2.07,4.92-3.99,9.91-5.96,14.87-.19,.47-.28,.98-.23,1.58,1.82-1.95,3.73-3.82,5.4-5.88,.5-.61,.37-1.75,.47-2.66,.34-3.07,.81-6.11,2.18-8.91,1.77-3.6,3.97-3.9,7.18-1.8,2.42,1.58,2.99,4.19,3.1,6.92,.11,2.66-1.08,4.93-2.11,7.26-.17,.38-.32,.77-.32,1.23,2.21-2.55,4.4-5.13,6.64-7.65,1.49-1.68,3.13-3.18,5.24-4.1,2.96-1.29,5.98-.04,7.07,3,1.07,2.96,.89,6.01,.32,8.99-.82,4.3-1.9,8.55-2.88,12.83-.08,.34-.15,.68,0,1.15,1.32-1.52,2.65-3.02,3.95-4.56,2.54-3.01,4.91-6.18,7.63-9.02,4.31-4.52,9.72-6.74,15.99-6.68,1.25,.01,2.55,.3,3.72,.76,2.79,1.08,4.11,3.38,3.53,6.3-.53,2.67-1.53,5.21-3.41,7.26-.66,.72-1.49,1.32-2.34,1.83-1.46,.88-2.97,.88-4.36-.21-1.37-1.07-1.84-2.8-1.38-4.52,.23-.84,.94-1.98-.21-2.41-.57-.21-1.71,.46-2.3,1.03-2.01,1.97-3.12,4.51-3.9,7.17-.44,1.52-.9,3.09-.95,4.65-.14,4.46,4.14,7.26,8.06,5.15,2.61-1.4,4.99-3.26,7.36-5.07,1.83-1.4,3.21-3.24,4.62-5.1,4.63-6.12,10.87-9.2,18.61-9,1.74,.04,3.41,.51,4.85,1.52,2.48,1.72,3.06,5.22,1.4,8.04-1.89,3.23-4.56,5.75-7.51,7.95-3.07,2.29-6.29,4.37-9.45,6.54-.26,.18-.51,.37-.75,.54,1.05,2.54,4.09,3.66,6.88,2.54,3.19-1.29,5.87-3.36,8.45-5.58,1.42-1.22,2.84-2.43,4.44-3.79,1.04,1.25,2.03,2.44,3.02,3.63,.09-.08,.18-.16,.28-.24-.03,.11-.04,.25-.11,.32-4.48,4.39-8.92,8.86-14.43,11.95-4.89,2.74-9.85,2.77-14.46-.83-3.05-2.38-4.42-5.68-5.03-9.38-.12-.73-.18-1.47-.27-2.27-1.82,1.38-3.48,2.81-5.3,4-2.6,1.71-5.44,2.98-8.63,2.79-4.92-.29-8.53-2.78-10.63-7.2-.9-1.88-1.34-3.98-1.89-5.68-.96,.86-2.13,1.9-3.3,2.96-.8,.72-1.56,1.5-2.4,2.16-2.2,1.73-4.13,1.53-6.17-.78-1.76-1.99-2.06-4.54-2.15-7.08-.18-5.27,.81-10.4,2.03-15.5,.03-.11,.02-.23,.05-.66-.68,.61-1.2,1.04-1.68,1.51-3.97,3.94-6.87,8.66-9.82,13.35-.34,.54-.72,1.05-1.13,1.55-2.92,3.55-7.42,2.06-8.91-1.47-.49-1.15-.67-2.44-1.02-3.8-.33,.5-.66,.99-.98,1.49-2.43,3.82-7.11,4.81-10.31,2.11-2.23-1.88-2.73-4.49-2.46-7.18,.27-2.76,.87-5.48,1.3-8.1-2.26,1.65-4.63,3.48-7.11,5.16-3.21,2.18-6.46,4.3-10.32,5.2-3.89,.9-7.15-.85-8.56-4.61-.06-.15-.12-.29-.24-.58-.93,1.02-1.77,2.01-2.67,2.94-1.45,1.48-2.81,3.07-4.86,3.79-3.39,1.19-7.14-.68-8.27-4.12-1.03-3.13-.74-6.3-.37-9.48,.08-.66,.2-1.32,.32-2.08-.79,.35-1.49,.57-2.07,.96-.28,.19-.46,.7-.49,1.08-.31,3.41-.36,6.86-.9,10.23-.99,6.17-2.92,12.07-6.17,17.45-1.01,1.67-2.24,3.16-4.08,4.11-3,1.54-6.04,.2-7.16-2.55-.89-2.18-1.51-4.56-1.71-6.9-.52-5.87,.1-11.71,1.07-17.51,.31-1.84,.49-3.69,.77-5.83-.97,1.24-1.77,2.29-2.61,3.31-.76,.92-1.55,1.83-2.37,2.69-2.19,2.3-4.62,1.63-6.55-.42-1.75-1.87-2.3-4.27-2.61-6.7-.63-4.86-.41-9.72,.21-14.57,.04-.31,.03-.63-.16-1.09-.64,.76-1.33,1.48-1.92,2.27-3.07,4.16-5.26,8.82-7.51,13.44-.33,.68-.67,1.37-1.13,1.97-2.32,3.06-6.58,2.81-8.66-.45-1.32-2.08-1.5-4.41-1.67-6.76-.03-.35,0-.71,0-.93-1.66,.24-3.29,.43-4.89,.76-.35,.07-.6,.66-.87,1.03-1.44,1.99-2.7,4.15-4.34,5.95-2.14,2.34-4.92,3.55-8.18,3.64-3.79,.11-6.35-2.85-7.07-5.85-.35-1.45-.56-2.94-.83-4.45-.7,.84-1.41,1.73-2.17,2.57-2.39,2.66-5.11,4.94-8.73,5.55-4.67,.78-8.63-.87-11.59-4.5-4.28-5.23-4.98-11.21-2.94-17.51,2.24-6.96,6.97-11.61,13.8-14.1,2.17-.79,4.44-1.29,6.8-.71,2.69,.66,4.25,2.2,4.46,4.95,.27,3.52-.48,6.87-2.76,9.65-1.04,1.27-2.28,2.51-4.29,1.98-2.18-.57-3.57-2.44-3.32-4.7,.09-.83,.45-1.93-.61-2.12-.55-.1-1.47,.7-1.89,1.32-1.47,2.15-2.14,4.62-2.36,7.18-.16,1.85-.38,3.78-.03,5.57,.88,4.56,5.47,6.07,9.07,3.17,3.31-2.67,5.83-6.01,8.07-9.55,.72-1.14,1.13-2.71,1.09-4.06-.16-5.71,3.53-8.87,7.89-10.26,3-.96,6.04-.96,8.95,.55,2.99,1.56,4.14,4.32,4.75,7.37,.64,3.19,.15,6.34-.57,9.47-.09,.37-.1,.76-.17,1.28Zm102.98,3.35c-1.92-.43-3.62-.38-5.28,.12-6.02,1.82-10.48,5.66-13.71,10.95-.92,1.51-1.52,3.26-1.99,4.97-.47,1.7,.34,2.39,1.91,1.71,1.23-.54,2.43-1.24,3.48-2.08,5.73-4.57,10.53-10.08,15.59-15.67Zm-58.22,32.31c.2,.05,.39,.11,.59,.16,.99-2.88,2.25-5.69,2.89-8.64,.79-3.65,1.09-7.4,1.55-11.12,.22-1.78,.06-1.92-1.73-1.93-1.1,7.17-2.88,14.25-3.31,21.53Zm-51.66-36.04c.87-2.54,1.31-4.98,.93-7.49-.18-1.17-.64-2.29-1.9-2.75-.94,1.49-1.81,2.89-2.71,4.29-.5,.77-.54,1.48-.09,2.33,.83,1.59,2.09,2.65,3.76,3.62Zm191.99,39.13c2.63-1.81,4.94-3.58,6.55-6.06,.44-.68,.72-1.52,.88-2.32,.21-1.11-.51-1.64-1.49-1.09-.75,.42-1.47,.97-2.03,1.61-1.91,2.2-3,4.82-3.92,7.86Zm-198.88-36.12c-.51,2.26-1.04,4.34-.62,6.5,.21,1.08,1.1,1.31,2.08,.52,1.48-1.2,2.44-2.77,3.18-4.49-1.53-.83-2.98-1.62-4.63-2.53Zm63.7-30.12c-.37,.6-.8,1.02-.9,1.51-.66,3.3-1.26,6.61-1.83,9.93-.05,.28,.25,.61,.39,.92,.26-.23,.68-.42,.77-.71,.66-2.16,1.37-4.32,1.84-6.53,.34-1.6,.52-3.29-.27-5.12Z" style="fill:#ffff;"/><path d="M364.47,56.69c-1.22,2.1-2.33,4.03-3.47,5.94-.45,.75-.94,1.49-1.51,2.16-1.81,2.15-4.18,1.85-6.45-.04-1.93-1.61-2.65-3.94-3.33-6.24-1.26-4.29-1.58-8.71-1.7-13.15-.02-.78,0-1.56,0-2.34-.12-.04-.25-.08-.37-.13-.93,1.73-2.02,3.4-2.75,5.21-1.63,4.07-3.11,8.19-4.59,12.32-1.17,3.25-3.47,4.82-6.46,4.08-2.11-.53-3.53-2.04-4.25-4.05-.63-1.75-1.02-3.57-1.48-5.23-1.58,.46-3.29,.94-4.97,1.48-.2,.07-.31,.48-.43,.76-1.2,2.92-2.45,5.82-4.79,8.07-2.43,2.33-5.23,3.89-8.7,3.33-1.26-.21-2.6-.88-3.56-1.72-1.99-1.75-2.81-4.21-3.25-6.78-.24-1.4-.45-2.81-.67-4.26-.89,.2-1.23,.68-.99,1.55,1.42,5.14,1.62,10.4,1.32,15.66-.27,4.81-.9,9.61-2.91,14.06-.61,1.36-1.73,2.53-2.75,3.66-1.73,1.93-5.31,1.32-6.97-.49-2.33-2.55-3.34-5.67-4.09-8.9-.61-2.63-1.12-5.3-1.5-7.98-.34-2.36-.46-4.76-.65-7.14-.33-4.21-.65-8.41-.94-12.62-.2-2.78-.3-5.57-.53-8.35-.19-2.42-.55-4.83-.73-7.25-.15-1.98-.13-3.97-.24-5.95-.05-.87-.24-1.73-.36-2.6-.55-3.96-.56-7.9,.68-11.73,.81-2.52,2.2-4.63,4.99-5.36,2.42-.64,5.01,.28,6.14,2.53,.82,1.65,1.5,3.48,1.7,5.29,.43,3.9,0,7.81-.74,11.67-.72,3.76-1.37,7.51-.85,11.37,.13,.94,0,1.92,.07,2.87,.03,.33,.26,.79,.54,.95q3.72,2.1,5.8,5c1.72-1.95,3.66-3.73,4.01-6.5,.07-.55,.19-1.14,.07-1.65-.98-4.12,.75-7.21,3.83-9.61,3.02-2.35,6.51-3.44,10.34-2.53,3.3,.78,5.29,3.11,6.49,6.17,1.29,3.27,1.46,6.67,1.04,10.13-.05,.42,0,.84,0,1.67,1.29-.93,2.36-1.65,3.35-2.48,.25-.21,.29-.78,.28-1.18-.07-3.34-.34-6.69-.22-10.03,.1-2.75,1.99-4.52,4.09-4.48,3.29,.07,5.29,1.88,6.59,4.7,1.23,2.66,1.22,5.4,.57,8.19-.17,.73-.27,1.47-.17,2.29,.87-1.79,1.69-3.61,2.63-5.35,1.21-2.24,2.43-4.5,3.83-6.63,1.09-1.66,2.59-3,4.67-3.29,2.54-.35,4.66,.84,5.68,3.6,.85,2.29,1.51,4.74,1.7,7.17,.37,4.73,.36,9.49,.51,14.52,.87-1.64,1.67-3.12,2.44-4.6,1.12-2.16,2.23-4.33,3.32-6.51,.21-.41,.38-.89,.4-1.34,.08-2.72,.1-5.43,.17-8.15,.02-.69-.08-1.2-.77-1.56-.44-.23-.8-.66-1.13-1.05-.84-.99-.75-1.58,.3-2.37,.35-.26,.7-.54,1.09-.75,.66-.37,.87-.9,.94-1.65,.46-5.17,.98-10.33,1.5-15.49,.07-.71,.34-1.4,.44-2.11,.2-1.41,1.08-2.06,2.41-2.11,1.99-.07,4-.21,5.98-.06,2.11,.16,2.81,1.36,2.52,3.49-.72,5.24-1.39,10.49-2.08,15.74,.13,.09,.26,.18,.38,.27,1.61-1.13,3.3-2.17,4.81-3.42,1.02-.84,1.99-1.33,3.35-1.16,.57,.07,1.25-.24,1.79-.54,1.94-1.07,3.29,.36,4.66,1.19,1.22,.75,1.14,2.15,.72,3.37-1.17,3.4-3.79,5.48-6.85,7.02-2.88,1.44-5.99,2.13-9.22,2.12-.52,4.56-.88,21.7,.75,26.99,5.52-5.77,9.72-12.48,14.47-18.86,1.28,.7,2.5,1.3,3.63,2.02,.22,.14,.33,.84,.18,1.11-2.58,4.78-5.22,9.52-7.8,14.29-1.5,2.77-3.05,5.53-4.31,8.41-1.45,3.34-3.97,4.54-7.4,4.5-4.14-.05-6.72-2.08-8.22-6.37-1.34-3.86-1.6-7.88-1.95-11.89-.02-.24-.04-.47-.08-.88Zm-70.26,24.37c.18,0,.36-.01,.54-.02,.84-3.31,1.45-6.68,1.32-10.11-.13-3.38-.57-6.75-.85-10.13-.14-1.63-.36-1.82-2.13-1.43,.37,7.21,.75,14.45,1.13,21.68Zm21.12-40.76c-.78,1.67-1.53,3.24-2.24,4.83-.17,.38-.38,.93-.23,1.22,1.01,1.89,2.52,3.22,4.93,3.93,.06-2.14,.35-4.15,.08-6.07-.21-1.53-.66-3.27-2.55-3.9Zm-4.36,13.92c.1,2.16,.14,4.09,.32,6.01,.04,.46,.52,1.19,.88,1.24,.48,.07,1.25-.26,1.51-.67,.96-1.48,1.76-3.06,2.64-4.64-1.83-.66-3.39-1.23-5.35-1.94Zm-23.35-35.57c-.19,.01-.39,.03-.58,.04-1.18,3.68-1.36,7.43-.59,11.23,.06,.29,.41,.53,.62,.79,.17-.26,.46-.52,.49-.8,.25-2.21,.57-4.43,.62-6.65,.03-1.54-.35-3.08-.55-4.62Z" style="fill:#ffff;"/><path d="M160.21,61.83c-.79,2.76-1.67,5.23-2.2,7.78-.66,3.18-1.01,6.42-1.54,9.63-.18,1.1-.35,2.22-.71,3.26-1.32,3.72-5.92,4.46-8.67,1.65-1.4-1.43-2.57-3.32-3.21-5.21-.95-2.83-1.29-5.87-1.98-8.79-.54-2.31-1.24-4.58-1.83-6.88-.59-2.29-.97-4.6-.16-6.93,.48-1.39,1.7-2.13,3.13-2.36,4.86-.76,8.16,3.72,8.83,7.36,.35,1.88,.37,3.82,.58,6.09,.69-2.5,1.2-4.72,1.93-6.86,.8-2.37,1.65-4.74,2.76-6.97,1.14-2.29,3.09-3.6,5.81-3.3,1.81,.2,3.04,1.33,4.01,2.74,2.46,3.57,3.48,7.69,4.36,11.85,.57,2.72,1.01,5.47,1.51,8.21,.02,.1,.13,.19,.34,.49,.45-1.45,.86-2.74,1.24-4.04,.69-2.37,1.45-4.72,2-7.12,.27-1.19,.48-2.59,.13-3.71-1.2-3.82-.15-6.99,2.44-9.74,2.28-2.43,5.15-3.81,8.51-4.06,4.1-.31,6.89,1.7,8.92,5.05,1.3,2.14,1.77,4.53,2.07,6.97,.18,1.48,.33,2.96,.5,4.55,1.47-.8,2.6-1.76,3.37-3.12,.15-.26,.25-.62,.2-.9-.44-2.41-.87-4.83-1.41-7.22-.88-3.86,2.34-6.08,5.84-5.45,1.33,.24,2.65,.89,3.82,1.6,1.32,.8,1.44,2.37,1.55,3.73,.34,4.01,.5,8.03,.8,12.05,.11,1.44,.41,2.87,.62,4.3,.11,.03,.23,.06,.34,.09,.94-1.78,2.04-3.5,2.78-5.36,1.05-2.66,2.07-5.37,2.63-8.15,.44-2.22,.17-4.58,.22-6.88,.04-1.98,.05-3.97,.16-5.95,.1-1.7,1.54-2.14,2.81-2.51,1.65-.49,3.35-.88,5.05-1.04,1.99-.19,3.4,1.41,3.33,3.45-.1,3.32-.3,6.64-.26,9.96,.04,3.13,.34,6.25,.54,9.38,.02,.27,.16,.53,.33,1.03,1.04-1.74,2-3.33,2.95-4.92,.45-.75,.95-1.48,1.31-2.27,.27-.59,.49-1.26,.49-1.9-.02-4.59,1.63-8.46,4.92-11.63,2.14-2.06,4.53-3.84,7.41-4.66,3.13-.9,6.32-1.32,9.27,.74,1.2,.84,2.18,3.16,1.87,4.56-.33,1.52-1.31,2.07-3.84,2.36-3.17,.37-5.91,1.59-7.85,4.25-1.76,2.4-1.74,5.32,.41,7.41,1.87,1.82,4.06,3.33,6.15,4.91,.21,.16,.86,0,1.11-.22,3.11-2.76,6.09-5.66,8.25-9.25,.46-.77,.87-.98,1.69-.56,.81,.42,1.68,.73,2.54,1.05,.77,.28,.93,.64,.56,1.43-1.75,3.65-4.24,6.74-7.09,9.58-.76,.75-1.46,1.57-1.99,2.14,1.13,2.06,2.4,4.07,3.35,6.21,1.38,3.13,.61,6.97-1.84,9.15-2.46,2.2-5.72,3.09-9.25,1.47-2.57-1.18-3.71-3.54-4.21-6.18-.41-2.17-.13-4.33,.55-6.45,.1-.31,.01-.88-.21-1.06-2.93-2.44-5.89-4.84-8.78-7.19-.7,1.92-1.43,4.15-2.33,6.31-.79,1.89-1.95,3.56-3.72,4.73-2.2,1.45-5.26,1.16-6.95-.48-1.42-1.38-2.5-3.11-3.76-4.71-.43,.8-.9,1.87-1.54,2.83-1.19,1.79-2.26,3.71-3.76,5.22-3.1,3.12-8.42,3.04-11.15-1.9-1.01-1.83-1.69-3.84-2.4-5.49-1.61,.79-3.4,1.66-5.16,2.57-.24,.13-.44,.49-.51,.79-.84,3.35-1.92,6.57-4.22,9.27-1.74,2.04-3.9,3.35-6.5,3.88-2.98,.61-6.27-1.28-7.8-4.36-.39-.78-.8-1.54-1.31-2.5-.41,1.09-.74,2.01-1.11,2.91-.33,.81-.69,1.61-1.08,2.39-1.44,2.84-3.71,3.04-6.33,1.62-1.21-.65-2.38-1.74-3.07-2.91-1.32-2.23-2.47-4.6-3.34-7.04-1.21-3.4-2.1-6.92-3.23-10.75Zm28.48-8.37c-.57,1.66-1.14,3.18-1.59,4.73-.15,.53-.19,1.28,.08,1.7,.98,1.53,2.5,2.42,4.24,2.9,.21,.06,.8-.34,.78-.46-.37-2.33-.69-4.67-1.26-6.95-.26-1.02-1.16-1.74-2.25-1.91Zm2.89,15.6c-1.91-.47-3.55-.86-5.54-1.35,.39,2.14,.68,4.04,1.1,5.92,.1,.45,.68,1.16,.94,1.12,.55-.09,1.26-.48,1.49-.95,.76-1.51,1.33-3.11,2.01-4.75Zm61.72,1.97c-.63,1.76-.46,2.71,.56,3.4,.32,.22,.78,.24,1.17,.35,0-.43,.17-.95-.01-1.28-.45-.82-1.07-1.55-1.72-2.46Z" style="fill:#ffff;"/><path d="M122.44,86.83c1.78,1.53,3.55,3.1,4.46,5.34,1.24,3.04,1.97,6.12-.28,9.05-1.96,2.57-4.61,3.76-7.82,3.41-3.04-.34-4.92-2.19-6.11-4.94-1.04-2.39-1.21-4.82-.66-7.31,.15-.69-.11-.94-.6-1.2-3.5-1.88-7-3.78-10.05-6.65-.61,1.82-1.22,3.55-1.77,5.3-1.03,3.26-2.05,6.53-3.03,9.81-.61,2.06-1.33,4.11-1.67,6.22-.61,3.78-3.08,5.59-6.4,6.74-2.16,.75-4.36,1.26-6.23-.37-1.37-1.19-2.64-2.65-3.5-4.24-2.56-4.66-4.24-9.66-5.09-14.91-.69-4.26-1.43-8.52-1.79-12.82-.47-5.66-.64-11.37,.19-17.02,.69-4.72,1.98-9.33,4.11-13.64,1.46-2.97,3.25-5.71,6-7.73,3.03-2.22,6.6-2.09,9.21,.41,1.42,1.36,1.68,3.14,1.7,4.95,.08,5.78-.27,11.51-1.58,17.19-1.54,6.72-4.17,12.88-8.42,18.31-.57,.73-.63,1.38-.38,2.27,.97,3.52,1.78,7.07,2.75,10.59,.5,1.81,1.21,3.57,1.92,5.63,1-1.83,2-3.4,2.75-5.08,2.59-5.82,5.13-11.66,7.58-17.53,.32-.77,.05-1.84-.08-2.75-.36-2.56,.32-4.94,1.43-7.14,1.95-3.86,4.86-6.94,8.8-8.77,2.74-1.27,5.68-2.05,8.74-.72,1.61,.7,2.89,2.43,2.94,4.16,.03,1.28-.62,2.18-1.86,2.6-2.48,.84-5.01,1.54-7.02,3.41-3.15,2.92-3.52,7.02-.68,9.53,.95,.84,2.03,1.54,3.12,2.19,1.16,.7,2.42,1.23,3.58,1.92,.65,.39,1.06,.32,1.52-.25,2.65-3.2,5.2-6.48,6.85-10.33,.39-.91,.86-1.09,1.74-.78,.79,.28,1.61,.46,2.44,.61,.9,.16,1.29,.54,.87,1.45-.97,2.09-1.77,4.27-2.93,6.24-1.39,2.35-3.1,4.51-4.72,6.84Zm-35.85-35.58c-4.06,8.05-5.25,16.63-4.7,25.54,5.04-7.87,7.07-16.29,4.7-25.54Zm30.69,43.77c-.47,1.91,.15,3.22,1.46,3.42,.28,.04,.68-.03,.84-.21,.13-.15,.07-.63-.08-.81-.67-.8-1.41-1.54-2.22-2.4Z" style="fill:#ffff;"/><path d="M48.3,63.18c-1.69,2.15-3.37,4.24-5,6.38-.72,.95-1.36,1.97-1.97,3-.37,.63-.71,.73-1.33,.31-.81-.56-2.08-.84-2.42-1.57-.25-.54,.71-1.61,1.07-2.47,1.44-3.54,2.87-7.08,4.28-10.64,2.45-6.21,9.92-6.98,13.98-2.61,2.07,2.23,3.73,4.7,4.82,7.52,1.07,2.78,2.33,5.52,3.03,8.39,1.33,5.48,2.47,11.01,3.41,16.56,.58,3.46,.85,7.01,.87,10.52,.04,4.62-.66,9.16-2.87,13.36-1.28,2.43-3.32,4.05-5.47,5.55-.55,.39-1.46,.26-2.2,.39-1.85,.32-3.75,.49-5.1-1.07-.9-1.05-1.48-2.38-2.09-3.64-.08-.16,.5-.84,.88-.96,1.06-.35,2.57-.18,3.19-.86,1.01-1.13,1.69-2.7,2.09-4.2,1.35-4.99,1.05-10.05,.43-15.12-.66-5.47-1.83-10.83-3.46-16.07-1.36-4.36-3.08-8.59-5.71-12.39-.06-.09-.17-.16-.4-.37Z" style="fill:#ffff;"/><path d="M522.41,25.4c.09-.75,.12-1.51,.27-2.25,.47-2.18,1.77-2.78,3.77-1.8,2.05,1,3.07,2.83,3.86,4.83,1.27,3.19,1.19,6.38-.16,9.53-.28,.65-.64,1.3-1.1,1.83-1.19,1.39-2.75,1.32-4.46,.04-1.74-1.29-2.29-3.18-2.79-5.11-.23-.88-.44-1.78-.51-2.69-.04-.53,0-1.34,.33-1.57,1.09-.76,.71-1.84,.79-2.82Z" style="fill:#ffff;"/></svg>