<?xml version="1.0" encoding="UTF-8"?><svg id="a" xmlns="http://www.w3.org/2000/svg" viewBox="0 0 691.2 129.12"><path d="M478.03,55.19c2.03-3.06,4.09-6.11,6.07-9.21,.7-1.09,1.11-2.36,1.79-3.46,.43-.7,.33-1.15-.22-1.65-1.93-1.74-3.46-3.77-4.21-6.28-.82-2.76-.86-5.55,.75-8.05,1.39-2.17,3.7-2.97,6.14-3.2,2.14-.2,4.3-.16,6.33,.68,2.44,1.02,3.65,3.03,2.94,6.16-.43,1.89-1.03,3.73-1.6,5.74,1.33,.48,2.77,1.04,4.22,1.53,3.7,1.24,6.47,4.8,6.82,8.74,.25,2.86-.26,5.63-.97,8.38-.57,2.18-1.08,4.38-1.47,6.64,1.21-1.6,2.42-3.2,3.61-4.82,.65-.89,1.28-1.8,1.88-2.73,1.09-1.69,1.2-3.63,1.49-5.56,.46-3.06,2.45-5.11,5.09-6.55,3.82-2.08,7.84-2.46,11.86-.84,3.84,1.56,5.35,4.89,5.83,8.78,.42,3.37-.27,6.62-1.33,9.8-.14,.41-.22,.84-.36,1.39,2.26-.33,4.07-1.29,5.6-2.81,.19-.19,.23-.57,.25-.88,.14-2.21,.31-4.43,.38-6.64,.07-2.32,1.91-4.45,4.15-5.03,3.38-.86,6.67,1.68,7.43,5.19,.73,3.4,.23,6.73-.52,10.04-.55,2.43-1.2,4.83-1.87,7.51,2.57-2.58,5.05-4.8,6.77-7.88,3.04-5.45,7.88-8.82,13.89-10.53,2.32-.66,4.68-.9,7.06-.62,5.58,.64,7.66,5.19,5.4,9.71-2.34,4.68-6.21,8.02-10.12,11.29-2.31,1.94-4.75,3.72-7.13,5.58,1.42,2.27,3.93,3.23,6.36,2.38,3.25-1.14,5.72-3.44,8.21-5.69,1.71-1.54,3.29-3.22,4.91-4.86,.26-.27,.5-.63,.59-.99,.73-2.73,1.42-5.46,2.14-8.19,.18-.67,.2-1.21-.42-1.7-.36-.29-.64-.72-.87-1.13-.82-1.44-.6-2.19,.97-2.68,1.58-.49,2.32-1.39,2.82-3.03,1.47-4.86,3.24-9.63,4.91-14.42,.22-.63,.54-1.23,.83-1.84,.84-1.73,1.3-2.06,3.29-1.7,2.05,.37,4.08,.88,6.07,1.49,2.07,.63,2.66,1.96,1.88,3.99-.95,2.44-2.05,4.82-2.95,7.27-1.03,2.79-1.92,5.63-2.68,8.75,1.61-.62,3.22-1.24,4.82-1.88,.63-.25,1.2-.69,1.84-.84,.77-.18,1.59-.19,2.39-.2,.81,0,1.67,.26,2.43,.07,.99-.26,1.77-.08,2.54,.48,.03,.02,.06,.05,.1,.07,4.25,2.6,2.71,5.53,.15,7.65-3.76,3.13-8.25,4.09-13.05,3.8-1.19-.07-2.37-.31-3.55-.38-.28-.02-.78,.31-.84,.56-1.55,6.36-3.15,12.71-4.54,19.11-.55,2.53-.6,5.18-.88,7.77l.27,.17c1.96-1.47,3.98-2.87,5.87-4.43,4.26-3.52,8.47-7.1,12.66-10.7,.65-.56,1.03-.67,1.66-.01,.79,.83,1.68,1.57,2.59,2.27,.56,.44,.42,.75,.04,1.17-5.36,5.92-10.73,11.84-16.08,17.77-1.06,1.18-2.06,2.42-3.1,3.62-1.18,1.35-2.62,2.23-4.48,2.09-3.04-.23-6.1-.5-8.17-3.18-1.61-2.08-2.19-4.56-2.16-7.09,.03-3.01,.38-6.01,.65-9.01,.14-1.62,.39-3.24,.6-4.94-1.22,1.15-2.44,2.29-3.66,3.43-2.71,2.53-5.66,4.64-9.29,5.69-4.19,1.21-7.89,.06-11.18-2.41-3.61-2.72-5.26-6.59-5.72-11.02-.01-.11-.08-.22-.19-.52-.95,.8-1.82,1.56-2.72,2.28-1.37,1.1-2.79,2.12-4.12,3.27-.6,.52-1.16,1.18-1.51,1.89-1.2,2.45-2.28,4.95-3.43,7.42-2.57,5.54-6.21,10.34-10.43,14.69-2.8,2.9-5.85,5.5-9.66,7.11-2.08,.88-4.1,.71-6.16,.28-.92-.19-1.9-.39-2.68-.87-2.85-1.75-3.6-4.34-2.49-7.51,1.32-3.75,3.62-6.86,6.27-9.74,5.55-6.02,11.8-11.19,18.81-15.43,.76-.46,1.24-1.04,1.48-1.9,.7-2.56,1.45-5.1,2.28-8.03-2.69,1.33-5.15,1.93-7.8,1.7-1.85,2.8-3.79,5.55-6.67,7.47-3.08,2.05-6.35,3.1-10.01,2.02-2.59-.76-4.06-2.69-4.85-5.17-.29-.92-.44-1.89-.63-2.7-1.45,.94-2.81,2.07-4.36,2.77-3.06,1.39-5.41,.96-7.14-1.85-1.06-1.72-.87-3.75-.69-5.71,.38-4.03,.82-8.05,1-12.08,.07-1.58-.34-3.23-.77-4.77-.45-1.63-1.76-2.57-3.23-3.17-1.58,2.39-2.97,4.8-4.65,6.99-2.83,3.68-5.64,7.41-8.83,10.76-2.52,2.66-5.91,4.03-9.61,4.66-3.87,.66-7.7,.51-11.53-.07-1.25-.19-2.44-.81-3.89-1.32-.5,3.94-1.01,7.92-1.51,11.89-.26,2.1-.51,4.2-.72,6.3-.1,1.01-.46,1.49-1.58,1.39-1.89-.16-3.79-.18-5.68-.29-1.13-.07-1.64-.6-1.64-1.85,0-2.38-.31-4.76-.31-7.15,0-3.9,.07-7.81,.23-11.71,.12-2.91,.34-5.82,.69-8.71,.37-3.04,.9-6.06,1.44-9.07,.56-3.09,1.32-6.14,1.79-9.24,.21-1.35,1-1.66,2-1.67,2.42,0,4.85,.09,7.27,.21,.89,.04,1.54-.03,2.09-.91,1.42-2.26,3.27-4.12,5.73-5.27,3.96-1.84,8.87-.63,11.65,2.76,2.17,2.65,3.17,5.76,3.76,9.04,.65,3.63,.42,7.25-.37,10.83-.23,1.02-.66,1.99-1,2.98,.15,.08,.3,.17,.44,.25Zm-10.6-18.47c-.28,.14-.96,.26-1.34,.67-1.06,1.17-2.22,2.33-2.95,3.7-1.79,3.34-3.45,6.77-5.01,10.23-.86,1.92-1.42,3.98-2.19,6.17,1.01-.1,1.84-.11,2.63-.27,1.7-.35,3.48-.55,5.07-1.2,3.28-1.35,4.6-4.35,5.03-7.54,.32-2.35-.05-4.81-.28-7.2-.14-1.48-.61-2.92-.97-4.55Zm57.97,22.9c1.17-2.48,1.92-4.91,1.59-7.56-.16-1.28-.51-2.45-1.69-3.04-1.07,1.41-2.09,2.71-3.06,4.06-.36,.49-.95,1.19-.82,1.6,.66,2.08,1.88,3.81,3.98,4.95Zm4.97,25.76c-6.09,4.52-11.44,11.48-12.02,14.42,2.48-.03,9.57-8.49,12.02-14.42Zm33.14-16.94c.09,.09,.17,.18,.26,.27,1.31-1.26,2.68-2.46,3.92-3.79,1.34-1.43,2.5-3.02,2.63-5.09,.03-.38-.09-.96-.35-1.13-.27-.18-.89-.13-1.19,.07-.62,.41-1.22,.91-1.67,1.49-1.85,2.43-3,5.19-3.6,8.18Zm-40.77-2.95c-1.73-1.11-3.23-2.07-4.72-3.03-1,1.56-1.61,5.5-1.26,6.83,.09,.34,.71,.74,1.09,.74,.46,0,1.03-.28,1.36-.62,1.2-1.25,2.32-2.58,3.52-3.93Zm-32.23-36.67c-1.52,1.34-1.69,2.71-.48,4.03,.2-1.36,1.27-2.54,.48-4.03Z" style="fill:#ffff;"/><path d="M304.28,45.63c-1.84,3.32-3.78,6.98-5.86,10.55-1.72,2.96-3.92,5.52-6.88,7.38-4.17,2.61-8.47,2.47-12.62,.27-4.47-2.37-7.03-6.35-8.22-11.23-.1-.41-.24-.82-.33-1.12-1.75,.21-3.39,.4-5.02,.6-.51,2.51-.98,5.22-1.62,7.89-.66,2.73-1.75,5.3-3.64,7.43-1.66,1.88-3.77,2.81-6.3,2.98-5.76,.37-8.76-3.6-10.61-7.88-.69-1.6-1.15-3.29-1.79-5.15-.4,1.37-.81,2.61-1.12,3.88-.61,2.55-1.81,4.71-4.2,5.95-3.95,2.06-8.39-.2-9.99-4.26-1.28-3.23-1.67-6.6-1.82-10.4-.43,.58-.69,.88-.9,1.22-2.62,4.21-5.52,8.22-8.96,11.79-1.39,1.45-2.97,2.83-4.71,3.81-3.84,2.15-8.7,.8-10.85-4.05-2.12-4.77-1.79-9.67-.51-14.58,.9-3.46,2.29-6.7,4.28-9.67,3.12-4.67,7.01-8.51,12.36-10.48,3.44-1.27,7-1.3,10.47,.17,.35,.15,.76,.25,1.13,.2,3.48-.49,6.27,.9,8.75,3.16,1.06,.97,.9,2.25,.84,3.47-.15,3.01-.36,6.02-.55,9.04-.12,1.86-.25,3.71-.33,5.57-.05,1.12,0,2.25,0,3.38,.12,.02,.24,.04,.36,.06,.71-1.53,1.44-3.06,2.14-4.59,.38-.83,.67-1.71,1.12-2.51,.72-1.28,1-2.57,.95-4.09-.05-1.4,.47-2.84,.87-4.22,.22-.74,.86-.78,1.58-.49,2.77,1.1,5.59,2.08,8.32,3.27,.52,.23,.98,1.12,1.05,1.76,.31,2.53,.32,5.1,.7,7.62,.37,2.47,1.05,4.89,1.62,7.33,.05,.21,.25,.38,.56,.82,.66-1.18,1.37-2.14,1.76-3.22,.82-2.28,1.5-4.61,2.16-6.93,.1-.34-.09-.95-.35-1.16-3.09-2.44-5.12-5.63-6.08-9.36-.68-2.63-.91-5.42-.95-8.14-.03-1.94,.27-4.02,.98-5.82,1.62-4.1,7.1-4.7,9.75-.87,1.73,2.5,2.5,5.32,2.9,8.26,.34,2.52,.59,5.06,.81,7.6,.12,1.42,.14,2.86,.13,4.29,0,1.03,.96,1.8,1.89,1.32,1.49-.79,2.7-1.73,3.17-3.61,1.65-6.54,5.46-11.56,11.34-14.88,2.53-1.43,5.2-2.31,8.27-2.21,3.89,.12,6.05,4.54,5.45,7.55-.82,4.14-2.62,7.84-4.9,11.33-2.22,3.4-4.54,6.74-6.83,10.12,2.27,2.1,5.33,1.8,7.42-.19,2.99-2.85,5.16-6.28,6.93-9.96,1.62-3.37,3.1-6.81,4.59-10.24,.33-.75,.44-1.59,.68-2.49-.67-.31-1.29-.68-1.95-.88-.83-.25-.93-.69-.69-1.44,.86-2.63,2.76-4.47,4.79-6.16,3.34-2.8,7.13-4.72,11.55-4.95,5.07-.27,9.5,1.96,11.45,7.69,1.39,4.08,.82,8.15-.58,12.08-1.02,2.84-2.28,5.61-3.69,8.28-1.41,2.67-3.13,5.18-4.73,7.79,1.25,.33,2.53,.66,3.97,1.04,1.07-1.41,2.23-2.96,3.42-4.51,2.33-3.03,4.68-6.05,7.02-9.07,.05-.06,.11-.11,.16-.18q1.63-2.15,4.04-.93c2.22,1.12,2.32,1.18,1.02,3.29-2.18,3.52-4.5,6.96-6.78,10.42-1.01,1.53-2.1,3.01-3.06,4.57-.19,.31-.09,1,.14,1.33,1.91,2.8,2.94,5.84,2.63,9.24-.37,4.13-1.8,7.9-4.04,11.39-1.94,3.02-4.16,5.79-7.27,7.66-2.75,1.64-5.72,2.11-8.84,1.07-2.38-.79-3.36-2.78-3.35-5.11,.02-2.95,.85-5.79,2.17-8.37,2.35-4.56,4.95-8.99,7.45-13.47,.12-.21,.24-.41,.48-.82-2.48-.09-4.78-.39-6.87,1.15-1.54,1.13-3.15,2.17-4.75,3.21-.25,.16-.78,.25-.95,.1-2-1.75-4.27-3.24-5.51-5.74-.37-.74-.14-1.27,.36-1.7,4.63-3.94,7.87-8.99,11.15-13.99,1.97-2.99,3.75-6.12,5.49-9.25,.61-1.09,.86-2.38,1.24-3.58,.3-.94,.21-1.87-.61-2.51-.89-.7-1.83-.39-2.8-.04-2.49,.91-3.42,2.98-4.43,5.22-1.59,3.54-3.49,6.94-5.35,10.35-.18,.34-.95,.36-1.66,.61Zm-82.3-5.78c-.08-.11-.16-.23-.24-.34-1.2,.45-2.45,.82-3.6,1.38-2.37,1.16-4.16,3.01-5.78,5.05-2.41,3.04-4.21,6.4-5.01,10.2-.43,2.07-.55,4.22-.63,6.34-.02,.55,.5,1.27,.99,1.62,.24,.18,1.11-.14,1.43-.48,1.09-1.15,2.21-2.31,3.05-3.64,4.01-6.35,6.88-13.26,9.79-20.14Zm95.41,38.73c1.44,.89,3.59-.36,4.43-1.55,1.53-2.16,2.3-4.61,2.64-7.19,.13-1.01,.02-2.06,.02-3.09-.16-.03-.32-.06-.49-.09-2.31,3.89-5.11,7.51-6.6,11.92Zm-35.97-30.71c.13,.04,.27,.09,.4,.13,.74-1.25,1.57-2.46,2.2-3.77,.89-1.86,1.86-3.74,1.55-5.9-.08-.56-.51-1.07-.78-1.6-.53,.34-1.26,.56-1.56,1.05-1.89,3.13-1.95,6.6-1.82,10.09Zm-22.51-10.28c.11,0,.22,.02,.33,.02-.25-1.17-.5-2.33-.75-3.5l-.35,.08c.26,1.13,.51,2.27,.77,3.4Z" style="fill:#ffff;"/><path d="M175.87,70.01c1.94,1.71,3.61,3.55,4.49,5.89,1.47,3.94,1.47,6.97-1.19,9.8-2.76,2.95-6.96,3.77-10.28,2.05-3.02-1.57-4.34-4.38-4.62-7.61-.14-1.62,.18-3.31,.46-4.94,.12-.69-.14-.92-.59-1.22-2.45-1.63-4.92-3.25-7.34-4.92-.84-.58-1.56-1.32-2.36-2.01-.62,2.33-1.15,4.65-1.88,6.9-.7,2.19-1.78,4.26-3.7,5.61-3.24,2.26-6.91,1.14-9.21-1.56-.83-.98-1.52-2.09-2.38-3.27-.48,1.14-.9,2.27-1.44,3.34-1.22,2.45-2.25,5.04-4.49,6.81-2.74,2.17-6.81,2.36-9.41-.09-2.06-1.93-3.32-4.34-4.31-6.92-.07-.18-.13-.37-.2-.55-.03-.07-.09-.13,0-.01-1.89,1.29-3.76,2.58-5.86,4.01-.46,3.56-1.32,7.42-3.88,10.6-2.45,3.03-5.45,5.17-9.66,4.45-1.98-.34-3.45-1.55-4.69-3.08-2.14-2.63-3.19-5.74-4.03-8.94-.83-3.21-1.29-6.47-1.22-9.8,.01-.54-.06-1.14-.27-1.63-2.02-4.61-.67-8.49,2.64-11.86,2.63-2.68,5.89-4.18,9.67-4.08,3.97,.11,6.59,2.5,8.51,5.73,1.69,2.84,2.24,6.06,2.74,9.27,.07,.43,.14,.85,.23,1.4,1.61-.91,2.65-2.17,3.43-3.66,.11-.21,.09-.55,.03-.79-.67-2.54-1.3-5.09-2.05-7.61-1.09-3.67,1-5.47,3.95-6.13,1.82-.41,3.69,.05,5.41,.99,1.72,.93,2.18,2.55,2.49,4.22,.97,5.36,1.87,10.74,2.8,16.11,.03,.19,.11,.37,.29,.94,.71-1.45,1.35-2.59,1.84-3.79,1.66-4.1,2.98-8.32,3.11-12.77,.06-2.04-.52-4.09-.68-6.14-.15-1.97-.16-3.96-.14-5.94,0-.95,.55-1.62,1.47-1.99,1.51-.61,2.95-1.43,4.51-1.82,1.17-.3,2.53-.29,3.71-.02,1.39,.32,1.9,1.59,1.97,2.96,.1,2.18,.06,4.37,.25,6.55,.25,2.86,.62,5.7,1,8.55,.27,2.02,.64,4.02,1.25,6.08,.34-.58,.71-1.15,1-1.76,1.05-2.19,2.1-4.38,3.1-6.59,.19-.41,.29-.92,.23-1.36-.48-3.58,.24-6.91,2.11-9.97,2.32-3.8,5.53-6.72,9.65-8.36,2.95-1.18,6.12-1.76,9.23-.16,1.9,.98,2.75,2.57,2.77,4.65,.02,1.16-.83,2.11-1.94,2.43-1.82,.53-3.7,.95-5.42,1.71-2.7,1.19-5.67,4.29-5.41,7.49,.12,1.51,.57,2.93,1.73,3.81,2.33,1.78,4.81,3.38,7.27,4.98,.24,.15,.95-.08,1.2-.36,2.98-3.21,5.93-6.46,7.89-10.44,.41-.83,.8-1.15,1.75-.7,.84,.4,1.8,.58,2.71,.81,.91,.23,1.12,.65,.75,1.56-1.46,3.63-3.56,6.85-6.08,9.81-.93,1.09-1.88,2.17-2.89,3.33Zm-75.86-4.2c-.43,1.76-.89,3.47-1.22,5.2-.11,.57-.08,1.37,.25,1.78,1.21,1.51,2.9,2.3,4.8,2.59,.22,.03,.78-.49,.75-.68-.33-1.91-.58-3.87-1.21-5.68-.54-1.55-1.51-2.99-3.36-3.22Zm4.53,16.08c-2.06-.3-3.82-.55-5.68-.82-.01,2.1,.38,4.03,1.23,5.85,.26,.55,.84,1.3,1.3,1.32,.47,.02,1.22-.64,1.43-1.16,.67-1.64,1.13-3.37,1.72-5.18Zm65.45-3.58c-.11,.05-.21,.11-.32,.16,0,.44-.04,.87,0,1.31,.11,1.04,.46,1.96,1.62,2.2,.31,.07,.8,.05,.95-.13,.15-.19,.1-.73-.07-.95-.69-.9-1.45-1.73-2.19-2.59Z" style="fill:#ffff;"/><path d="M388.62,54.38c-2.36,2.76-4.51,5.79-8.69,4.84-3.99-.92-5.31-4.17-6.26-7.76-1.55,1.87-3,3.65-4.49,5.39-2.18,2.55-4.77,4.19-8.34,3.67-1.6-.23-2.87-.94-3.88-2.13-2.1-2.48-2.99-5.49-3.16-8.62-.26-4.82-.23-9.65-.32-14.48-.01-.6,0-1.21-.09-1.79-.55-3.59,.68-5.32,4.27-5.92,2.29-.39,6.24,1.45,6.85,3.64,.5,1.78,.38,3.77,.28,5.66-.24,4.46-.65,8.9-.98,13.36-.03,.39,0,.79,0,1.35,.27-.16,.46-.22,.56-.35,3.57-4.23,6.54-8.83,8.14-14.17,.49-1.65,.46-3.46,.72-5.19,.29-1.93,.56-3.86,.97-5.77,.38-1.78,1.45-2.83,3.4-2.89,1.81-.06,3.62-.45,5.42-.38,2.54,.1,3.64,2.11,3.09,4.79-.75,3.66-1.48,7.32-2,11.01-.45,3.15-.6,6.34-.66,9.62,1.14-1.34,2.28-2.69,3.41-4.04,.15-.18,.27-.41,.45-.56,1.45-1.17,1.19-2.69,1.17-4.33-.02-3.4-.33-6.86,1.03-10.15,1.31-3.19,3.43-3.28,6.02-2.5,3.66,1.1,5.6,5.13,5.48,8.43-.09,2.32-.47,4.63-.72,6.96,.98-1.66,1.92-3.41,3.01-5.06,1.6-2.41,3.21-4.83,5.01-7.1,1.09-1.38,2.61-2.36,4.48-2.5,2.45-.18,4.82,1.19,5.68,3.74,.77,2.31,1.35,4.76,1.49,7.18,.19,3.33-.07,6.69-.22,10.03-.09,1.98-.34,3.95-.27,6.02,.72-1.15,1.47-2.29,2.17-3.45,1.47-2.44,2.93-4.9,4.38-7.35,.85-1.43,.94-1.46,2.35-.62,.82,.49,1.63,1.01,2.47,1.46,.65,.34,.73,.68,.35,1.32-1.88,3.18-3.67,6.41-5.59,9.56-1.36,2.23-2.8,4.41-4.32,6.54-2.8,3.93-6.73,2.13-8.61-.76-2.09-3.2-2.58-6.89-2.86-10.6-.14-1.87-.19-3.74-.23-5.61-.04-1.83,0-3.66-.19-5.67-1.1,1.74-2.38,3.4-3.27,5.24-1.94,4.03-3.73,8.13-5.49,12.25-1.55,3.63-4.67,5.39-8.09,3.58-1.8-.95-2.78-2.55-3.47-4.38-.16-.43-.26-.88-.44-1.49Z" style="fill:#ffff;"/><path d="M47.05,63.65c-.94,2.66-1.94,5.3-2.79,7.98-.38,1.2-.84,1.83-2.24,1.53-1.15-.25-2.35-.27-3.65-.4,.29-4.54-.38-9.07,1.12-13.42,2.18-6.34,7.74-7.69,13.14-5.33,3.34,1.45,5.87,4.03,7.92,6.9,4.42,6.2,8.61,12.55,12.85,18.87,2.16,3.22,4.2,6.52,6.3,9.78,.08,.13,.2,.24,.43,.52-.19-3.82-.4-7.44-.56-11.06-.23-5.47-.58-10.94-.59-16.42,0-5.86,.25-11.71,.54-17.56,.13-2.73,.43-5.48,1.68-8,.25-.5,.54-.97,.87-1.42,.96-1.33,1.96-1.82,2.95-1.49,1.34,.45,2.32,1.82,2.16,3.37-.29,2.85-.75,5.68-1.04,8.52-.64,6.3-1.37,12.6-1.78,18.92-.4,6.2-.13,12.4,.71,18.59,.79,5.86,1.93,11.63,3.46,17.33,.37,1.37,.5,2.81,.71,4.21,.61,4.12-3.24,5.89-6.24,5.14-2.71-.68-4.66-2.48-6.12-4.71-4.46-6.8-8.79-13.69-13.23-20.51-4.55-6.99-9.21-13.9-14.98-19.97-.47-.49-.83-1.08-1.24-1.62-.13,.08-.25,.16-.38,.25Z" style="fill:#ffff;"/><path d="M652.35,45.77c4.98,.46,9.67,2.03,12.94,6.31,2.45,3.2,3.19,6.85,2.18,10.85-1.63,6.45-5.97,10.64-11.48,13.79-2.56,1.46-5.26,2.68-7.93,3.94-4.57,2.16-9.17,4.28-13.76,6.39-.54,.25-1.15,.35-1.7,.58-1.72,.7-3.31,.45-4.61-.84-1.39-1.38-1.64-3.12-1.23-4.99,.79-3.53,3.46-5.3,6.4-6.74,3.44-1.68,6.95-3.2,10.41-4.83,3.87-1.82,7.75-3.67,10.59-7,.85-1,1.61-2.26,1.88-3.51,.51-2.38-.68-3.68-3.43-4.7-3.94-1.46-7.63-.46-10.74,2.3-1.84,1.64-3.44,3.54-4.34,5.91-.31,.8-.82,1.2-1.73,1.16-.71-.03-1.43,.05-2.14,.12-.81,.08-1.29-.29-1.22-1.06,.13-1.38,.14-2.83,.61-4.09,2.65-7.13,7.92-11.34,15.18-13.21,.65-.17,1.33-.22,2-.29,.63-.06,1.27-.06,2.11-.1Z" style="fill:#ffff;"/><path d="M554.9,29.04c-.31,2.1-.54,4.68-2.27,6.79-1.3,1.58-2.7,1.84-4.39,.71-1.6-1.07-2.84-2.44-3.15-4.45-.25-1.67-.53-3.34-.75-5.02-.04-.28,.06-.74,.26-.87,1.22-.82,.87-2.1,1.03-3.23,.02-.12-.03-.24-.02-.36,.09-1.53,.14-3.23,1.82-3.84,1.68-.61,3.11,.36,4.24,1.53,1.89,1.95,3.12,5.32,3.22,8.76Z" style="fill:#ffff;"/><path d="M638.41,99.11c-.08,2.83-1.45,4.73-3.65,5.56-.11,.04-.21,.11-.32,.16-2.43,.99-2.87,.91-4.52-1.15-.81-1.02-1.53-2.13-2.15-3.27-.16-.3,.15-.89,.31-1.32,.09-.25,.35-.42,.49-.66,1.23-2.21,2.48-4.41,3.66-6.64,.38-.72,.74-.79,1.39-.37,2.99,1.93,4.46,4.73,4.79,7.69Z" style="fill:#ffff;"/></svg>