<?xml version="1.0" encoding="UTF-8"?><svg id="a" xmlns="http://www.w3.org/2000/svg" viewBox="0 0 691.2 129.12"><path d="M335.28,66.19c-.26,.7-.51,1.39-.77,2.09-.81,2.19-2.24,3.89-4.23,5.05-3.43,1.99-8.29,.29-10.04-3.46-1.34-2.87-1.85-5.93-1.83-9.08,0-1.5,0-3,0-4.71-1.6,1.98-3.04,3.87-4.59,5.67-3.21,3.72-6.39,7.48-10.52,10.26-3.52,2.37-7.29,2.64-10.46,.28-1.71-1.27-2.36-3.17-3.2-4.97-.08-.18-.15-.36-.24-.57-1.32,2.02-2.54,4.03-3.89,5.93-2.24,3.14-5.12,5.57-8.85,6.63-2.99,.86-6.02,.53-8.91-.72-.4-.17-.8-.36-1.21-.53-.06-.03-.15,.02-.23,.03-1.03,3.54-2.52,4.44-6.01,3.25-2.21-.75-4.37-1.75-6.4-2.89-5.13-2.87-10.27-5.7-16-7.22-2.71-.72-5.5-1.18-8.43-1.79,.19,2.69,.43,5.14,.53,7.59,.12,2.91,.23,5.83,.15,8.74-.09,3.3-2.54,4.78-5.78,4.43-3.09-.34-3.88-2.46-4.27-4.83-.82-4.88-1.49-9.77-2.23-14.66-.01-.07-.08-.13-.22-.34-1.41,.44-2.73,.17-3.84-.99-2.07-2.17-2.02-4.75,.52-6.38,.1-.07,.19-.16,.3-.2,2.04-.64,1.93-2.06,1.62-3.81-.82-4.6-1.43-9.23-2.2-13.84-.4-2.44-.96-4.85-1.42-7.28-.16-.85-.26-1.71-.42-2.77-1.5,1.54-2.22,3.24-2.46,5.16-.32,2.62,.41,5.08,1.35,7.47,.46,1.18,.73,2.19-.35,3.23-.62,.6-1.06,1.4-1.54,2.13-.46,.72-.99,.79-1.72,.4-1.78-.97-3-2.49-3.64-4.3-.73-2.09-1.27-4.29-1.53-6.49-.59-4.91,.94-9.34,3.79-13.27,4.03-5.55,9.37-9.4,15.8-11.77,4.27-1.57,8.69-2.43,13.23-2.24,6.2,.25,10.81,3.16,13.41,8.84,1.64,3.57,1.64,7.35,.84,11.16-1.27,6.07-4.13,11.38-7.94,16.19-1.95,2.46-4.07,4.8-6.24,7.34,8.15,.35,15.48,3.17,22.18,7.38-.13-2.38-.31-4.7-.38-7.02-.1-3.05,.72-5.9,1.91-8.7,2.37-5.55,6.23-9.76,11.48-12.59,1.99-1.07,4.3-1.84,6.54-2.12,4.65-.6,8.02,3.27,7.42,8.29-.44,3.7-1.93,7.1-3.82,10.26-2.58,4.32-5.4,8.49-8.12,12.72-.17,.26-.32,.54-.47,.8,1.52,1.63,4.59,2.09,6.43,1.03,2.93-1.68,4.72-4.39,6.38-7.17,1.66-2.77,3.07-5.69,4.64-8.52,2.14-3.84,4.04-7.86,6.55-11.45,3.33-4.76,7.83-8.3,13.37-10.31,4.19-1.52,8.33-1.43,12.22,.89,1.13,.67,2.23,.22,3.33,.47,2.57,.58,4.79,1.73,6.68,3.54,1.22,1.16,1.46,2.56,1.2,4.17-.74,4.61-1.44,9.22-2.11,13.84-.32,2.23-.52,4.48-.53,6.83,.84-1.42,1.67-2.83,2.52-4.25,1.29-2.16,2.64-4.28,3.85-6.48,.4-.73,.48-1.66,.62-2.52,1.17-7.13,2.8-14.15,5.41-20.88,2.7-6.95,6.62-13.22,12.12-18.35,2.55-2.38,5.6-4.02,9.05-4.62,2.05-.36,3.88,.61,5.54,1.82,.47,.34,1.1,.62,1.67,.63,2.8,.06,4.56,1.75,6.06,3.79,3.06,4.15,3.53,8.71,1.89,13.52-.85,2.49-2.85,3.27-5.24,2.13-1.82-.87-2.63-1.76-4.23-4.67-.67,1.65-1.29,3.21-1.93,4.77-3.11,7.54-7.31,14.37-13.16,20.1-1.65,1.61-3.54,2.98-5.28,4.51-.37,.33-.73,.89-.75,1.36-.18,4.43-.34,8.86-.37,13.3-.02,2.27,.23,4.54,.39,7.27,1.03-1.12,1.83-2.02,2.66-2.9,5.46-5.79,10.54-11.89,15.18-18.37,.31-.43,.8-.72,1.29-1,1.15-3.43,1.08-7.07,1.17-10.69,.05-1.81,.9-2.93,2.46-3.61,2.63-1.15,7.21-.02,9.01,2.22,1.51,1.89,1.46,4.07,1.04,6.28-.34,1.8-.83,3.57-1.12,5.37-.72,4.57-1.38,9.15-2.04,13.73-.08,.58-.06,1.18,.14,1.91,1.1-1.33,2.27-2.61,3.28-4.01,2.26-3.14,4.43-6.36,6.69-9.5,.33-.47,.96-.72,1.68-1.23,.73-6.38,4.36-11.1,10.36-14.2,3.63-1.87,7.32-3.12,11.48-2.4,2.48,.43,4.73,1.22,6.21,3.41,.98,1.45,1.09,3.07,.6,4.69-.39,1.28-1.49,1.96-2.85,1.94-2.35-.03-4.7-.15-6.99,.62-3.16,1.05-5.63,2.83-6.68,6.14-.53,1.67-.09,3.24,.75,4.72,1.72,3.03,4.23,5.38,6.78,7.82,3.44-2.02,6.64-4.31,9.55-6.99,1.25-1.15,2.59-2.25,3.67-3.55,.86-1.02,1.34-2.35,2.07-3.48,3.67-5.69,8.59-9.93,14.84-12.59,4.45-1.89,8.99-2.49,13.61-.75,1.29,.49,2.46,1.29,3.69,1.95,.28,.15,.55,.4,.84,.42,3.72,.3,6.11,2.63,8.25,5.34,.92,1.16,.76,2.51,.37,3.79-1.09,3.63-2.28,7.22-3.38,10.84-.82,2.7-1.57,5.43-2.33,8.15-.09,.32-.01,.68-.01,1.31,1.57-2,2.98-3.8,4.41-5.59,.97-1.22,1.93-2.44,2.95-3.62,.27-.32,.73-.48,1.37-.56,.49-3.5,.98-7,1.44-10.5,.04-.27-.18-.63-.36-.87-.43-.56-1.03-1.02-1.37-1.63-.94-1.67-.91-2.2,.87-2.79,2.09-.7,2.36-2.23,2.71-3.98,.44-2.22,1.09-4.39,1.59-6.6,.41-1.82,.65-3.69,1.12-5.49,.63-2.42,1.36-4.82,2.2-7.17,.18-.51,1.04-1.1,1.59-1.1,1.86,0,3.73,.22,5.59,.39,.83,.08,1.68,.12,2.47,.36,2.3,.7,3.05,2.04,2.39,4.27-.88,3.02-1.92,5.99-2.71,9.03-.76,2.95-1.3,5.96-2.01,9.34,1.78-.91,3.31-1.64,4.79-2.45,1.01-.55,1.92-1.31,2.96-1.8,.56-.26,1.28-.17,1.94-.22,1.01-.08,2.1,.08,3-.26,1.29-.48,2.13,.19,3.11,.68,3.19,1.59,3.47,3.96,1.63,6.7-2.54,3.78-6.41,5.6-10.7,6.43-2.82,.55-5.74,.57-8.78,.84-1.44,9.96-3.47,20.18-2.96,30.91,.92-.79,1.76-1.42,2.49-2.16,3.68-3.72,7.34-7.45,10.98-11.2,1.61-1.66,2.98-3.63,4.8-5,2.34-1.75,2.62-4.24,3.2-6.68,.4-1.66,.59-3.38,.93-5.05,.43-2.1,1.76-3.23,4.13-3.23,2.59,0,4.97,.77,6.78,2.75,1.14,1.25,1.65,2.88,1.28,4.45-.63,2.7-1.6,5.33-2.44,7.98-.64,2.01-1.32,4-1.93,6.02-.62,2.02-1.2,4.05-1.76,6.08-.26,.95-.44,1.93-.45,3.09,1.16-1.02,2.39-1.96,3.47-3.06,2.9-2.96,5.74-5.99,8.6-9,.19-.2,.4-.52,.62-.54,1.52-.13,1.48-1.27,1.55-2.32,.18-2.94,1.12-5.49,3.38-7.53,2.62-2.36,5.7-3.47,9.15-3.58,3-.09,5.86,.51,8.32,2.38,2.83,2.15,3.75,5.24,4.13,8.58,.45,3.96-.7,7.64-1.99,11.3-.11,.32-.17,.65-.3,1.15,2.32-.21,4.16-1.1,5.76-2.45,.32-.27,.31-.95,.39-1.45,.55-3.54,.91-7.13,2.61-10.38,.33-.63,.69-1.27,1.12-1.83,1.25-1.63,2.77-2.11,4.76-1.57,3.21,.87,5.22,3.36,5.84,6.73,.64,3.54-.22,6.71-1.81,9.8-.41,.8-.74,1.63-.88,2.58,1.17-1.38,2.27-2.83,3.52-4.14,2.52-2.65,5.02-5.34,7.73-7.79,1.57-1.42,3.61-2.27,5.85-1.96,3.24,.44,4.78,2.68,5.26,5.42,.68,3.87,.33,7.73-.59,11.51-1.05,4.33-2.27,8.62-3.41,12.93-.06,.21-.03,.45-.05,.98,2.23-2.49,4.26-4.77,6.31-7.04,1.26-1.39,2.5-2.79,3.83-4.11,.35-.34,.97-.4,1.81-.72,.98-3.37,3.26-6.33,6.49-8.58,2.67-1.87,5.69-2.81,8.86-3.38,3.24-.59,6.42-.5,9.53,.73,2.29,.91,4.27,2.18,5.37,4.48,.87,1.81,.65,3.58-.46,5.22-.7,1.03-1.67,1.32-2.92,1.09-2.3-.42-4.62-.98-6.94-1.02-2.83-.04-5.42,1.01-7.36,3.2-1.42,1.6-1.82,3.5-1.23,5.57,.94,3.31,2.79,6.16,4.6,9.03,.17,.27,.85,.45,1.19,.34,4.81-1.62,9.53-3.45,13.66-6.52,.27-.2,1-.12,1.28,.11,.98,.81,1.86,1.75,2.78,2.63,.46,.44,.52,.8-.01,1.29-3.25,2.98-7.02,5.11-11.03,6.85-1.5,.65-3.02,1.23-4.55,1.85,.37,1.61,.85,3.14,1.06,4.7,.5,3.78-.06,7.36-2.72,10.3-2.54,2.81-7.48,3.43-10.85,1.67-5.2-2.71-5.6-7.89-3.87-12.47,.36-.96,.86-1.88,1.41-2.75,.55-.87,1.22-1.66,1.94-2.62-2.23-4.43-5.32-8.62-6.41-13.97-1.78,2.09-3.34,4.05-5.04,5.88-1.95,2.1-4.02,4.09-6.07,6.1-3.92,3.86-7.73,1.07-9.15-2.44-1.29-3.19-1.33-6.6-.95-9.92,.55-4.86,1.46-9.67,2.22-14.52-.62,.55-1.41,1.15-2.08,1.86-3.64,3.83-6.73,8.07-9.51,12.55-.96,1.55-2,3.09-3.22,4.43-3.05,3.37-8.12,1.9-9.85-2.17-1.18-2.77-1.02-5.68-.71-8.6,.03-.27,.03-.54,.04-.74-1.81,.26-3.59,.85-5.31,.69-1.91-.18-2.49,.93-3.35,2.11-2.65,3.66-5.85,6.68-10.35,7.91-4.65,1.27-8.85-.34-10.83-4.1-1.16-2.21-1.31-4.65-1.27-7.11,0-.51,.05-1.02,.08-1.8-1.45,1.65-2.63,3.2-4.03,4.52-1.87,1.77-3.74,3.63-5.92,4.95-2.9,1.76-7.5,.05-9.11-2.94-1.52-2.83-1.83-5.82-1.42-8.94,.13-1.04,.12-2.11,.18-3.39-1.17,1.61-2.22,3.03-3.24,4.48-3,4.27-5.98,8.55-8.99,12.82-1.09,1.55-2.55,2.47-4.51,2.52-2.4,.07-4.81,.16-7.02-1.04-2.78-1.5-3.92-4.13-4.59-6.98-1.31-5.6-.83-11.26-.38-16.91,.04-.47,0-.95-.22-1.55-.25,.35-.53,.68-.74,1.05-1.35,2.26-2.56,4.61-4.07,6.76-1.85,2.63-4.3,4.25-7.76,3.54-3.39-.7-5.78-3.33-6.35-6.95-.58-3.73-.2-7.39,.61-11.03,.04-.19,.09-.39,.12-.58,.01-.07-.03-.15-.06-.33-1.81,1.67-3.54,3.35-5.36,4.92-3.23,2.8-6.4,5.7-10.22,7.69-1.86,.97-3.71,1.99-5.94,2.03-3.42,.06-6.49-1.83-7.72-5.01-.76-1.98-1.37-4.01-.93-6.39-2.11,1.53-4.05,2.95-6,4.37,.66,1.32,1.37,2.61,1.96,3.95,1.34,3.08,1.56,6.27,.49,9.47-1.43,4.26-6.31,6.73-10.7,5.73-4.64-1.06-6.77-4.66-6.83-9.28-.03-2.45,.51-4.78,1.71-6.88,.55-.96,.29-1.45-.34-2.15-2.25-2.53-4.48-5.1-6.64-7.71-.75-.91-1.26-2.01-2.01-3.24-.69,1.41-1.3,2.68-1.92,3.94-2.13,4.31-4.62,8.4-7.64,12.14-2.97,3.68-7.76,4.3-11.11,1.42-2-1.72-2.89-4.11-3.23-6.65-.34-2.55-.48-5.13-.73-7.9-.89,1.41-1.71,2.7-2.52,4-3.27,5.25-6.55,10.49-9.78,15.76-1.87,3.05-4.81,3.86-8.09,4.05-.32,.02-.64,0-.96,0-3.67,.17-5.67-1.03-7.11-4.44-1.61-3.8-2.2-7.82-2.42-11.9-.05-.95,0-1.91,0-2.87-.12-.02-.23-.04-.35-.05Zm-108.06-15.83c1.12-1.29,2.13-2.35,3.03-3.5,3.86-4.9,6.8-10.2,7.15-16.62,.09-1.66-.78-3.23-2.29-3.82-1.97-.77-4.09-.97-6.11-.62-2.25,.39-4.43,1.23-6.63,1.9-.81,.25-1.03,.66-.54,1.5,1.58,2.67,2.48,5.59,3.06,8.62,.78,4.06,1.51,8.13,2.33,12.55Zm90.3-8.71c-2.83,.25-5.18,.96-7.21,2.46-5.67,4.17-9.48,9.65-11.22,16.48-.38,1.49-.53,3.07-.56,4.62-.01,.76,.29,1.88,.83,2.18,.45,.26,1.63-.22,2.16-.72,1.38-1.31,2.78-2.69,3.81-4.27,2.6-3.97,5.06-8.04,7.48-12.12,1.62-2.74,3.06-5.57,4.72-8.62Zm133.32,5.2c-2.79-.2-5.71,.43-7.51,1.4-4.66,2.52-8.5,5.9-11.3,10.44-1.67,2.71-3.03,5.53-3.3,8.74-.06,.7,.04,1.76,.47,2.06,.43,.3,1.38-.14,2.1-.26,.07-.01,.14-.08,.2-.13,1.8-1.57,3.75-2.99,5.36-4.73,2.67-2.9,5.18-5.96,7.64-9.05,2.15-2.7,4.14-5.52,6.34-8.47Zm-87.72-30.49c-4.91,3.69-14.15,22.85-13.33,27.46,7.98-7.38,13.08-16.14,13.33-27.46Zm174.09,47.25c-1.31,1.55-2.57,2.97-3.75,4.46-.37,.47-.78,1.18-.69,1.69,.4,2.25,1.71,4,3.52,5.35,.18,.14,.92-.06,1-.25,.98-2.53,1.79-5.12,1.68-7.87-.05-1.35-.49-2.66-1.77-3.38Zm-267.9-2.57c1.86-2.76,3.4-5.45,4.06-8.52,.23-1.1,.16-2.28,.08-3.41-.03-.39-.44-.97-.78-1.06-.33-.09-.89,.25-1.19,.56-.41,.41-.77,.93-1,1.48-1.43,3.45-1.82,7.03-1.16,10.96Zm264.33,20.58c-1.69-1.22-3.3-2.37-5.01-3.6-.97,2.38-1.7,4.71-1.6,7.23,.06,1.39,.86,1.77,2.1,1.11,2.01-1.09,3.27-2.85,4.51-4.74Zm68.4,29.37c-.47,.73-.77,1.1-.96,1.51-.63,1.35-.5,2.58,.36,3.3,.25,.21,.73,.46,.92,.35,.27-.16,.55-.64,.51-.94-.19-1.31-.49-2.6-.83-4.23Zm-197.13-35.21c-.96,2.29-.82,3.88,.29,4.62,.34,.23,.92,.33,1.28,.19,.2-.07,.34-.83,.21-1.15-.47-1.15-1.08-2.25-1.77-3.66Z" style="fill:#ffff;"/><path d="M113.12,99.44c-.48-2.04-.93-4.08-1.45-6.11-1.51-5.9-3.03-11.79-4.58-17.68-1.28-4.85-2.76-9.65-3.85-14.54-1.02-4.57-1.67-9.22-2.42-13.84-.25-1.57-.35-3.17-.43-4.76-.14-2.78,1.1-4.53,3.73-5.23,.43-.11,1.03,.08,1.45,.31,1.93,1.08,2.34,2.98,2.62,4.97,.59,4.09,.99,8.22,1.89,12.25,1.72,7.66,3.69,15.26,5.64,22.86,1.81,7.07,3.8,14.09,5.58,21.16,.88,3.5,1.52,7.06,2.14,10.62,.25,1.44,.25,2.95,.14,4.41-.27,3.87-4.82,6.61-8.39,5.18-3.45-1.38-5.76-4.09-8-6.84-4.07-4.99-7.24-10.58-10.43-16.14-.4-.7-.7-1.46-1.29-2.13,.12,1.6,.24,3.2,.37,4.8,.32,3.92,.19,7.76-1.08,11.56-1.85,5.52-6.62,7.43-11.81,5.34-2.73-1.1-5.21-2.58-7.15-4.88-.65-.77-.53-1.2,.31-1.67,.87-.49,1.72-1.02,2.5-1.64,.82-.66,1.43-.48,2.22,.1,1.27,.94,2.55,1.92,3.98,2.55,2.22,.98,3.76,.09,3.98-2.33,.19-2.01,.29-4.11-.08-6.07-.92-4.91-1.94-9.81-3.26-14.63-1.34-4.87-3.06-9.63-4.67-14.42-1.09-3.25-2.26-6.47-3.4-9.71-.08-.21-.18-.42-.44-1-1.09,2.24-2.03,4.19-2.98,6.14-1.44,2.95-.95,2.36-3.7,2.11-1.47-.13-2.91-.5-4.38-.57-1.27-.05-1.52-.7-1.54-1.76-.06-2.79,.74-5.38,1.88-7.85,2.63-5.68,6.43-10.33,12.05-13.34,3.6-1.93,7.4-3.18,11.51-3.18,2.61,0,5.09,.53,6.86,2.75,1.36,1.7,.91,4.9-.84,6.17-2.1,1.53-4.44,2.3-6.95,2.32,7.97,14.98,15.92,29.92,23.87,44.87,.14-.06,.29-.11,.43-.17Z" style="fill:#ffff;"/><path d="M149.12,78.09c2.07-1.43,3.55-3.09,4.34-5.31,.21-.58,.35-1.25,1.24-.83,0-1.97-.12-3.87,.03-5.76,.27-3.52,1.96-6.45,4.2-9.07,2.41-2.81,5.12-5.33,8.62-6.65,3.68-1.39,7.46-1.86,10.9,.81,1.41,1.1,2.16,3.61,1.63,5.32-.35,1.11-1.25,1.44-2.24,1.74-2.05,.63-4.21,1.06-6.08,2.05-2.52,1.33-4.39,3.41-5.03,6.36-.57,2.66,.17,4.89,2.33,6.47,2.53,1.85,5.21,3.51,8.1,5.44,2.39-2.96,4.72-5.72,6.91-8.6,.96-1.26,1.64-2.74,2.37-4.15,.32-.6,.59-.83,1.29-.56,1.12,.42,2.26,.8,3.43,1.05,1.03,.22,1.12,.77,.73,1.54-1.21,2.38-2.28,4.85-3.73,7.07-1.54,2.36-3.45,4.48-5.2,6.7-.19,.25-.37,.51-.45,.62,1.44,1.92,3,3.66,4.16,5.63,1.65,2.79,2.21,5.87,1.15,9.04-1.03,3.06-3.37,4.82-6.37,5.58-2.61,.66-5.23,.57-7.53-1.16-1.87-1.41-2.87-3.37-3.53-5.55-.75-2.5-.83-5.01,0-7.52,.34-1.05-.56-1.31-1.15-1.66-3.62-2.17-7.34-4.2-10.23-7.38-.34-.38-.68-.77-1.07-1.2-.83,1.2-1.62,2.37-2.45,3.51-1.5,2.04-3.44,3.5-5.85,4.35-.35,.13-.71,.69-.78,1.11-.74,4.17-1.87,8.17-4.61,11.54-1.88,2.3-4.24,3.93-7.13,4.51-3.57,.72-7.21-1.41-9.13-4.96-2.12-3.92-3.67-8-3.92-12.51-.13-2.45-.3-4.91-.53-7.35-.07-.73-.37-1.45-.61-2.16-1.17-3.47-.87-6.69,1.3-9.75,2.51-3.55,5.79-5.83,10.07-6.68,4.1-.81,7.23,.85,9.85,3.81,2.46,2.78,3.54,6.17,4.17,9.74,.28,1.56,.52,3.12,.8,4.84Zm-7.84,1.98c.07-.25,.16-.4,.14-.54-.34-2.15-.48-4.37-1.12-6.43-.55-1.78-1.5-3.56-3.82-3.84-.48,2.31-.98,4.57-1.41,6.85-.06,.31,.16,.76,.39,1.03,1.5,1.74,3.45,2.6,5.81,2.93Zm-6.26,6.05c.15,2.61,.47,5.04,1.69,7.24,.57,1.05,1.4,1.08,2.18,.17,1.59-1.85,1.68-4.21,2.23-6.47-2.02-.31-3.97-.61-6.1-.94Zm41.09,5.37c-.8,1.77,.03,4.2,1.59,4.24,.34,.01,.89-.01,.97-.18,.13-.31,.12-.84-.08-1.1-.73-.98-1.56-1.88-2.48-2.96Z" style="fill:#ffff;"/><path d="M516.59,31.48c-.24,2.23-.67,4.77-2.05,7.03-1.72,2.82-3.76,2.35-5.89,.67-1.52-1.2-2.47-2.77-2.79-4.71-.26-1.56-.67-3.1-.88-4.67-.06-.48,.18-1.2,.54-1.49,.76-.62,.87-1.34,.88-2.22,0-1.15,.01-2.32,.2-3.45,.45-2.75,2.24-3.19,4.57-2.03,1.61,.8,2.66,2.17,3.44,3.71,1.09,2.14,1.92,4.37,1.98,7.18Z" style="fill:#ffff;"/><path d="M276.72,20.87c-.2,.51-.5,1.46-.95,2.33-2.26,4.41-5.81,7.68-9.65,10.64-1.57,1.21-3.32,2.19-5.06,3.15-.58,.32-1.47,.5-2.04,.27-.6-.24-1.17-.96-1.39-1.6-.3-.89,.37-1.53,1.08-2.07,1.97-1.48,4.02-2.88,5.85-4.52,3.06-2.74,5.47-5.99,7.01-9.84,.6-1.49,1.28-1.93,2.47-1.69,1.79,.37,2.71,1.34,2.67,3.31Z" style="fill:#ffff;"/></svg>