<?xml version="1.0" encoding="UTF-8"?><svg id="a" xmlns="http://www.w3.org/2000/svg" viewBox="0 0 692.16 129.84"><defs><style>.b{fill:#fff;}</style></defs><path d="M399.59,0c.15,.18,.27,.43,.47,.51,3.28,1.45,4.86,4.33,6.21,7.4,1.74,3.95,1.29,7.93-.06,11.85-.7,2.02-2.74,3.3-5.07,2.16-2.26-1.11-3.97-2.52-4.73-5.01-.47-1.55-1.24-3.01-1.7-4.57-.32-1.08-.55-2.27,.6-3.17,.21-.17,.27-.65,.25-.98-.05-1.19-.15-2.39-.26-3.57-.17-1.8,.16-3.41,1.65-4.62,.88,0,1.76,0,2.64,0Z" style="fill:#ffff;"/><path d="M427,44.18c-3.25,5.93-6.5,11.67-9.58,17.51-2.67,5.06-5.63,9.9-9.25,14.34-4.37,5.36-11.85,3.51-14.14-1.84-1.5-3.49-1.78-7.06-1.84-10.73-.02-1.04,0-2.07,0-3.18-1.13,.55-2.19,1.17-3.32,1.59-1.04,.39-2.14,.72-3.24,.79-.97,.06-1.31,.55-1.59,1.29-1.42,3.9-3.66,7.25-6.8,9.97-2.35,2.03-5.03,3.3-8.17,3.58-3.96,.36-6.79-1.49-8.53-4.8-1.02-1.93-1.6-4.17-1.96-6.35-.41-2.51-.36-5.09-.51-7.64,0-.15-.06-.3-.07-.36h-5.69c-.64,2.42-1.2,4.98-1.99,7.47-1.22,3.85-2.65,7.61-5.6,10.56-4.86,4.84-12.36,4.38-16.6-1.05-1.88-2.41-2.86-5.21-3.59-8.12-.39-1.57-.74-3.16-1.18-5.08-.77,2.07-1.33,3.9-2.11,5.62-.62,1.36-1.35,2.75-2.33,3.87-4.26,4.88-10.91,2.8-13.41-2.19-1.51-3.01-2.01-6.28-2.04-9.63-.02-1.67,0-3.35,0-5.27-.31,.36-.54,.59-.73,.84-3.65,4.87-7.48,9.59-11.94,13.73-1.85,1.72-3.98,3.26-6.23,4.41-4.19,2.15-9.9,.87-12.32-5.1-1.59-3.91-1.74-7.94-1.11-12.08,1-6.59,3.59-12.49,7.63-17.72,4.18-5.42,9.32-9.71,16.04-11.56,4.18-1.15,8.39-.89,12.33,1.28,.48,.27,1.15,.21,1.73,.29,.79,.11,1.66,.03,2.35,.35,1.85,.83,3.71,1.7,5.4,2.8,1.95,1.27,2.78,3.16,2.39,5.58-.68,4.18-1.3,8.37-1.86,12.56-.42,3.13-.71,6.27-1.05,9.4-.03,.29,.04,.6,.29,.98,.93-1.6,1.87-3.18,2.78-4.79,1.1-1.95,2.18-3.91,3.23-5.89,.21-.4,.27-.9,.34-1.36,.28-1.77,.41-3.58,.84-5.31,.48-1.95,1.47-2.33,3.29-1.45,3.02,1.46,6.03,2.95,8.99,4.52,.45,.24,.87,.99,.9,1.52,.12,2.39,.13,4.8,.11,7.19-.04,3.92-.07,7.84,1.04,11.65,.13,.45,.32,.89,.52,1.43,1.68-1.51,2.68-3.37,3.52-5.29,.97-2.22,1.76-4.53,2.64-6.79,.24-.62,.18-1.04-.37-1.55-3.89-3.61-5.83-8.16-6.55-13.37-.55-4.01-.34-7.98,.42-11.91,.3-1.56,1-3.14,1.88-4.47,2.19-3.35,8.21-4.34,11.09,.63,1.71,2.95,2.22,6.21,2.6,9.52,.61,5.27,.21,10.53-.19,15.79-.09,1.24,.31,1.78,1.6,1.7,1.88-.12,3.42-1.11,4.24-2.73,.58-1.16,.98-2.65,.82-3.9-.98-7.52,3.59-11.99,9.49-14.15,3.82-1.4,7.81-1.57,11.6,.38,3.39,1.75,5.03,4.84,5.92,8.34,1.07,4.2,.98,8.46,.08,12.71-.08,.37-.07,.77-.12,1.27,2.42-.84,4.39-2.06,5.86-4,.19-.25,.37-.55,.42-.85,.34-2.28,.71-4.56,.96-6.85,.24-2.18,.29-4.38,.53-6.56,.17-1.53,1.12-2.55,2.58-3.01,2.59-.82,7.69-.29,9.78,2.8,1.65,2.45,1.5,5,.91,7.69-.67,2.99-1.25,6-1.82,9.01-.64,3.4-1.26,6.81-1.8,10.23-.16,.99-.02,2.03-.02,3.34,.81-.9,1.52-1.58,2.1-2.36,2.99-4.04,6.12-7.99,8.86-12.19,1.52-2.33,2.27-5.15,3.54-7.67,.83-1.64,.39-2.51-.96-3.64-2.99-2.5-4.93-5.78-5.51-9.66-.87-5.87,1.97-10.16,8.02-11.02,2.1-.3,4.3-.29,6.41-.08,4.13,.41,5.91,3.39,5.25,7.54-.36,2.27-.96,4.51-1.5,6.95,1.7,.46,3.45,.94,5.21,1.39,3.72,.94,6.18,3.37,7.8,6.7,1.96,4.05,1.53,8.33,.89,12.57-.41,2.76-.99,5.49-1.52,8.23-.14,.72-.33,1.43-.34,2.19,.88-1.41,1.74-2.83,2.65-4.22,1.57-2.4,3.2-4.76,4.74-7.18,.55-.86,1.09-.88,1.86-.36,1.12,.76,2.25,1.51,3.41,2.21,.64,.39,.64,.8,.33,1.39-2.26,4.34-4.46,8.71-6.77,13.02-1.84,3.43-4.11,6.4-7.98,7.89-3.44,1.33-7.4-.45-8.12-4.46-.45-2.48-.3-5.07-.3-7.61,0-3.39,.24-6.78,.13-10.16-.07-2.04-.59-4.07-.94-6.1-.47-2.74-2.42-4.08-4.71-5.03Zm-124.67-5.58c-3.29,.21-5.95,1.33-8.31,3.11-6.15,4.64-10.11,10.76-12.04,18.2-.53,2.06-.74,4.16-.24,6.25,.33,1.4,1.05,1.74,2.22,.88,1.3-.95,2.54-2.06,3.55-3.31,4.31-5.33,7.45-11.41,10.78-17.36,1.39-2.48,2.63-5.05,4.04-7.76Zm74.03,2.68c-1.06,1.89-2.04,3.65-3.04,5.39-.69,1.2-.98,2.41,.06,3.52,1.08,1.15,2.22,2.25,3.41,3.29,.4,.35,1.02,.47,1.65,.75,.66-3.42,1.19-6.61,.48-9.83-.32-1.44-1.22-2.57-2.55-3.12Zm-6.47,17.46c-.55,2.75-.77,5.4-.24,8.04,.33,1.68,1.29,1.95,2.67,.87,2.03-1.6,2.77-3.95,3.69-6.13-2.07-.94-4-1.82-6.11-2.78Zm53.77-33.27c-1.18,.75-1.36,1.9-1.5,3.02-.12,.91,.2,1.69,1.19,2.19,.12-1.75,1.53-3.31,.31-5.21Zm-77.44,10.22c-.15,.02-.31,.03-.46,.05,.19,1.55,.37,3.09,.56,4.64,.15-.02,.3-.03,.44-.05-.18-1.55-.36-3.09-.54-4.64Z" style="fill:#ffff;"/><path d="M107.32,53.41c1.56-1.78,3.12-3.57,4.69-5.35,.88-.99,1.34-2.52,2.86-2.7,1.72-.2,3-1.02,4.24-2.14,.38-.34,1.21-.15,1.82-.26,.38-.07,.87-.16,1.08-.43,2.06-2.65,4.83-4.14,8.03-4.79,1.57-.32,3.23-.37,4.83-.27,2.61,.16,4.43,2.45,4.71,5.1,.24,2.24,.21,4.5,.31,6.75,.02,.39,.13,.78,.19,1.16,2.42,.11,4.81,.06,7.17,.35,4.22,.52,7.06,3.06,9.09,6.64,1.9,3.36,2.28,7.07,2.52,10.82,.15,2.46,.45,4.91,.65,7.37,.05,.63,0,1.28,.17,1.94,.63-2.04,1.19-4.1,1.91-6.11,1.24-3.46,1.77-7.09,2.61-10.64,1.36-5.75,4.38-10.55,8.79-14.51,2.6-2.33,5.52-4.03,8.86-5.01,2.78-.81,6.79-.63,8.83,2.25,1.63,2.3,1.92,4.93,1.55,7.68-.6,4.5-2.4,8.6-4.45,12.57-2.24,4.36-4.73,8.59-7.13,12.92,2.03,1.89,6.41,2.17,8.49-.41,1.77-2.18,3.47-4.49,4.8-6.96,1.75-3.26,3.17-6.7,4.62-10.11,.44-1.03,.98-1.09,1.86-.77,1.08,.4,2.17,.81,3.27,1.13,.99,.29,1.26,.82,.88,1.78-1.06,2.71-2.02,5.47-3.15,8.15-1.22,2.9-2.55,5.76-3.92,8.6-1.46,3.02-3.45,5.67-5.94,7.91-2.8,2.52-6.1,3.56-9.89,3.47-3.31-.08-6.39-.8-8.98-2.81-1.74-1.35-3.17-3.11-4.73-4.7-.32-.33-.59-.72-.91-1.12-.64,1.65-1.16,3.23-1.85,4.73-1.05,2.27-2.74,4.06-4.92,5.24-3.29,1.77-7.14,.23-8.46-3.43-.77-2.12-1.23-4.36-1.81-6.55-1.05-4-1.98-8.04-3.19-11.99-.49-1.6-1.48-3.08-2.4-4.51-1.22-1.88-2.95-2.69-5.42-2.75-.25,1.15-.52,2.32-.75,3.51-.61,3.09-1.54,6.06-2.68,9.02-1.28,3.29-2.02,6.8-2.92,10.23-1.4,5.36-2.72,10.74-4.1,16.11-.58,2.27-1.2,4.53-1.82,6.79-.5,1.79-1.69,3.02-3.4,3.57-2.07,.67-4.18,1.35-6.32,1.63-2.7,.35-4.87-1.05-6.68-2.91-2.97-3.06-4.72-6.87-6.16-10.8-1.4-3.8-2.55-7.68-3.88-11.7-.74,.82-1.29,1.69-2.06,2.23-1.66,1.14-3.45,2.08-5.15,3.16-.29,.19-.54,.63-.59,.99-.64,4.34-1.67,8.53-4.22,12.21-1.93,2.79-4.46,4.75-7.68,5.8-3.29,1.07-7.29-.3-9.66-3.45-3.11-4.13-4.8-8.9-5.58-13.96-.43-2.78-.54-5.61-.88-8.41-.19-1.56-.38-3.14-.85-4.63-1.43-4.5-.07-8.27,2.85-11.63,2.82-3.24,6.37-5.25,10.69-5.76,3.55-.42,6.59,.65,9.12,3.18,3.26,3.26,4.76,7.35,5.57,11.76,.3,1.64,.5,3.29,.79,5.26,.97-.8,1.86-1.39,2.56-2.15,.69-.76,1.21-1.68,1.78-2.55,.81-1.23,.63-2.53,.31-3.88-.74-3.14-1.41-6.3-2.04-9.46-.14-.68-.37-1.06-1.06-1.24-.45-.12-.88-.38-1.3-.61-2.22-1.22-2.51-2.4-.63-3.99,1.73-1.46,1.33-3.05,1.04-4.85-.63-3.93-1.15-7.89-1.67-11.84-.35-2.68-.58-5.38-.94-8.06-.35-2.61,.24-3.61,3.2-4.48,2.16-.63,4.39-1.08,6.62-1.44,2.32-.38,3.71,.64,4.01,2.99,.34,2.64,.46,5.3,.7,7.96,.14,1.55,.3,3.09,.5,4.64,.36,2.75,.76,5.5,1.14,8.25,.14,.09,.27,.18,.41,.27Zm10.67,44.58c1.28-2.51,2.51-4.61,3.47-6.83,2.18-5.05,4.25-10.15,6.31-15.25,.95-2.36,1.96-4.72,2.6-7.16,.61-2.33,.8-4.77,1.08-7.17,.05-.4-.29-1.09-.63-1.24-2.87-1.21-5.32-2.99-7.34-5.36-3.4,3.67-4.63,5.88-14.73,9.28,2.49,11.26,4.49,22.67,9.23,33.72Zm-39.2-23.64c-.52,2.17-1.06,4.2-1.48,6.25-.19,.91-.38,1.86,.45,2.69,1.43,1.42,3.13,2.32,5.05,2.83,1.36,.36,1.62,.08,1.42-1.31-.05-.31-.02-.64-.04-.96-.22-2.6-.71-5.14-2.13-7.39-.8-1.26-1.89-2.13-3.26-2.12Zm5.51,19.63c-2.53-.39-4.73-.73-7.03-1.08,.04,2.75,.57,5.3,1.73,7.69,.27,.55,1,1.36,1.35,1.29,.67-.14,1.53-.72,1.77-1.33,.85-2.12,1.46-4.34,2.18-6.56Zm92.64-24.72c.26-.3,.42-.42,.5-.58,1.56-3.01,3.15-6.02,3.55-9.46,.12-1.02,.12-2.09-.09-3.09-.12-.55-.71-1.17-1.24-1.38-.3-.12-1.1,.43-1.33,.86-.54,1-.99,2.09-1.27,3.19-.86,3.39-.59,6.81-.12,10.46Zm-45.67-25.14c-1.08,.84-.91,2.05-.82,3.04,.09,.91,.5,1.93,1.87,2.11-.24-1.73,.31-3.48-1.05-5.16Z" style="fill:#ffff;"/><path d="M642.44,101.02c2.99-3.15,5.8-6.01,8.47-8.99,1.1-1.23,1.79-2.83,2.85-4.11,4.21-5.08,9.51-8.41,16.02-9.75,3.09-.64,6.17-.9,9.26-.18,5.99,1.39,8.33,6.15,5.45,11.61-2.14,4.06-5.41,7.19-9.02,9.9-4.1,3.08-8.37,5.94-12.56,8.91-.35,.25-.68,.53-1.01,.79,1.29,2.82,5.04,4.99,9.18,2.97,4.38-2.14,8.22-5.02,11.77-8.32,1.11-1.03,2.31-1.96,3.44-2.97,.52-.47,.93-.5,1.43,0,1.02,1.01,2.08,1.98,3.12,2.96,.55,.52,.54,.99-.04,1.51-4.56,4.05-9.03,8.2-13.68,12.14-3.07,2.6-6.65,4.37-10.65,5.16-5.5,1.08-9.93-1.03-13.68-4.82-2.87-2.9-4.06-6.62-4.71-10.55-.02-.15-.06-.29-.1-.44-1.33,1.25-2.56,2.54-3.93,3.66-1.83,1.5-3.99,2.35-6.37,2.49-3.71,.22-6.55-2.33-6.29-6.02,.22-3.07,.9-6.13,1.58-9.14,1.15-5.06,2.3-10.1,1.64-15.35-.31-2.42-1.87-3.81-3.66-4.87-4.15,4.96-8.22,9.81-12.28,14.66-2.07,2.47-4.01,5.06-6.24,7.38-2.12,2.2-4.37,4.35-6.85,6.12-5.06,3.61-12.51,.63-13.09-6.45-.21-2.56-.03-5.14-.03-7.64-.66,.97-1.37,2.17-2.22,3.27-1.98,2.55-4.5,4.16-7.84,4.13-3.55-.04-7.07-3.28-7.64-6.8-.75-4.57-.08-8.96,1.38-13.28,.2-.59,.34-1.2,.55-1.96-1.86,1.38-3.62,2.69-5.37,4.01-4.42,3.32-8.98,6.4-14.08,8.59-2.62,1.12-5.29,1.88-8.23,.96-2.72-.85-4.59-2.51-5.59-5.13-1.63-4.27-.95-8.46,.45-12.64,1.83-5.45,5.04-10.04,9.01-14.08,4.25-4.32,9.23-7.53,15.09-9.37,4.56-1.43,9.05-1.58,13.44,.23,1.94,.8,3.6,2.28,5.39,3.46,.23,.15,.45,.47,.66,.45,1.7-.16,3.04,.73,4.17,1.73,1.54,1.35,2.91,2.9,4.23,4.48,1.21,1.44,.79,3.06,.13,4.63-1.56,3.7-3.14,7.4-4.64,11.12-1.41,3.49-2.73,7.02-3.87,10.7,.79-.78,1.59-1.54,2.35-2.35,2.23-2.34,4.62-4.55,6.58-7.09,1.07-1.39,1.48-3.32,2.01-5.06,.81-2.65,1.48-5.35,2.21-8.04,.44-1.62,1.58-2.49,3.16-2.69,3.06-.38,5.79,.49,8.02,2.61,1.89,1.79,2.3,4.13,1.56,6.52-.74,2.38-1.79,4.67-2.69,7-1.17,3.04-2.36,6.08-3.47,9.15-.84,2.32-1.59,4.67-2.37,7.01-.1,.29-.09,.61-.19,1.3,1.57-1.2,2.96-2.11,4.17-3.21,3.02-2.73,6.11-5.39,8.87-8.37,2.03-2.19,3.68-4.77,5.32-7.29,1.36-2.1,1.2-2.14-.31-4.18-3.25-4.37-4.4-9.18-2.62-14.44,.9-2.68,3-4.21,5.66-4.86,3.78-.92,7.54-.4,10.93,1.33,3.25,1.66,3.79,4.47,2.63,7.66-.73,2.01-1.7,3.94-2.58,5.9-.32,.7-.09,1.06,.59,1.38,1.86,.88,3.78,1.7,5.51,2.8,4.18,2.66,5.71,6.69,5.51,11.49-.14,3.4-1.23,6.55-2.57,9.65-1,2.33-1.78,4.75-2.67,7.13-.15,.4-.36,.78-.68,1.48Zm-63.12-39.56c-.85-.12-1.46-.24-2.07-.28-3.29-.2-6.33,.7-9.19,2.21-6.55,3.47-11.48,8.52-14.47,15.34-.61,1.39-.86,2.98-1.03,4.5-.12,1.02,.67,1.53,1.67,1.24,.8-.23,1.65-.5,2.29-1,2.89-2.25,5.84-4.45,8.51-6.94,3.43-3.21,6.64-6.66,9.89-10.06,1.48-1.54,2.82-3.21,4.4-5.01Zm82.32,39.37l.49,.41c2.05-1.85,4.16-3.65,6.14-5.58,1.4-1.36,2.62-2.93,2.93-4.95,.08-.52-.05-1.3-.4-1.6-.33-.27-1.16-.25-1.6-.03-1.93,.99-3.29,2.65-4.26,4.52-1.22,2.34-2.2,4.81-3.29,7.22Zm-30.46-42.26c-2.16,.7-2.83,3.45-1.21,5.22,.38-1.79,1.94-3.2,1.21-5.22Z" style="fill:#ffff;"/><path d="M34.8,101.35c.15,1.85,.29,3.7,.45,5.55,.31,3.82,.36,7.62-.77,11.35-.7,2.32-1.59,4.55-3.5,6.16-2.13,1.79-4.66,2.28-7.3,1.73-4.22-.88-7.77-3.01-10.61-6.3-.61-.7-.37-1.1,.3-1.52,1.05-.65,2.14-1.26,3.1-2.03,.89-.72,1.45-.29,2.18,.23,1.45,1.02,2.9,2.13,4.51,2.85,2.37,1.06,4.06,.07,4.34-2.54,.23-2.17,.33-4.42-.02-6.55-.67-4.11-1.58-8.19-2.63-12.22-1.28-4.92-2.72-9.8-4.26-14.64-1.1-3.45-2.5-6.79-3.73-10.2-.82-2.29-1.56-4.6-2.46-7.26-.92,1.75-1.74,3.26-2.5,4.79-.63,1.25-1.13,2.56-1.82,3.77-.21,.37-.86,.73-1.28,.7-2.42-.2-4.84-.49-7.25-.8-.91-.12-1.05-.89-1.08-1.63-.1-2.81,.63-5.47,1.7-8.02,1.83-4.35,4.29-8.3,7.8-11.5,2.76-2.51,5.86-4.45,9.41-5.77,2.83-1.05,5.69-1.75,8.69-1.79,2.21-.03,4.39,.32,6.3,1.57,2.34,1.52,3.28,5.14,1.53,7.28-1.02,1.24-2.72,2.05-4.26,2.7-1.39,.59-2.98,.69-4.31,.98,8.86,16.54,17.75,33.13,26.64,49.71,.16-.06,.32-.13,.48-.19-.55-2.37-1.06-4.74-1.64-7.1-.87-3.55-1.74-7.11-2.71-10.64-1.75-6.37-3.63-12.7-5.35-19.08-.82-3.03-1.42-6.12-2.1-9.19-.53-2.41-1.17-4.8-1.52-7.24-.5-3.55-.9-7.12-1.09-10.7-.14-2.68,1.35-4.45,3.97-5.1,.52-.13,1.26,.14,1.76,.46,1.77,1.11,2.35,2.92,2.65,4.86,.6,3.81,1.17,7.63,1.81,11.44,1.83,11,5.09,21.65,7.97,32.4,1.7,6.35,3.52,12.68,5.13,19.06,.96,3.81,1.64,7.69,2.38,11.55,.2,1.05,.19,2.14,.28,3.21,.26,3.14-1.24,5.34-3.76,6.95-2.19,1.41-4.44,1.28-6.69,.09-2.74-1.45-4.8-3.66-6.78-5.97-4.57-5.31-8.05-11.35-11.6-17.34-.78-1.32-1.41-2.73-2.11-4.1-.1,.02-.19,.04-.29,.06Z" style="fill:#ffff;"/><path d="M256.17,27.13c-.82-.73-1.58-1.44-2.38-2.09-.64-.51-.65-.98-.17-1.62,1.71-2.3,3.03-4.8,3.64-7.62,.13-.62-.02-1.31-.04-1.96-.68,.05-1.51-.13-2.03,.19-2.38,1.45-4.87,2.8-6.95,4.62-3.42,3-6.53,6.34-9.79,9.51-2.02,1.96-1.79,4.33-1.16,6.69,.91,3.4,3.23,5.9,5.95,7.89,5.54,4.06,11.22,7.93,16.84,11.88,4.39,3.09,7.78,7.01,9.56,12.11,2.41,6.9-.05,14.45-5.89,18.93-3.43,2.64-7.15,4.67-11.32,5.81-6,1.64-12.06,1.96-18.08,.22-4.22-1.22-7.82-3.44-10.76-6.83-1.88-2.18-3.17-4.67-3.54-7.33-.62-4.4-.57-8.89,2.67-12.56,1.82-2.06,4.35-2.91,6.83-3.8,.7-.25,1.3,.49,1.22,1.44-.13,1.71-.29,3.41-.41,5.12-.17,2.49,.08,4.95,1.06,7.26,.75,1.74,2.14,2.98,3.84,3.78,3.1,1.46,6.38,1.59,9.72,1.12,3.33-.47,6.44-1.52,9.17-3.53,.7-.51,1.34-1.14,1.88-1.82,1.33-1.7,1.22-3.7-.13-5.39-1.92-2.4-4.31-4.25-6.83-5.93-4.42-2.95-8.97-5.7-13.28-8.8-4.16-2.98-8.02-6.39-10.48-11.01-2.61-4.9-3.11-10.11-2.02-15.57,1.16-5.82,4.27-10.38,8.42-14.43,4.13-4.03,8.89-6.99,14.31-8.89,3.89-1.37,7.88-2,11.99-1.37,4.73,.72,8.05,4.46,7.83,8.93-.15,2.96-1.42,5.59-3.14,7.9-1.71,2.3-3.71,4.38-5.61,6.54-.22,.25-.58,.39-.92,.6Z" style="fill:#ffff;"/><path d="M533.43,30.41c-1.04,8.09-2.06,15.98-3.08,23.93,1.21,.26,2.59,.58,3.98,.84,3.32,.62,6.49,1.67,9.34,3.48,1.82,1.16,3.59,2.49,3.32,5.1-.24,2.31-3.45,5.51-5.77,5.52-1,0-2.02-.36-3-.66-3.12-.95-6.23-1.94-9.33-2.94-.82-.27-1.21-.11-1.44,.8-1.13,4.48-2.22,8.97-3.55,13.4-.97,3.26-2.22,6.43-3.47,9.6-.76,1.95-4.01,3.28-6.01,2.48-1.16-.47-2.32-1.1-3.28-1.9-1.52-1.27-2.53-2.94-2.29-5.02,.39-3.39,.71-6.81,1.43-10.14,.62-2.87,1.74-5.64,2.63-8.45,.09-.3,.15-.6-.08-.7-.83-.85-1.69-1.67-2.47-2.56-.6-.69-1.02-1.55-1.67-2.18-.89-.85-.67-1.56,0-2.34,1.49-1.75,3.35-3.09,5.55-3.56,1.97-.41,2.32-1.73,2.67-3.24,.49-2.12,1.04-4.23,1.45-6.37,.55-2.86,.98-5.74,1.48-8.61,.18-1.02,.45-2.02,.59-3.04,.14-1.01,.24-2.05,.19-3.06-.01-.27-.68-.74-1.02-.72-2.9,.16-5.8,.36-8.69,.64-2.09,.2-4.18,.48-6.26,.83-2.12,.36-2.94,.02-3.91-1.85-1.28-2.44-2.55-4.88-3.88-7.29-.47-.85-.25-1.24,.55-1.66,2.25-1.18,4.6-1.99,7.11-2.31,3.87-.49,7.73-1.13,11.61-1.36,4.23-.25,8.49-.33,12.72-.1,5.83,.31,11.66,.88,17.47,1.52,4.66,.51,9.31,1.21,13.93,1.98,2.21,.37,4.47,.84,5.9,2.95,.6,.88,.81,1.71,.29,2.67-.44,.8-.87,1.61-1.36,2.39-.13,.21-.44,.39-.68,.43-1.23,.16-2.25,1.27-2.3,2.58-.01,.32,.02,.64,.03,.96,.05,.9-.42,1.37-1.28,1.37-.91,0-1.83-.03-2.72-.17-3.7-.58-7.39-1.22-11.1-1.8-2.63-.41-5.27-.78-7.92-1.07-1.93-.21-3.88-.26-5.66-.37Z" style="fill:#ffff;"/><path d="M469.47,50.77c4.27,.16,8.54,.22,12.8,.53,1.96,.14,3.93,.65,5.8,1.28,.77,.26,1.82,1.24,1.81,1.9,0,.87-.85,1.78-1.43,2.6-.4,.57-1.23,.94-1.41,1.53-.39,1.26-1.28,1.3-2.25,1.26-4.3-.19-8.61-.33-12.91-.64-4.01-.29-8.01-.72-12.01-1.19-.92-.11-1.86-.48-2.68-.93-.41-.22-.81-.9-.8-1.36,.01-1.19,.2-2.39,.44-3.56,.07-.33,.51-.78,.82-.82,1.93-.22,3.87-.41,5.81-.48,1.99-.08,3.99-.02,5.99-.02,0-.03,0-.07,0-.1Z" style="fill:#ffff;"/><path d="M617.62,40.31c-.19,3.61-.96,6.48-2.62,9.05-1.65,2.55-3.61,2.91-6.05,1.08-1.71-1.29-3.04-2.87-3.25-5.19-.14-1.54-.64-3.04-.82-4.58-.14-1.18,.11-2.23,1.06-3.25,.64-.69,.58-2.03,.79-3.1,.2-1.01,.22-2.07,.52-3.05,.69-2.27,2.33-2.92,4.48-1.91,2.62,1.24,3.98,3.52,4.8,6.12,.55,1.73,.81,3.55,1.09,4.82Z" style="fill:#ffff;"/></svg>