<?xml version="1.0" encoding="UTF-8"?><svg id="a" xmlns="http://www.w3.org/2000/svg" viewBox="0 0 691.2 129.12"><path d="M379.22,48.71c1.13-2.04,2.13-4.16,3.41-6.1,3.06-4.61,7.02-8.16,12.24-10.3,3.48-1.43,7.03-1.97,10.4-.48,2.51,1.1,5.33,1.37,7.59,2.96,1.25,.88,2.4,1.95,3.39,3.11,.43,.51,.59,1.51,.44,2.19-.79,3.6-1.77,7.17-2.59,10.77-.53,2.32-.89,4.67-1.12,7.15,.79-1.09,1.61-2.17,2.37-3.28,.75-1.08,1.49-2.18,2.14-3.32,.44-.78,.9-1.64,1.01-2.51,.72-5.41,2.01-10.7,3.8-15.84,1.97-5.64,4.41-11.09,8.54-15.58,3.26-3.54,7.14-5.79,12.11-5.71,3.45,.05,6.04,1.82,6.61,4.9,.24,1.3,.03,2.8-.38,4.09-.89,2.82-2.03,5.55-3.05,8.27,1.38-.36,2.73-.94,4.11-1,1.75-.08,3.6,.01,5.26,.5,2.5,.73,3.5,3.22,2.84,6.03-.4,1.69-.84,3.36-1.27,5.09,1.34,.45,2.56,.91,3.81,1.29,3.84,1.17,5.91,3.88,6.61,7.7,.58,3.15-.03,6.23-.75,9.29-.4,1.72-.71,3.47-.91,5.26,1.37-1.99,2.62-4.08,4.14-5.95,1.83-2.24,1.91-4.98,2.52-7.57,.35-1.47,.32-3.04,.73-4.48,.24-.83,.88-1.76,1.6-2.2,2.48-1.5,7.96,.08,8.63,3.54,.28,1.43,.12,3.03-.21,4.47-.55,2.43-1.45,4.77-2.1,7.18-.72,2.68-1.34,5.39-1.97,8.1-.13,.55-.14,1.14-.2,1.71,.1,.05,.2,.11,.3,.16,1.23-1.28,2.5-2.53,3.69-3.85,1.07-1.18,2.11-2.39,3.04-3.68,1.18-1.63,2.28-3.33,3.33-5.05,3.68-6,8.86-9.74,15.93-10.73,1.96-.28,3.83-.11,5.58,.8,1.99,1.03,2.81,2.87,2.74,4.97-.12,3.47-1.11,6.69-3.61,9.24-1.19,1.21-2.54,2.08-4.47,1.45-1.74-.56-3.18-2.98-2.72-4.75,.2-.76,.76-1.81-.29-2.22-1.09-.43-1.73,.64-2.25,1.38-1.53,2.17-2.43,4.61-2.76,7.24-.22,1.72-.59,3.48-.41,5.17,.39,3.62,4.26,5.78,7.42,4.11,3.07-1.63,5.44-4.07,7.59-6.67,2.48-2.99,4.5-6.37,7.04-9.31,4.3-4.99,9.77-8.2,16.39-8.86,3.44-.34,6.78,.51,9.56,2.86,.48,.41,1.19,.64,1.84,.76,2.14,.41,6.14,3.94,6.29,6.1,.09,1.37-.55,2.84-1.05,4.19-1.73,4.73-3.55,9.43-5.33,14.15-.05,.14-.07,.3,.1,.62,.71-.75,1.42-1.49,2.11-2.26,1.44-1.6,2.9-3.18,4.28-4.83,.35-.42,.49-1.07,.63-1.63,.59-2.39,1.12-4.8,1.74-7.18,.18-.69,.19-1.22-.4-1.71-.3-.25-.53-.59-.76-.92-.84-1.24-.63-2.13,.75-2.66,1.49-.57,2.19-1.51,2.58-3.14,.75-3.16,1.89-6.24,2.87-9.34,.59-1.85,1.2-3.69,1.81-5.54,.71-2.13,1.17-2.54,3.34-2.27,1.87,.23,3.74,.64,5.56,1.16,1.94,.56,2.47,1.85,1.76,3.79-1.02,2.79-2.13,5.56-3.08,8.37-.72,2.14-1.25,4.35-1.96,6.87,1.42-.57,2.65-1.02,3.84-1.55,.8-.35,1.51-.96,2.34-1.19,.82-.23,1.73-.11,2.59-.16,.7-.04,1.42,.01,2.09-.16,2.01-.53,3.1,.88,4.24,2.03,.88,.88,.79,2.25,0,3.57-1.57,2.66-4.07,4.12-6.86,5.1-3.44,1.21-6.97,1.38-10.6,.49-2.01,8.69-4.1,17.37-4.51,26.61,.53-.37,.92-.6,1.25-.89,4.52-4.02,8.98-8.13,13.58-12.05,2.43-2.07,3.18-4.85,4-7.67,.44-1.51,.83-3.04,1.29-4.55,.44-1.44,1.41-2.03,3.34-2.13,3.4-.19,6.64,2.59,6.69,5.89,.02,1.04-.29,2.13-.67,3.12-.78,2.06-1.79,4.04-2.57,6.11-1.31,3.48-2.52,7.01-3.76,10.52-.02,.06,.01,.15,.05,.42,.72-.54,1.41-.97,2-1.5,2.53-2.3,5.12-4.53,7.48-6.99,.99-1.03,1.81-2.5,2.09-3.89,1.12-5.59,5.46-9.02,11.2-8.78,2.9,.12,5.53,.78,7.56,2.9,2.23,2.33,2.7,5.31,2.52,8.4-.16,2.86-1,5.54-2.21,8.12-.13,.27-.16,.59-.34,1.28,1.49-.54,2.76-.93,3.96-1.48,.33-.15,.55-.74,.65-1.16,.53-2.2,.9-4.45,1.53-6.62,.37-1.27,1.07-2.47,1.71-3.65,1.79-3.3,4.7-2.7,7.05-.71,2.1,1.78,2.42,4.29,2.46,6.85,.04,2.28-.96,4.23-1.99,6.16-.25,.48-.49,.97-.52,1.59,1.96-2.05,3.89-4.11,5.88-6.13,1.85-1.88,3.8-3.65,6.38-4.48,2.93-.95,5.73,.59,6.47,3.56,.71,2.83,.57,5.69-.14,8.46-1.13,4.41-2.48,8.77-3.74,13.15-.06,.22-.09,.45-.33,.43,1.76-1.59,3.55-3.16,5.27-4.79,1.28-1.2,2.49-2.46,3.7-3.73,.55-.58,.95-.54,1.48,.03,.73,.78,1.57,1.47,2.29,2.26,.18,.2,.26,.79,.11,.95-4.17,4.43-7.95,9.22-12.74,13.04-3.6,2.87-6.49,.2-7.53-2.65-1.01-2.77-.96-5.66-.49-8.49,.69-4.17,1.65-8.31,2.47-12.37-2.26,1.72-4.34,3.92-6.19,6.33-2.01,2.62-3.95,5.31-5.93,7.95-1.51,2.02-3.37,3.43-6.02,2.56-2.45-.81-3.8-2.73-4.06-5.79-.15-1.81-.03-3.64-.03-5.27-1.44,0-3.12-.04-4.8,.04-.33,.02-.7,.44-.95,.76-2.1,2.76-4.53,5.19-7.78,6.53-3.28,1.35-6.6,1.52-9.56-.87-1.63-1.32-2.32-3.2-2.5-5.25-.08-.87-.01-1.74-.01-2.97-1.22,1.15-2.16,2.13-3.21,2.99-1.21,1.01-2.39,2.19-3.8,2.8-3.93,1.7-8.2-.65-8.84-4.89-.32-2.17-.06-4.42-.06-6.81-1.59,1.98-3.11,3.86-4.62,5.75-1.84,2.3-3.65,4.62-5.52,6.9-1.04,1.26-2.37,2.03-4.07,1.82-1.54-.19-3.13-.27-4.59-.74-2.6-.83-3.99-2.93-4.5-5.46-.42-2.1-.57-4.28-.52-6.42,.06-2.97,.42-5.93,.67-9.09-.4,.55-.74,1.02-1.07,1.48-.37,.52-.78,1.01-1.09,1.56-1.04,1.81-2.38,3.28-4.31,4.16-3.55,1.62-8.21-.91-8.79-5.42-.4-3.12,.05-6.17,.84-9.18,.12-.45,.24-.9,.44-1.63-1.67,1.3-3.09,2.44-4.54,3.55-3.14,2.4-6.36,4.69-10.02,6.26-2.55,1.09-5.09,1.65-7.75,.27-1.92-1-2.93-2.61-3.46-4.62-.1-.38-.18-.76-.26-1.11-1.66,1.44-3.22,2.99-4.98,4.26-2.32,1.68-4.92,2.87-7.89,2.64-5.1-.39-8.64-3.07-10.78-7.65-.55-1.18-.92-2.45-1.3-3.5-1.97,2.25-3.98,4.67-6.12,6.95-1.72,1.82-3.96,2.39-6.35,1.7-2.2-.64-3.7-2.2-4.32-4.44-.42-1.52-.66-3.08-.94-4.41-.86,.85-1.84,1.99-3,2.89-.83,.64-1.86,1.1-2.86,1.42-2.76,.87-5.53-.8-5.88-3.75-.26-2.23-.08-4.52,.09-6.77,.29-3.94,.63-7.88-.26-11.78-.44-1.9-1.54-3.29-3.47-3.9-1.22,2.09-2.28,4.23-3.64,6.16-2.25,3.21-4.78,6.23-8.67,7.55-1.5,.51-3.14,.63-4.88,.96-1.47,3.13-3.36,6.31-6.48,8.52-2.64,1.87-5.54,2.49-8.66,1.21-2.03-.83-3.09-2.51-3.6-4.49-.42-1.63-.55-3.34-.83-5.17-.23,.47-.47,.92-.68,1.38-1.04,2.22-2.37,4.16-4.88,4.93-3.22,1-6.8-.92-7.85-4.11-1.11-3.35-1.13-6.73-.57-10.15,.05-.31,.06-.63,.11-1.22-.44,.36-.77,.55-1.01,.82-3.04,3.45-6.28,6.7-10.01,9.41-2.22,1.61-4.51,3.21-7.46,3.07-2.94-.13-5.23-1.94-6.27-4.72-1.57-4.19-.73-8.25,.53-12.3,.11-.34,.19-.69,.28-1.03,0,0-.04,.04-.04,.04Zm59.69,7.07c.11,.13,.21,.26,.32,.39,1.45-.77,3.03-1.36,4.32-2.34,2.56-1.95,3.21-5.12,4.5-7.86,.13-.28-.16-.85-.41-1.18-1.11-1.5-2.53-2.83-3.35-4.46-.83-1.63-1.08-3.56-1.59-5.38-2.3,3.77-6.09,6.04-10.04,8.43,1.86,.13,3.43,.28,4.71,1.46,2.24,2.06,2.43,4.71,2.22,7.45-.09,1.17-.45,2.33-.68,3.49Zm100.9,2.1c-.07-.13-.14-.25-.21-.38-1.66-.37-3.34-.2-4.9,.37-7.29,2.67-12.39,7.56-14.74,15.06-.23,.75,.05,1.66,.1,2.49,.78-.17,1.72-.11,2.3-.54,2.14-1.57,4.33-3.14,6.19-5.02,3.86-3.89,7.52-7.98,11.27-11.99Zm-136.33-16.89c-.08-.14-.15-.28-.23-.42-1.58,.39-3.33,.48-4.73,1.22-7.08,3.74-11.47,9.55-12.75,17.54-.09,.56,.12,1.37,.5,1.73,.25,.24,1.14,.01,1.61-.24,.72-.39,1.45-.88,1.98-1.5,2.05-2.37,4.15-4.72,6-7.25,2.64-3.61,5.08-7.38,7.61-11.08Zm38.52-18.94c-5.18,5.19-8.78,11.05-11.4,17.8,6.8-2.66,11.83-10.51,11.4-17.8Zm166.06,63.86c1.94-2.13,3.49-8.64,.96-9.93-1.17,1.32-2.33,2.65-3.5,3.96-.54,.6-.53,1.22-.3,1.98,.51,1.66,1.49,2.95,2.84,3.99Zm-181.44-31.14c-.22,3.1-.46,6.19-.66,9.29-.02,.3,.14,.62,.2,.93,.17,.83,.59,.92,1.29,.51,1.92-1.12,2.87-3.03,4.1-4.83-2.24-1.48-3.87-3.36-4.93-5.9Zm174.47,33.22c-.88,2.09-1.77,4.05-1.66,6.29,.05,.99,.59,1.2,1.47,.84,1.92-.79,3-2.42,4.2-3.92-1.36-1.09-2.61-2.09-4-3.21Zm-166.87-32.11c.27-1.04,.57-1.76,.63-2.5,.09-1.13,.14-2.3-.05-3.41-.08-.45-.78-.92-1.29-1.11-.2-.08-.77,.51-1.01,.9-1.03,1.64-.3,3.2,.41,4.69,.24,.49,.77,.85,1.31,1.43Zm17.1-18.96c.78-1.5,.89-2.99,.27-3.58-1.11,1.11-1.23,2.62-.27,3.58Z" style="fill:#ffff;"/><path d="M142.17,64.03c-1.24,7.27-3.63,14.1-6.12,20.9-1.26,3.43-3.07,6.53-6.08,8.82-2.46,1.87-5.21,2.25-8.13,1.95-4.4-.46-7.5-2.99-9.97-6.45-.18-.26-.38-.51-.69-.92-.6,1.53-1.15,2.94-1.72,4.34-1.16,2.84-2.72,5.37-5.2,7.3-3.24,2.52-6.9,3.02-10.6,1.73-6.45-2.25-9.72-7.23-10.93-13.78-1.08-5.82,.33-11.1,3.56-15.89,2.09-3.1,4.77-5.65,8.34-7.09,5.47-2.2,8.77,1.51,8.83,5.8,.06,4.65-1.47,8.93-3.17,13.15-1.14,2.84-2.46,5.61-3.7,8.41,1.73,1.29,4.51,1.04,6.1-.58,2.11-2.14,3.03-4.93,4.12-7.62,1.16-2.86,1.55-5.87,1.97-8.91,1-7.23,4.76-12.73,11.21-16.25,1.5-.82,3.18-1.25,4.95-1.06,2.38,.25,3.91,1.71,4.58,3.82,1.01,3.22,1.44,6.57-.1,9.78-1.21,2.53-2.12,3.05-4.26,2.92-1.73-.11-3.15-1.63-3.56-3.65-.06-.27-.04-.59-.18-.81-.22-.35-.5-.83-.82-.9-.3-.06-.93,.27-1.02,.55-.44,1.43-1.01,2.89-1.05,4.35-.07,2.91,.38,5.79,1.37,8.56,.82,2.29,2.37,3.75,4.79,4.12,2.65,.41,4.27-1.13,5.53-3.18,2.02-3.28,3.15-6.94,4.47-10.52,1.04-2.84,1.08-5.81,1.55-8.72,.06-.36-.45-1-.85-1.2-2.46-1.24-4.68-2.72-6.15-5.14-3.05-5-1.62-9.62,3.88-11.72,1.39-.53,2.92-.85,4.4-.98,2.92-.25,4.67,1.99,4.9,4.71,.15,1.76,.28,3.53,.42,5.44,1.79,0,3.54-.16,5.25,.03,3.89,.43,6.43,2.73,7.93,6.25,1.33,3.13,1.45,6.49,1.87,9.79,.16,1.29,.26,2.59,.42,4.22,.54-1.84,1.06-3.37,1.43-4.93,.55-2.32,.97-4.66,1.5-6.99,1.61-7.14,5.5-12.53,12.22-15.69,1.69-.8,3.53-1.06,5.36-.63,2.53,.59,4.31,3.39,4.19,6.26-.14,3.4-1.15,6.59-2.55,9.62-1.86,4-3.94,7.9-5.94,11.86,2.03,1.44,4.51,1.28,6.39-.52,1.91-1.84,3.02-4.19,4.12-6.53,.98-2.09,1.87-4.23,2.64-6.4,.3-.85,.35-1.86,.25-2.77-.26-2.38-.62-4.75-1.03-7.11-.08-.44-.51-.86-.87-1.2-.34-.32-.83-.49-1.2-.78-1.14-.9-1.16-1.59-.13-2.6,.43-.42,.88-.83,1.22-1.31,.21-.29,.34-.72,.31-1.07-.4-5.87-.86-11.75-1.23-17.62-.1-1.62,.29-2.19,1.88-2.58,1.96-.49,3.96-.88,5.96-1.05,2.02-.17,2.97,.81,3.03,2.82,.07,2.62-.04,5.24,.09,7.85,.13,2.66,.45,5.31,.72,8.34,1.24-1.2,2.31-2.23,3.36-3.27,.79-.78,1.41-1.95,2.35-2.29,1.43-.52,2.77-1.27,4.15-1.71,1.16-.37,2.9,.31,4.1,1.01,1.06,.62,1.21,2.03,.93,3.32-.91,4.14-3.64,6.88-7.13,8.85-2.11,1.18-4.5,1.88-6.98,2.88,.63,4.03,1.2,8.47,2.05,12.86,.85,4.36,1.98,8.67,2.98,13.01,.14,.02,.28,.04,.41,.06,.74-1.23,1.56-2.41,2.2-3.69,2.69-5.39,5.34-10.81,7.98-16.23,.21-.44,.29-.99,.27-1.48-.18-4.01,1.01-7.55,3.6-10.59,2.24-2.62,4.94-4.68,8.18-5.85,2.6-.94,5.31-1.16,7.9,.07,1.93,.91,2.96,2.51,2.96,4.68,0,1.32-.99,2.34-2.4,2.52-3.02,.39-5.84,1.17-8.04,3.49-2.76,2.91-2.79,6.35,.2,9.01,1.87,1.66,3.92,3.12,5.93,4.7,3.34-3.09,6.5-6.13,8.64-10.04,.41-.75,.83-.93,1.61-.54,.78,.39,1.61,.7,2.45,.96,.92,.28,1.03,.82,.57,1.53-1.61,2.51-3.15,5.08-4.91,7.49-1.15,1.56-2.63,2.87-3.76,4.08,1.18,2.04,2.68,3.93,3.43,6.09,1.05,2.97,1.29,6.12-1.14,8.76-1.31,1.42-2.87,2.41-4.87,2.43-1.22,.02-2.52,.23-3.64-.11-3.29-1-4.64-3.64-5.16-6.82-.37-2.25-.03-4.43,.67-6.45-3.13-2.6-6.18-5.14-9.32-7.75-.57,1.69-1.22,3.54-1.81,5.4-1.55,4.85-3.22,9.67-4.55,14.58-.88,3.26-3.09,4.49-6.02,5.09-3.83,.79-6.42-.52-8.6-3.88-2.04-3.14-3.2-6.65-3.95-10.31-.31-1.5-.73-2.97-1.16-4.68-.53,1.28-.98,2.4-1.46,3.51-1.39,3.24-2.99,6.34-5.63,8.79-2.81,2.61-6.15,3.35-9.83,2.77-3.76-.59-6.5-2.8-8.73-5.74-.14-.18-.29-.35-.39-.46-.73,1.64-1.31,3.33-2.19,4.85-.87,1.5-2.21,2.64-3.9,3.16-2.58,.79-5.05-.74-5.99-3.75-.61-1.97-.96-4.01-1.52-6-.99-3.55-1.76-7.19-3.78-10.37-1.05-1.65-2.49-2.53-4.53-2.53Zm-48.98,22.92c1.3-3.09,2.36-5.91,2.17-9-.06-.92-.03-2.32-1.27-2.37-1.17-.05-1.35,1.27-1.57,2.22-.68,2.99-.2,5.9,.66,9.16Zm78.25-18.02c.13,.03,.25,.06,.38,.1,.73-1.95,1.61-3.86,2.15-5.87,.34-1.3,.25-2.73,.21-4.09-.01-.35-.5-.84-.87-.97-.24-.08-.78,.3-.99,.61-.35,.51-.6,1.1-.78,1.7-.86,2.83-.68,5.68-.09,8.53Zm58.52,5.97c-.16,1.42-.44,2.55,.52,3.4,.33,.29,.92,.27,1.4,.39,0-.47,.15-1.03-.05-1.38-.45-.77-1.08-1.42-1.86-2.4Zm-94.15-24.19c-.96,1.66-.59,3.1,.99,3.8-.47-1.25,.19-2.66-.99-3.8Z" style="fill:#ffff;"/><path d="M307.85,60.25c1.98,2.01,5.56,2.17,7.96-.9,2.12-2.72,3.92-5.7,5.83-8.59,.55-.83,1.02-1.71,1.48-2.59,.29-.56,.58-.77,1.21-.44,.95,.5,1.95,.92,2.93,1.34,.63,.27,.7,.64,.41,1.23-2.54,5.06-4.94,10.22-8.54,14.65-1.92,2.37-4.17,4.42-7.29,5.15-5.29,1.23-10.47-1.1-13.38-5.68-.68-1.07-1.27-2.18-1.94-3.34-.58,1.51-.98,3.02-1.71,4.37-1.38,2.55-3.5,3.98-6.55,3.67-2.57-.26-5.05-2.33-5.69-5.27-.67-3.1-.98-6.27-1.44-9.34-.13,.16-.43,.59-.76,.99-2.84,3.4-5.59,6.88-8.57,10.14-1.26,1.38-2.9,2.54-4.57,3.41-3.13,1.63-7.16,.83-9.25-3.09-1.43-2.69-1.66-5.59-1.51-8.58,.3-5.68,2.42-10.71,5.61-15.29,2.79-4,6.38-7.19,10.99-8.92,3.32-1.25,6.76-1.31,10.34,.25,.19-1.34,.33-2.56,.53-3.78,.62-3.77,1.26-7.53,1.89-11.3,.04-.23,.12-.46,.18-.69,.87-2.97,1.63-3.41,4.58-2.31,1.29,.48,2.52,1.21,3.66,1.99,1.48,1.01,2.06,2.42,1.93,4.33-.42,6.01-1.76,11.87-2.82,17.77-.44,2.47-.72,4.96-1,7.46-.38,3.48-.69,6.97-1.03,10.46-.02,.24,0,.48,0,1.08,.98-1.85,1.88-3.36,2.6-4.96,.86-1.91,1.61-3.88,2.32-5.85,2.5-7,7.08-11.92,14.23-14.27,1.58-.52,3.21-.56,4.83-.11,2.72,.76,4.53,3.88,3.98,6.92-.61,3.34-2.04,6.38-3.82,9.2-2.17,3.43-4.64,6.68-6.98,10.01-.2,.29-.42,.57-.66,.9Zm-27.6-18.57c-.74,.12-1.2,.18-1.65,.28-2.78,.66-4.96,2.29-6.91,4.28-3.41,3.48-5.52,7.69-6.64,12.37-.31,1.29-.27,2.71-.12,4.04,.2,1.78,1.11,2.07,2.43,.84,.81-.76,1.64-1.56,2.22-2.5,2.35-3.84,4.66-7.7,6.86-11.62,1.35-2.42,2.48-4.96,3.83-7.7Zm25.81,12.12c.47-.71,.97-1.4,1.42-2.12,1.2-1.94,2.27-3.95,2.33-6.29,.02-.71-.4-1.44-.63-2.15-.63,.48-1.54,.83-1.84,1.46-1.35,2.84-1.79,5.88-1.28,9.11Z" style="fill:#ffff;"/><path d="M63.76,66.89c.56-2.52,1.11-4.75,1.52-7,.1-.54-.27-1.17-.42-1.76-.5,.2-1.13,.27-1.49,.62-1.72,1.65-3.51,3.27-4.99,5.12-1.74,2.17-3.25,4.54-4.77,6.88-1.87,2.88-1.3,6.25,1.26,8.58,2.53,2.3,5.66,3.51,8.68,4.91,4.45,2.06,8.99,3.95,13.29,6.3,3.34,1.83,5.91,4.69,7.02,8.46,1.46,4.96,.13,9.33-3.23,13.17-3.78,4.32-8.7,6.52-14.13,7.87-4.87,1.22-9.56,.96-14.07-1.33-2.86-1.45-5.07-3.67-6.09-6.62-1.22-3.52-1.89-7.31,.74-10.58,1.04-1.29,2.56-2.23,3.96-3.19,.82-.56,1.21,.07,1.31,.87,.18,1.42,.26,2.86,.55,4.26,.28,1.35,.6,2.75,1.22,3.96,1.68,3.29,4.61,3.92,8.31,3.42,3.15-.43,6.08-1.59,8.56-3.67,.67-.56,1.31-1.18,1.84-1.87,1.45-1.87,1.34-3.89-.65-5.19-2.42-1.58-5.04-2.89-7.68-4.09-4.13-1.89-8.44-3.41-12.5-5.42-3.51-1.74-6.62-4.12-8.46-7.8-2.44-4.87-2.94-9.93-1.11-15.04,2.52-7.01,7.22-12.25,13.8-15.7,2.98-1.56,6.21-2.58,9.67-2.01,3.57,.59,5.79,3.61,5.49,7.24-.29,3.51-1.87,6.49-3.74,9.34-1.23,1.88-1.3,1.84-3.26,.68-.3-.18-.58-.41-.61-.43Z" style="fill:#ffff;"/><path d="M379.26,48.67c-.46,.49-.9,.98-1.37,1.46-1.49,1.52-3.25,1.05-5.04,.73-2.44-.44-4.91-.73-7.41-1.09-.22,1.86-.37,3.48-.62,5.09-.67,4.44-1.4,8.86-2.08,13.3-.27,1.73-1.46,2.72-2.83,3.48-.45,.25-1.19,.2-1.74,.06-1.64-.42-3.25-1.04-4.2-2.51-.53-.83-.8-1.89-.96-2.88-.57-3.39-.08-6.75,.4-10.11,.22-1.57,.49-3.13,.7-4.47-.7-.51-1.35-.91-1.92-1.4-.57-.49-1.05-1.1-1.6-1.62-1.09-1.05-1.12-1.28-.26-2.51,1.04-1.49,2.47-2.5,4.11-3.19,.66-.27,.92-.62,.95-1.31,.2-4.14,.45-8.28,.64-12.42,.08-1.63,.06-3.27,.07-4.9,0-.26-.09-.52-.17-.91-2.65,.59-5.24,1.14-7.8,1.76-1.61,.39-3.19,.92-4.8,1.34-.87,.23-1.59,.05-2.16-.77-1.46-2.09-2.98-4.13-4.53-6.26,1.84-1.73,4.03-2.64,6.27-3.42,4.88-1.7,9.92-2.55,15.03-3.24,6.34-.86,12.68-1.3,19.06-1.37,2.95-.03,5.91-.01,8.86,.07,1.6,.05,3.15,.46,4.02,1.95,.31,.53,.42,1.44,.17,1.96-.41,.84-.3,2.12-1.79,2.35-.34,.05-.71,1.52-.64,2.29,.1,1.05-.06,1.66-1.16,1.74-.78,.06-1.57,.09-2.36,.05-6.11-.24-12.21-.15-18.3,.43-.07,0-.14,.07-.05,.02v18.68c1.02,0,1.85,0,2.67,0,2.9-.01,5.7,.55,8.36,1.7,2.48,1.07,3.78,2.89,2.41,5.62-.05,.1,0,.23,0,.35,0,0,.04-.04,.04-.04Z" style="fill:#ffff;"/><path d="M484.75,27.21c-.37,1.62-.59,3.29-1.14,4.84-1.15,3.25-3.26,3.98-5.97,1.53-.87-.78-1.51-1.96-1.89-3.09-.52-1.52-.71-3.15-1.02-4.74-.04-.19-.07-.49,.04-.58,1.42-1.28,.79-2.97,.89-4.5,.08-1.2,.16-2.47,1.32-2.99,1.34-.6,2.68-.03,3.74,.88,2.13,1.82,3.87,5.82,4.02,8.64Z" style="fill:#ffff;"/><path d="M594.87,46.79c-.64,2.06-1.12,4.27-2,6.31-1.01,2.35-3.04,2.75-5.05,1.17-.68-.53-1.4-1.2-1.71-1.96-.92-2.25-1.51-4.6-1.22-7.08,.03-.22,.1-.54,.26-.63,1.21-.68,1-1.86,1.12-2.94,.08-.71,.12-1.44,.31-2.12,.54-1.89,1.9-2.47,3.67-1.63,1.53,.73,2.5,2.02,3.07,3.52,.62,1.66,1,3.41,1.55,5.36Z" style="fill:#ffff;"/></svg>