<?xml version="1.0" encoding="UTF-8"?><svg id="a" xmlns="http://www.w3.org/2000/svg" viewBox="0 0 298.07 639.59"><path d="M0,610.79c0-194,0-388,0-582,.16-1.12,.21-2.27,.52-3.34,.8-2.77,1.46-5.62,2.64-8.24,1.72-3.8,4.27-7.07,7.51-9.79,3.21-2.7,6.78-4.72,10.77-5.95C25.35,.26,29.42,0,33.5,0c8.72,0,17.44,0,26.16,.01,.99,0,2,.05,2.95,.27,1.47,.34,2.71,1.14,3.35,2.57,.63,1.39,1.19,2.82,1.7,4.26,1.11,3.14,2.9,5.77,5.58,7.77,3.46,2.57,7.48,3.56,11.65,3.57,42.4,.06,84.79,.04,127.19,.03,2.93,0,5.8-.39,8.57-1.42,3.31-1.22,6.15-3.1,7.88-6.22,1.25-2.25,2.29-4.64,3.18-7.06,.99-2.66,2.96-3.75,5.54-3.75,10.78,.01,21.57,.07,32.35,.26,2.25,.04,4.54,.51,6.71,1.13,5.86,1.7,10.79,4.89,14.72,9.64,4.48,5.42,6.99,11.65,6.99,18.61,.05,190.5,.04,381,.03,571.5,0,3.63-.13,7.25-.24,10.88-.1,3.43-1.12,6.65-2.51,9.74-1.99,4.44-4.95,8.16-8.76,11.19-3.69,2.94-7.83,4.92-12.45,5.87-1.28,.27-2.57,.49-3.86,.73H28.08c-.2-.08-.4-.23-.61-.24-3.61-.23-7.01-1.26-10.24-2.82-3.99-1.93-7.41-4.6-10.23-8.05-3.48-4.25-5.67-9.06-6.51-14.49-.16-1.07-.33-2.13-.49-3.19Z"/></svg>